<svg width="2195" height="638" viewBox="0 0 2195 638" fill="none" xmlns="http://www.w3.org/2000/svg">
<g filter="url(#filter0_dd_536_1041)">
<path d="M2106.61 288.257C2044.77 228.384 1989.47 227.311 1928.94 227.311C1915.08 227.311 1901.83 229.552 1889.63 233.383C1876.55 156.616 1788.64 98.5273 1713.24 98.5273C1646.83 98.5273 1601.6 107.203 1560.86 147.94C1489.2 27.6142 1394.54 8.00008 1307.03 8C1210.21 7.99991 1097.99 30.5578 1055.09 92.8693C990.084 55.0631 909.516 8 823.892 8C689.053 8 608.967 46.7382 536.766 131.169C503.341 117.652 465.793 110.062 426.052 110.062C299.459 110.062 194.71 187.047 176.814 287.237C70.7029 287.237 -13.9719 395.388 13.0886 505.544C53.0689 668.293 263.491 642.63 378.585 588.767C423.531 567.732 458.552 540.191 505.909 512.677C590.792 592.276 695.268 555.224 750.723 533.058C820.664 505.102 890.932 440.081 924.971 432.347C957.168 464.008 1010.86 499.488 1064.9 499.488C1140.34 499.488 1213.23 480.244 1237.97 425.233C1287.54 459.28 1347.59 524.006 1417.07 524.006C1469.53 524.006 1518.58 502.072 1560.86 481.76C1583.94 501.494 1624 552.631 1705.47 575.64C1753.05 589.078 1831.57 568.892 1831.57 568.892C1895.6 632.247 2105.74 662.899 2170.26 568.892C2200.81 524.383 2186.57 442.531 2151.5 422.162C2156.16 358.809 2153.76 333.898 2106.61 288.257Z" fill="#FEFEF2"/>
</g>
<path d="M211.775 458.61C212.237 457.526 212.685 456.662 213.118 456.017C214.282 454.151 215.617 452.621 217.124 451.427C215.173 451.916 213.414 453.112 211.845 455.016C211.244 455.662 210.594 456.545 209.896 457.664L208.503 460.41C206.478 464.071 203.925 467.113 200.844 469.535C202.795 469.046 204.64 468.018 206.38 466.451C207.853 465.19 209.186 463.492 210.382 461.355L211.775 458.61ZM118.046 436.371C118.296 430.058 119.258 424.229 120.932 418.882C122.603 413.199 125.255 407.946 128.889 403.123C132.325 398.909 136.844 395.074 142.444 391.618C139.924 392.652 137.291 394.126 134.543 396.039C132.163 397.679 129.855 399.706 127.616 402.121C123.677 406.676 120.757 412.067 118.854 418.293C117.05 424.214 116.224 430.228 116.377 436.334C116.497 442.543 117.407 448.559 119.108 454.383C118.141 447.675 117.787 441.671 118.046 436.371ZM219.166 441.742C227.081 441 234.165 445.597 240.418 455.533C247.318 466.409 248.835 478.342 244.967 491.334C240.936 505.002 231.946 516.164 217.997 524.82C209.781 529.951 201.228 533.01 192.338 533.997C183.447 534.983 174.741 533.842 166.218 530.573C148.026 523.775 133.154 509.052 121.603 486.405C111.423 466.445 107.151 447.532 108.787 429.666C110.334 413.286 116.345 400.597 126.82 391.599C134.985 384.544 144.319 380.112 154.82 378.302C166.23 376.282 177.081 377.81 187.371 382.886C192.144 385.275 195.895 388.399 198.624 392.257C201.182 395.778 202.562 399.479 202.763 403.358C202.896 407.103 201.912 410.317 199.811 413.001C197.61 415.821 194.489 417.501 190.449 418.041C181.222 419.199 174.599 421.229 170.578 424.132C165.084 428.127 163.668 434.061 166.33 441.936C168.162 447.353 170.796 451.938 174.232 455.688C177.396 459.07 180.871 461.403 184.657 462.687C188.409 463.904 191.83 463.892 194.921 462.651C198.247 461.374 200.788 458.889 202.543 455.195C204.332 451.401 206.682 448.293 209.594 445.872C212.506 443.452 215.697 442.075 219.166 441.742Z" fill="#28BF0F" calss="letter" />
<path d="M251.762 347.497C252.438 346.744 253.036 346.102 253.556 345.572C254.569 344.442 255.807 343.264 257.268 342.038L261.315 338.737C254.929 342.475 249.686 347.06 245.587 352.491C243.926 354.444 242.057 357.413 239.98 361.396L239.512 362.676L238.897 363.892C238.473 364.871 238.182 365.676 238.025 366.305L237.194 368.823L236.51 371.405C234.923 378.278 235.134 385.292 237.143 392.448C238.917 398.804 241.545 405.27 245.027 411.844L243.224 406.959C242.575 405.107 242.044 403.451 241.631 401.991L240.039 397.023C239.488 395.213 239.076 393.55 238.803 392.036C237.2 384.882 237.149 378.17 238.649 371.899C239.094 369.533 240.187 366.344 241.928 362.331C243.555 358.85 245.234 355.915 246.967 353.527C247.292 352.912 247.779 352.193 248.426 351.37L250.074 349.381L251.762 347.497ZM297.33 319.406C311.813 320.177 324.488 325.717 335.355 336.027C344.258 344.436 352.205 355.046 359.198 367.86C365.815 379.928 370.71 392.353 373.881 405.134C377.123 417.887 378.084 428.863 376.766 438.063C375.346 448.033 371.41 454.494 364.958 457.448C357.298 461.04 350.212 460.431 343.699 455.621C334.926 449.189 326.723 435.151 319.087 413.507C315.579 403.779 311.529 396.172 306.937 390.685C301.968 384.859 297.512 383.009 293.569 385.134C286.594 389.024 288.315 399.254 298.732 415.825C311.984 436.712 319.474 452.127 321.204 462.07C322.729 470.877 319.793 477.308 312.398 481.364C307.205 484.225 300.545 483.773 292.418 480.006C284.779 476.452 276.802 470.395 268.488 461.835C249.895 442.814 237.033 420.963 229.902 396.28C226.061 383.034 227.166 370.106 233.218 357.496C238.817 345.795 247.582 336.372 259.514 329.228C271.488 321.985 284.093 318.711 297.33 319.406Z" fill="#28BF0F" calss="letter" />
<path d="M439.917 341.778C441.058 339.605 441.699 337.351 441.842 335.015C442.034 332.584 441.698 330.358 440.833 328.335C440.786 333.012 439.831 337.182 437.969 340.843C437.122 342.688 435.955 344.394 434.469 345.963C433.055 347.51 431.335 348.836 429.311 349.94C431.532 349.723 433.624 348.834 435.587 347.275C437.356 345.855 438.799 344.022 439.917 341.778ZM422.43 325.886C420.85 327.405 419.856 329.414 419.448 331.912C419.089 334.315 419.379 336.517 420.316 338.517C421.302 340.422 422.674 341.536 424.432 341.858C426.189 342.18 427.858 341.581 429.439 340.062C430.947 338.565 431.905 336.568 432.313 334.07C432.744 331.644 432.491 329.431 431.553 327.431C430.567 325.526 429.195 324.412 427.437 324.09C425.68 323.768 424.011 324.367 422.43 325.886ZM379.891 307.482C382.232 302.565 385.491 298.192 389.669 294.363C393.288 291.023 397.95 287.991 403.655 285.266C401.208 286.028 398.577 287.085 395.76 288.436C393.182 289.792 390.79 291.366 388.584 293.159C384.079 296.696 380.532 301.159 377.944 306.548C375.526 311.726 374.08 317.233 373.604 323.071C373.358 325.835 373.3 328.697 373.431 331.66C373.651 334.91 374 337.686 374.478 339.986C374.298 333.563 374.542 327.995 375.209 323.283C376.117 317.31 377.677 312.044 379.891 307.482ZM373.78 298.48C380.679 287.402 391.384 279.683 405.895 275.323C419.78 271.237 432.133 271.619 442.954 276.468C452.948 280.943 460.26 288.346 464.89 298.679C469.476 308.868 470.52 319.724 468.022 331.249C465.388 343.606 459.092 354.338 449.134 363.445C446.122 366.2 444.608 369.2 444.59 372.446C444.537 375.07 445.483 378.371 447.429 382.348C447.819 383.096 448.29 383.977 448.842 384.99L450.322 387.849C451.676 390.43 452.732 392.432 453.49 393.856C455.938 398.941 457.523 403.663 458.246 408.021C459.406 414.298 458.639 419.832 455.943 424.622C453.248 429.412 449.195 432.373 443.784 433.505C437.798 434.815 431.087 433.665 423.65 430.054C415.198 425.968 406.541 419.062 397.679 409.336C388.466 399.245 380.967 387.553 375.18 374.261C369.187 360.56 365.928 347.272 365.401 334.397C364.805 320.279 367.597 308.307 373.78 298.48Z" fill="#28BF0F" calss="letter" />
<path d="M570.491 350.429C572.246 349.005 573.623 347.128 574.621 344.798C576.561 340.229 576.48 335.789 574.377 331.48C574.664 336.297 574.063 340.472 572.574 344.004C570.917 347.808 568.218 350.968 564.475 353.483C566.71 353.108 568.715 352.09 570.491 350.429ZM548.495 331.098C547.713 333.687 547.872 336.325 548.971 339.011C550.071 341.697 551.811 343.65 554.19 344.869C556.57 346.089 558.89 346.237 561.15 345.314C563.41 344.391 564.931 342.635 565.714 340.046C566.586 337.513 566.436 334.912 565.263 332.243C564.164 329.557 562.424 327.604 560.045 326.384C557.648 325.091 555.319 324.906 553.059 325.829C550.816 326.826 549.295 328.582 548.495 331.098ZM510.474 269.038C513.903 263.883 518.172 259.499 523.282 255.885C527.913 252.539 533.505 249.818 540.058 247.723L535.411 248.708L533.127 249.365L530.868 250.133C527.745 251.338 524.903 252.748 522.341 254.363C517.016 257.718 512.462 262.209 508.68 267.835C505.122 273.098 502.552 278.94 500.972 285.363C499.414 291.548 498.731 297.835 498.925 304.226L499.56 299.539L500.305 294.826L501.322 290.282L502.585 285.795C504.696 279.324 507.326 273.739 510.474 269.038ZM503.603 261.594C515.714 245 533.76 236.808 557.743 237.02C579.167 237.217 595.576 245.853 606.969 262.927C617.053 278.063 621.634 296.789 620.713 319.107C619.817 340.876 614.044 359.38 603.395 374.62C591.703 391.347 576.958 399.415 559.159 398.825C540.208 398.274 524.185 389.469 511.091 372.41C498.931 356.681 491.98 338.089 490.24 316.635C488.507 294.558 492.962 276.211 503.603 261.594Z" fill="#28BF0F"/>
<path d="M725.375 303.844C726.143 302.95 726.83 302.261 727.437 301.777C729.108 300.349 730.842 299.293 732.638 298.609C730.631 298.487 728.593 299.096 726.525 300.438C725.757 300.873 724.872 301.519 723.869 302.376L721.715 304.573C718.681 307.454 715.332 309.585 711.665 310.965C713.673 311.087 715.742 310.664 717.872 309.694C719.656 308.936 721.439 307.718 723.221 306.042L725.375 303.844ZM642.694 254.368C644.832 248.424 647.504 243.155 650.709 238.562C654.013 233.647 658.123 229.438 663.039 225.935C667.584 222.954 673.046 220.66 679.426 219.054C676.712 219.279 673.758 219.89 670.562 220.885C667.799 221.731 664.988 222.968 662.127 224.596C657 227.752 652.593 232.011 648.905 237.373C645.403 242.475 642.806 247.961 641.114 253.83C639.36 259.786 638.417 265.797 638.287 271.863C639.383 265.176 640.853 259.344 642.694 254.368ZM737.5 289.989C745.27 291.669 750.642 298.189 753.614 309.549C756.921 322.001 754.776 333.838 747.178 345.059C739.222 356.876 727.29 364.808 711.384 368.854C702.006 371.27 692.93 371.607 684.156 369.866C675.381 368.125 667.423 364.41 660.28 358.723C644.979 346.754 635.229 328.229 631.03 303.15C627.329 281.047 628.947 261.724 635.883 245.182C642.288 230.029 651.838 219.743 664.534 214.322C674.443 210.058 684.676 208.647 695.235 210.089C706.723 211.604 716.609 216.333 724.893 224.278C728.726 227.996 731.362 232.105 732.804 236.607C734.183 240.737 734.385 244.682 733.41 248.441C732.409 252.052 730.504 254.82 727.693 256.746C724.745 258.77 721.264 259.431 717.249 258.728C708.103 257.049 701.176 256.987 696.469 258.542C690.028 260.694 686.891 265.926 687.06 274.237C687.177 279.956 688.309 285.122 690.457 289.735C692.456 293.913 695.067 297.186 698.291 299.552C701.502 301.844 704.768 302.865 708.089 302.613C711.645 302.399 714.816 300.796 717.601 297.804C720.448 294.725 723.624 292.47 727.129 291.04C730.635 289.611 734.091 289.26 737.5 289.989Z" fill="#28BF0F" calss="letter" />
<path d="M837.661 215.423C839.448 212.06 841.204 209.155 842.93 206.708C844.919 203.856 847.208 201.353 849.796 199.2C845.025 202.253 840.5 207.405 836.221 214.656C832.979 220.136 830.317 226.505 828.236 233.765C827.44 236.422 826.598 239.767 825.711 243.799L824.505 248.81L823.411 253.81C822.389 258.006 821.222 261.118 819.908 263.145C818.932 264.758 817.803 265.971 816.52 266.781C815.305 267.509 813.688 268.011 811.671 268.288C813.718 268.311 815.425 267.952 816.79 267.209C818.313 266.526 819.641 265.408 820.774 263.855C822.23 261.738 823.653 258.525 825.042 254.216C825.733 252.024 826.616 248.713 827.691 244.284L829.01 239.261L830.339 234.352C832.248 227.64 834.688 221.33 837.661 215.423ZM769.862 256.869C770.052 250.405 770.445 244.83 771.04 240.145L771.288 238.073L771.627 235.764C771.823 233.925 772.075 232.269 772.383 230.798C773.045 226.789 773.909 223.29 774.976 220.302C777.807 212.21 782.084 207.613 787.807 206.512C783.052 206.682 779.087 209.466 775.912 214.863C774.749 216.875 773.664 219.296 772.657 222.126C771.959 224.243 771.324 226.619 770.753 229.254C767.604 242.535 767.18 257.326 769.482 273.628L769.677 265.305L769.862 256.869ZM842.543 193.666C851.351 186.267 860.607 184.89 870.309 189.535C878.107 193.308 885.069 203.534 891.196 220.213C896.895 235.646 900.719 253.161 902.667 272.759C904.584 292.814 904.059 309.625 901.09 323.191C897.67 338.319 891.651 346.35 883.034 347.284C869.616 348.697 862.184 340.224 860.738 321.865C860.522 318.929 860.445 315.487 860.507 311.537C860.53 310.246 860.561 308.65 860.599 306.751L860.724 304.577L860.736 302.415C860.897 296.408 860.474 293.303 859.47 293.1C858.472 292.972 857.748 293.309 857.298 294.113C856.968 294.6 856.341 296.293 855.417 299.191C854.906 300.91 854.376 302.442 853.828 303.785C853.13 305.902 852.356 308.027 851.508 310.159C849.188 315.774 846.312 321.899 842.881 328.535C839.015 336.124 833.98 342.237 827.775 346.874C821.218 351.774 814.37 354.124 807.23 353.926C782.751 353.028 767.695 331.096 762.061 288.13C758.983 264.778 759.334 244.686 763.115 227.854C767.068 210.474 773.782 200.667 783.255 198.435C791.026 196.599 797.013 198.164 801.218 203.129C806.465 209.431 808.709 220.961 807.951 237.719C807.572 246.857 807.584 252.694 807.987 255.232C808.346 258.078 809.508 259.479 811.473 259.435C812.53 259.406 813.476 258.25 814.309 255.968C814.978 254.309 815.819 251.343 816.834 247.072L817.262 245.664L817.578 244.268L818.299 241.238C818.885 238.753 819.426 236.576 819.922 234.707C821.305 229.564 822.784 225.019 824.361 221.07C829.205 208.834 835.265 199.699 842.543 193.666Z" fill="#28BF0F" calss="letter" />
<path d="M1076.89 191.792C1077.79 190.581 1078.76 189.748 1079.82 189.291C1080.8 188.835 1082.11 188.49 1083.77 188.258C1082.11 188.188 1080.76 188.344 1079.7 188.725C1078.42 189.107 1077.22 189.866 1076.09 191.002C1074.52 192.744 1073.25 195.314 1072.28 198.713C1071.24 202.943 1070.77 208.453 1070.87 215.244L1070.88 217.394L1071 219.431C1071 221.016 1070.97 222.336 1070.9 223.393C1070.76 226.035 1070.24 228.64 1069.34 231.209C1067.4 236.573 1063.87 240.472 1058.76 242.906C1061.39 242.141 1063.8 240.774 1065.98 238.804C1068.01 236.911 1069.62 234.603 1070.82 231.882C1071.94 229.464 1072.64 226.707 1072.93 223.612C1073.08 222.404 1073.11 220.97 1073.03 219.31L1073.02 215.236C1072.84 208.747 1073.16 203.351 1073.97 199.046C1074.64 195.875 1075.61 193.457 1076.89 191.792ZM997.561 202.721C998.978 198.641 1001 195.2 1003.63 192.398C1006.63 189.067 1010.13 187.206 1014.12 186.814C1012.16 186.595 1010.09 186.866 1007.91 187.629C1005.88 188.391 1004.03 189.567 1002.38 191.158C999.375 193.885 997.09 197.516 995.523 202.049C992.839 210.057 991.399 218.325 991.204 226.853L992.652 220.735L994.1 214.731C995.289 210.124 996.443 206.12 997.561 202.721ZM1067.05 190.017C1070.19 183.516 1075.6 180.025 1083.29 179.544C1094.06 178.977 1102.64 186.152 1109.03 201.069C1115.19 215.384 1117.97 233.295 1117.37 254.803C1116.64 282.725 1114.34 302.73 1110.46 314.818C1105.17 331.513 1095.85 339.885 1082.51 339.934C1074.6 339.963 1068.52 336.929 1064.28 330.832C1059.58 324.285 1057.55 314.784 1058.18 302.331C1058.46 294.935 1057.38 289.544 1054.96 286.157C1053.06 283.598 1050.42 282.325 1047.03 282.338C1040.1 282.363 1037.18 289.353 1038.29 303.309C1039.79 322.395 1033.31 333.02 1018.85 335.186C1012.37 336.115 1006.44 334.363 1001.08 329.931C994.499 324.522 989.718 315.597 986.733 303.158C982.678 286.421 980.729 268.77 980.888 250.207C981.044 230.964 983.471 214.279 988.168 200.151C990.553 192.823 994.376 187.15 999.638 183.132C1005.05 178.962 1011.15 177.392 1017.94 178.424C1026.38 179.676 1032.43 183.276 1036.06 189.224C1040.16 195.925 1041.51 205.918 1040.13 219.204C1039.7 223.884 1040.43 227.692 1042.32 230.628C1044.22 233.488 1047.01 235.063 1050.7 235.351C1054.4 235.64 1057.37 234.535 1059.62 232.036C1062.33 229.159 1063.55 224.853 1063.31 219.12C1062.66 205.992 1063.9 196.291 1067.05 190.017Z" fill="#28BF0F" calss="letter" />
<path d="M1208.22 297.113C1213.35 295.821 1217.9 294.873 1221.86 294.27C1219.85 293.776 1217.48 293.64 1214.75 293.861C1212.63 293.965 1210.26 294.358 1207.66 295.04C1206.74 295.214 1205.59 295.563 1204.2 296.088L1202.59 296.562L1200.97 297.149C1198.74 297.777 1196.45 298.25 1194.09 298.568C1196.25 299.145 1198.66 299.208 1201.33 298.757C1202.24 298.659 1203.39 298.422 1204.77 298.048L1208.22 297.113ZM1170.32 193.916C1173.19 192.494 1176.39 191.431 1179.9 190.726C1182.81 190.062 1186.22 189.692 1190.15 189.616C1186.86 189.199 1183.38 189.226 1179.73 189.696C1176.08 190.166 1172.71 191.068 1169.61 192.402C1166.44 193.731 1163.39 195.558 1160.46 197.884C1158.08 199.939 1155.77 202.678 1153.54 206.102C1150.21 211.504 1147.53 217.963 1145.52 225.481C1143.79 231.957 1142.64 238.807 1142.07 246.03L1143.16 240.878C1143.57 238.936 1143.97 237.259 1144.36 235.845C1145.16 232.339 1146.07 229.027 1147.08 225.911C1149.63 218.198 1152.41 211.97 1155.4 207.23C1157.39 204.094 1159.54 201.535 1161.84 199.551C1164.15 197.492 1166.97 195.613 1170.32 193.916ZM1198.13 251.976L1197.2 252.263L1195.48 252.731L1193.64 253.192C1194.75 253.634 1196.02 253.858 1197.45 253.865C1197.98 253.895 1198.62 253.857 1199.38 253.749L1200.18 253.682L1201.09 253.621C1202.15 253.531 1203.29 253.483 1204.49 253.476C1205.92 253.559 1207.08 253.739 1207.97 254.017C1207.35 252.998 1206.3 252.258 1204.82 251.794C1203.71 251.428 1202.39 251.315 1200.87 251.454C1200.34 251.499 1199.69 251.613 1198.93 251.796L1198.13 251.976ZM1191.13 288.987C1193.78 290.198 1197.1 290.162 1201.1 288.881C1214.17 284.795 1224.24 284.354 1231.3 287.557C1238 290.588 1241.06 296.433 1240.49 305.092C1240.04 311.566 1236.51 317.863 1229.89 323.982C1223.67 329.747 1215.82 334.359 1206.33 337.819C1196.62 341.417 1187.12 343.1 1177.85 342.869C1167.67 342.586 1159.21 339.983 1152.48 335.06C1145.67 330.058 1140.42 320.875 1136.73 307.512C1133.29 295.07 1131.68 280.994 1131.91 265.286C1132.21 249.507 1134.32 235.154 1138.23 222.228C1142.43 208.184 1148.22 198.087 1155.6 191.936C1163.45 185.283 1172.8 181.588 1183.64 180.851C1193.18 180.266 1202.56 181.94 1211.77 185.871C1220.54 189.701 1227.01 194.646 1231.19 200.706C1235.73 207.09 1236.52 213.182 1233.54 218.981C1231.76 222.356 1228.95 224.726 1225.09 226.091C1222.24 227.061 1218.32 227.592 1213.34 227.682L1210.16 227.727L1207.11 227.664C1204.62 227.672 1202.61 227.746 1201.09 227.885C1196.7 228.161 1193.4 229.03 1191.21 230.491C1189.72 231.463 1188.66 232.838 1188.02 234.616C1187.47 236.323 1187.41 238.02 1187.85 239.707C1189.05 243.707 1192.17 245.209 1197.21 244.214C1203.17 243.045 1208.19 243.75 1212.27 246.328C1216.28 248.826 1218.3 252.419 1218.33 257.107C1218.34 262.171 1216.45 266.22 1212.65 269.251C1208.61 272.571 1202.54 274.376 1194.45 274.666C1191.64 274.807 1189.55 275.858 1188.15 277.818C1186.76 279.703 1186.34 281.758 1186.89 283.981C1187.43 286.356 1188.85 288.024 1191.13 288.987Z" fill="#28BF0F" calss="letter" />
<path d="M1309.71 263.899C1312.98 263.137 1315.8 262.018 1318.17 260.544C1320.96 258.739 1322.89 256.492 1323.96 253.805C1322.35 255.898 1320.14 257.656 1317.32 259.079C1314.82 260.311 1312.14 261.217 1309.27 261.797C1305.61 262.591 1302.76 263.593 1300.73 264.801C1299.33 265.704 1298.22 266.792 1297.39 268.063C1296.55 269.485 1296.16 270.921 1296.22 272.371C1296.82 269.782 1298.61 267.747 1301.58 266.267C1303.51 265.35 1306.22 264.56 1309.71 263.899ZM1270.91 306.372C1273.33 306.498 1276.5 306.977 1280.42 307.809L1285.2 308.814L1290.09 309.833C1293.81 310.49 1297.11 310.831 1299.99 310.859L1295.14 309.503L1290.4 308.16C1286.57 307.112 1283.4 306.291 1280.89 305.698C1276.81 304.924 1273.47 304.615 1270.87 304.772C1268.66 304.896 1266.97 305.386 1265.81 306.239C1265.14 306.77 1264.68 307.514 1264.41 308.471C1264.27 309.062 1264.14 309.883 1264.02 310.932L1264.48 309.847L1264.96 308.648C1265.35 307.933 1265.86 307.423 1266.5 307.117C1267.4 306.612 1268.87 306.364 1270.91 306.372ZM1288.1 208.317C1291.23 206.854 1295.26 205.42 1300.2 204.014C1304.28 202.889 1308.48 201.93 1312.82 201.138C1303.81 201.012 1295.26 202.762 1287.18 206.389C1282.53 208.587 1278.9 211.094 1276.3 213.909C1274.67 215.619 1273.43 217.489 1272.59 219.519C1271.72 221.774 1271.4 223.939 1271.61 226.015C1271.93 221.95 1273.87 218.299 1277.42 215.063C1279.11 213.586 1280.81 212.339 1282.52 211.32C1284.48 210.103 1286.34 209.102 1288.1 208.317ZM1355.99 283.015C1358.15 285.39 1360.08 288.043 1361.79 290.975C1366.98 299.928 1368.47 309.821 1366.23 320.653C1363.79 332.677 1357.11 341.971 1346.19 348.537C1338.45 353.19 1328.88 355.203 1317.5 354.576C1307.17 353.994 1296.85 351.362 1286.54 346.681C1276.45 342.025 1268.53 336.403 1262.76 329.814C1256.59 322.724 1254.2 315.84 1255.57 309.162C1256.84 303.384 1259.74 299.654 1264.26 297.971C1267.81 296.71 1272.79 296.638 1279.19 297.754C1281.28 298.071 1284.05 298.656 1287.52 299.511L1291.63 300.44C1293.17 300.846 1294.5 301.151 1295.62 301.355C1301.7 302.587 1306.08 302.75 1308.76 301.844C1310.5 301.209 1311.76 300.214 1312.52 298.858C1313.27 297.578 1313.47 296.233 1313.1 294.823C1312.12 291.445 1308.96 289.524 1303.63 289.062C1298.29 288.674 1294.15 286.754 1291.21 283.301C1288.55 280.033 1287.36 276.174 1287.64 271.725C1288.37 262.77 1294.79 257.054 1306.91 254.576C1310.18 253.889 1312.76 252.894 1314.65 251.594C1316.4 250.275 1317.11 248.991 1316.8 247.74C1316.57 246.422 1315.31 245.517 1313.02 245.025C1310.43 244.423 1306.94 244.401 1302.55 244.959C1276.32 248.774 1263.16 242.473 1263.07 226.057C1262.99 219.515 1265.56 213.621 1270.8 208.375C1275.42 203.743 1281.81 199.997 1289.95 197.137C1297.55 194.442 1305.66 192.869 1314.28 192.419C1322.91 191.97 1330.63 192.708 1337.47 194.634C1351.3 198.43 1361.15 204.805 1367.02 213.761C1372.57 222.299 1373.81 231.899 1370.77 242.562C1369.61 246.682 1367.54 250.507 1364.56 254.037C1362.37 256.595 1359.49 259.188 1355.92 261.816L1353.81 263.395L1352.71 264.066L1351.72 264.749C1350.15 265.86 1348.99 266.714 1348.24 267.311C1346.07 269.036 1344.99 270.506 1345 271.723C1345.04 272.715 1345.57 273.725 1346.59 274.754C1347 275.106 1347.59 275.591 1348.35 276.211L1349.39 277.127L1350.53 278.057C1352.61 279.74 1354.43 281.393 1355.99 283.015Z" fill="#28BF0F" calss="letter" />
<path d="M1490.39 231.437C1491.5 230.41 1492.61 229.768 1493.73 229.511C1494.77 229.24 1496.13 229.141 1497.8 229.214C1496.18 228.844 1494.82 228.751 1493.72 228.934C1492.39 229.077 1491.07 229.604 1489.75 230.516C1487.89 231.942 1486.17 234.238 1484.6 237.405C1482.81 241.375 1481.35 246.708 1480.22 253.404L1479.83 255.52L1479.58 257.545C1479.3 259.105 1479.03 260.397 1478.77 261.423C1478.15 263.995 1477.17 266.463 1475.82 268.826C1472.94 273.749 1468.76 276.941 1463.29 278.404C1466.02 278.131 1468.63 277.225 1471.13 275.684C1473.47 274.19 1475.48 272.215 1477.15 269.757C1478.69 267.582 1479.88 264.999 1480.73 262.009C1481.09 260.848 1481.38 259.444 1481.61 257.797L1482.33 253.787C1483.34 247.375 1484.63 242.126 1486.21 238.041C1487.44 235.044 1488.83 232.842 1490.39 231.437ZM1410.4 227.758C1412.53 224.004 1415.15 220.988 1418.24 218.711C1421.8 215.982 1425.57 214.787 1429.57 215.128C1427.68 214.556 1425.6 214.446 1423.31 214.799C1421.18 215.179 1419.15 216.001 1417.24 217.264C1413.79 219.4 1410.88 222.554 1408.52 226.727C1404.43 234.114 1401.51 241.983 1399.77 250.333L1402.3 244.581L1404.82 238.94C1406.82 234.625 1408.68 230.898 1410.4 227.758ZM1481.03 227.902C1485.3 222.08 1491.26 219.632 1498.91 220.557C1509.61 221.959 1516.74 230.575 1520.32 246.405C1523.77 261.602 1523.26 279.72 1518.76 300.761C1512.98 328.087 1507.09 347.34 1501.08 358.522C1492.85 373.978 1482.17 380.516 1469.05 378.138C1461.26 376.727 1455.83 372.639 1452.76 365.872C1449.33 358.579 1449.06 348.867 1451.94 336.736C1453.55 329.513 1453.47 324.016 1451.71 320.245C1450.31 317.384 1447.94 315.652 1444.6 315.047C1437.78 313.811 1433.64 320.155 1432.2 334.08C1430.21 353.121 1421.91 362.391 1407.3 361.891C1400.76 361.626 1395.25 358.826 1390.78 353.492C1385.29 346.976 1382.21 337.331 1381.53 324.555C1380.58 307.359 1381.87 289.648 1385.39 271.423C1389.03 252.529 1394.45 236.562 1401.63 223.524C1405.31 216.751 1410.09 211.868 1416 208.873C1422.08 205.756 1428.36 205.323 1434.85 207.571C1442.92 210.339 1448.21 214.978 1450.71 221.488C1453.52 228.822 1453.04 238.896 1449.27 251.709C1447.99 256.232 1448.02 260.109 1449.35 263.341C1450.7 266.499 1453.16 268.555 1456.74 269.51C1460.32 270.466 1463.44 269.92 1466.11 267.873C1469.29 265.535 1471.28 261.524 1472.08 255.841C1473.82 242.813 1476.81 233.5 1481.03 227.902Z" fill="#28BF0F" calss="letter" />
<path d="M1597.69 346.697C1599.41 346.67 1601.19 346.268 1603.02 345.492C1606.7 343.865 1609.25 341.363 1610.66 337.985C1607.5 340.603 1604.69 342.454 1602.23 343.538C1599.17 344.857 1595.9 345.498 1592.41 345.46C1593.97 346.329 1595.74 346.741 1597.69 346.697ZM1590.57 331.202C1590.55 333.38 1591.29 335.05 1592.79 336.211C1594.3 337.299 1596.11 337.529 1598.21 336.9C1600.34 336.198 1602.12 334.863 1603.55 332.894C1605.01 330.852 1605.74 328.743 1605.76 326.565C1605.69 324.368 1604.91 322.726 1603.4 321.638C1601.89 320.549 1600.08 320.32 1597.97 320.949C1595.87 321.578 1594.09 322.913 1592.63 324.955C1591.19 326.923 1590.51 329.006 1590.57 331.202ZM1576.26 285.36C1581.83 280.01 1586.49 275.79 1590.23 272.699C1595.58 268.227 1600.61 264.531 1605.32 261.61L1607.38 260.386C1608.12 259.951 1608.79 259.616 1609.39 259.382L1611.54 258.296L1613.62 257.429C1617.21 256.167 1620.28 255.745 1622.82 256.162C1620.45 255.398 1617.27 255.481 1613.3 256.411L1611.02 257.112L1608.8 258.061C1608.19 258.295 1607.48 258.621 1606.68 259.037L1604.53 260.123C1599.77 262.641 1594.52 266.281 1588.79 271.044C1583.83 275.226 1579.24 279.62 1575.03 284.227C1570.49 289.217 1566.48 294.108 1563 298.902L1569.64 292.076C1572.16 289.528 1574.37 287.289 1576.26 285.36ZM1590.36 259.88C1605.98 248.382 1618.35 244.58 1627.47 248.474C1636.57 252.441 1643.35 263.02 1647.83 280.212C1651.71 295.46 1653.27 313.423 1652.49 334.099C1651.76 354.007 1649.11 371.242 1644.53 385.802C1639.62 401.368 1633.66 409.772 1626.65 411.014C1620.7 412.061 1615.35 410.768 1610.6 407.137C1607.03 404.353 1603.39 399.877 1599.68 393.707L1597.54 389.769L1595.36 385.941C1593.63 382.692 1592.29 380.324 1591.34 378.836C1588.32 373.933 1585.46 371.135 1582.75 370.443C1580.12 369.77 1576.35 370.984 1571.44 374.086C1570.04 374.975 1567.78 376.537 1564.64 378.77L1560.95 381.33C1559.54 382.292 1558.22 383.164 1557.01 383.944C1550.79 387.881 1545.25 390.238 1540.38 391.017C1533.89 392.079 1527.85 390.608 1522.26 386.606C1514.81 381.349 1514.07 370.254 1520.03 353.321C1525.45 337.887 1534.99 321.093 1548.66 302.941C1562.43 284.661 1576.33 270.307 1590.36 259.88Z" fill="#28BF0F" calss="letter" />
<path d="M1764.01 316.415C1767.03 314.095 1769.83 312.179 1772.41 310.668C1775.4 308.897 1778.52 307.568 1781.77 306.682C1776.16 307.482 1769.91 310.295 1763.02 315.12C1757.8 318.762 1752.74 323.456 1747.84 329.2C1746 331.36 1743.85 334.055 1741.39 337.285L1738.19 341.453L1735.12 345.55C1732.38 348.922 1730.03 351.269 1728.07 352.593C1726.54 353.586 1725.01 354.221 1723.48 354.498C1722.08 354.656 1720.4 354.443 1718.45 353.858C1720.3 354.729 1722 355.109 1723.55 354.999C1725.17 354.914 1726.86 354.411 1728.6 353.492C1730.78 352.24 1733.39 349.942 1736.44 346.596C1737.97 344.888 1740.15 342.241 1742.96 338.655L1746.24 334.63L1749.48 330.713C1754.02 325.325 1758.86 320.558 1764.01 316.415ZM1685.01 326.089C1687.88 320.213 1690.55 315.302 1693 311.356L1693.54 310.465L1694.12 309.466L1695.35 307.613C1696.36 306.044 1697.29 304.606 1698.13 303.299C1700.46 299.949 1702.7 297.123 1704.83 294.822C1710.76 288.63 1716.55 286.22 1722.22 287.592C1717.82 285.775 1713.09 286.676 1708.04 290.296C1706.08 291.62 1704.09 293.373 1702.07 295.556C1700.56 297.193 1698.97 299.08 1697.28 301.218C1688.92 311.999 1682.41 325.322 1677.73 341.185L1681.39 333.584L1685.01 326.089ZM1777.46 298.637C1788.56 295.485 1797.59 298.082 1804.55 306.429C1810.08 313.097 1812.19 325.292 1810.86 343.014C1809.64 359.495 1805.82 377.046 1799.42 395.666C1792.93 414.74 1785.54 429.835 1777.22 440.951C1767.82 453.372 1758.97 458.209 1750.67 455.461C1737.88 451.182 1734.65 440.4 1741.01 423.115C1742.05 420.282 1743.37 417.105 1744.96 413.583C1745.54 412.346 1746.23 410.906 1747.03 409.265L1748.08 407.231L1748.95 405.375C1751.6 399.903 1752.51 396.867 1751.68 396.265C1750.83 395.735 1750.03 395.742 1749.29 396.286C1748.79 396.593 1747.5 397.909 1745.44 400.235C1744.29 401.517 1743.17 402.691 1742.09 403.758C1740.6 405.324 1739.03 406.901 1737.38 408.489C1732.94 412.638 1727.83 417.032 1722.03 421.673C1715.28 427.024 1708.12 430.523 1700.55 432.171C1692.55 433.911 1685.35 433.21 1678.93 430.068C1656.95 419.074 1652.3 392.82 1664.98 351.307C1671.86 328.704 1680.51 310.527 1690.91 296.775C1701.7 282.597 1711.92 276.432 1721.56 278.281C1729.32 279.809 1734.07 283.74 1735.82 290.074C1738.06 298.011 1735.37 309.448 1727.75 324.386C1723.62 332.545 1721.17 337.887 1720.39 340.412C1719.61 343.175 1720.09 344.932 1721.82 345.682C1722.8 346.094 1724.17 345.446 1725.94 343.739C1727.24 342.506 1729.23 340.156 1731.92 336.689L1732.79 335.549L1733.8 334.339L1735.71 331.881C1737.24 329.933 1738.63 328.212 1739.85 326.716C1743.26 322.538 1746.5 318.978 1749.57 316.039C1759.04 306.91 1768.34 301.11 1777.46 298.637ZM1753.87 268.961L1748.48 267.603L1747.12 267.38L1745.72 267.264C1744.63 267.209 1743.7 267.371 1742.93 267.748C1744.2 267.541 1745.96 267.862 1748.22 268.711L1750.75 269.693L1753.43 270.605C1757.16 271.797 1760.88 272.345 1764.57 272.249C1766.74 272.191 1768.64 272 1770.26 271.676C1772.34 271.187 1774.14 270.566 1775.67 269.812C1776.91 269.199 1778.52 268.231 1780.48 266.907L1781.59 266.091C1782 265.831 1782.38 265.642 1782.74 265.525C1783.1 265.408 1783.52 265.351 1783.99 265.354L1784.71 265.358L1785.39 265.47L1784.1 265.032C1783.58 264.934 1783.07 264.918 1782.56 264.987C1782.16 265.008 1781.72 265.137 1781.24 265.372L1779.95 266.009L1777.4 267.174C1776.54 267.598 1775.74 267.963 1775 268.269C1771.89 269.443 1768.42 270.053 1764.58 270.101C1761.37 270.201 1757.79 269.82 1753.87 268.961ZM1795.2 262.596C1797.54 266.261 1797.9 270.451 1796.3 275.166C1794.21 281.548 1789.88 286.21 1783.31 289.152C1777.41 291.764 1770.62 292.76 1762.95 292.14C1755.54 291.45 1749.04 289.476 1743.46 286.22C1737.57 282.7 1734.16 278.467 1733.21 273.522C1732.58 270.439 1732.83 267.613 1733.94 265.043C1735.22 261.973 1737.44 260.018 1740.59 259.178C1743.6 258.29 1747.66 258.638 1752.78 260.22L1754.27 260.731L1755.92 261.171C1757.15 261.512 1758.26 261.77 1759.24 261.943C1761.95 262.389 1764.6 262.453 1767.17 262.135C1768.84 261.907 1770.48 261.428 1772.08 260.698C1772.72 260.44 1773.39 260.11 1774.09 259.708L1776.03 258.575C1779.18 256.781 1782.18 256.048 1785.01 256.376C1789.56 256.81 1792.96 258.883 1795.2 262.596Z" fill="#28BF0F" calss="letter" />
<path d="M1889.69 385.316C1893.42 384.147 1897.43 382.407 1901.73 380.094C1904 378.864 1905.92 377.77 1907.49 376.812L1910.24 375.051C1911.31 374.287 1912.21 373.734 1912.94 373.394C1917.3 370.943 1921.34 370.366 1925.05 371.665C1923.28 370.64 1921.14 370.157 1918.65 370.215C1916.46 370.326 1914.29 370.858 1912.15 371.812C1911.32 372.191 1910.34 372.748 1909.2 373.482L1907.87 374.259L1906.39 375.094C1904.62 376.129 1902.77 377.169 1900.83 378.214C1896.85 380.341 1892.96 382.177 1889.16 383.721C1884.29 385.623 1880.19 386.828 1876.84 387.335C1880.63 387.515 1884.91 386.842 1889.69 385.316ZM1865.35 341.39C1867.26 340.414 1869.1 339.781 1870.88 339.488C1872.75 339.157 1874.68 339.262 1876.66 339.803C1875 338.908 1873.02 338.45 1870.72 338.432C1868.7 338.534 1866.68 339.008 1864.67 339.853C1861.56 341.126 1858.2 343.441 1854.59 346.8C1851.82 349.374 1849.13 352.398 1846.54 355.875C1844.45 358.582 1842.3 362.003 1840.07 366.136L1847.81 356.926C1851.2 353.139 1853.94 350.263 1856.03 348.299C1859.48 345.117 1862.59 342.814 1865.35 341.39ZM1890.89 415.006C1888.9 415.614 1888.95 417.284 1891.04 420.016C1902.61 435.142 1908.53 450.757 1908.8 466.861C1908.85 474.461 1907.49 481.237 1904.71 487.189C1901.82 493.418 1897.6 498.278 1892.04 501.769C1887.06 504.859 1881.99 506.299 1876.81 506.088C1871.7 505.739 1867.18 503.839 1863.26 500.388C1859.19 496.709 1856.29 491.686 1854.55 485.32C1852.75 478.35 1852.55 470.352 1853.95 461.327C1856.14 447.295 1856.05 437.822 1853.67 432.907C1852.77 431.027 1851.75 430.251 1850.62 430.578C1849.56 430.936 1848.76 432.109 1848.22 434.096L1848.08 434.407L1848 434.867L1847.7 435.846C1847.47 436.735 1847.21 437.61 1846.92 438.47C1846.26 440.733 1845.56 442.982 1844.83 445.215C1842.62 451.578 1840.17 457.092 1837.46 461.756C1829.42 475.612 1820.25 480.485 1809.95 476.378C1798.73 471.946 1794.59 460.532 1797.54 442.136C1799.91 426.946 1806.74 408.523 1818.04 386.867C1829.3 365.28 1840.04 349.852 1850.28 340.582C1863.02 328.955 1874.69 327.114 1885.28 335.058C1890.41 338.955 1892.58 343.947 1891.81 350.034C1890.83 357.349 1885.59 365.098 1876.08 373.284C1873.71 375.296 1872.8 376.829 1873.32 377.884C1873.88 378.869 1875.61 379.136 1878.53 378.684C1885.8 377.674 1894.66 373.779 1905.12 366.998C1911.3 363.036 1917.33 361.48 1923.21 362.331C1928.48 363.078 1932.83 365.561 1936.24 369.78C1939.6 373.969 1941.19 378.788 1941.03 384.236C1940.82 390.16 1938.59 395.527 1934.35 400.337C1929.78 405.502 1924.16 409.216 1917.49 411.48C1913.02 413.058 1907.63 413.99 1901.33 414.275C1900.49 414.317 1899.38 414.323 1897.99 414.292L1896.48 414.369L1895.07 414.491C1893.08 414.524 1891.69 414.696 1890.89 415.006Z" fill="#28BF0F" calss="letter" />
<path d="M2059.15 442.253C2061.53 441.227 2063.72 440.523 2065.71 440.143C2068.4 439.48 2070.67 439.528 2072.5 440.285C2070.93 439.244 2068.63 438.821 2065.6 439.016C2063.52 439.254 2061.18 439.776 2058.58 440.581C2055.17 441.694 2050.84 443.612 2045.58 446.336L2039.38 449.592C2036.73 451.07 2034.68 452.208 2033.23 453.005C2030.73 454.225 2028.61 455.103 2026.88 455.64C2024.58 456.369 2022.3 456.573 2020.03 456.254C2021.96 456.986 2024.34 457.144 2027.14 456.728C2028.9 456.295 2031.16 455.546 2033.92 454.483C2035.77 453.752 2037.91 452.757 2040.35 451.498L2043.48 449.822L2046.54 448.242C2051.45 445.659 2055.66 443.663 2059.15 442.253ZM1950.95 489.417L1956.46 489.049C1961.05 488.743 1964.82 488.117 1967.77 487.171C1966.21 487.281 1964.33 487.332 1962.13 487.324L1959.34 487.352L1956.45 487.322C1951.99 487.266 1948.21 487.4 1945.1 487.725C1940.46 488.263 1936.72 489.213 1933.87 490.574C1932.07 491.512 1930.44 492.599 1928.99 493.836C1927.55 495.345 1926.39 496.893 1925.52 498.481C1927.08 496.779 1928.46 495.503 1929.68 494.654C1931.11 493.753 1932.71 492.918 1934.5 492.149C1937.43 491.099 1941.04 490.375 1945.33 489.977C1946.76 489.789 1948.64 489.602 1950.95 489.417ZM1977.2 404.242C1978.75 402.708 1980.39 401.588 1982.14 400.883C1985.96 399.229 1990.01 399.166 1994.28 400.697C1992.58 399.137 1990.54 398.211 1988.16 397.917C1985.89 397.598 1983.63 397.906 1981.39 398.842C1979.11 399.843 1977.29 401.253 1975.93 403.072C1974.46 404.917 1973.59 406.946 1973.31 409.158C1974.52 407.156 1975.81 405.518 1977.2 404.242ZM2062.06 431.316C2068.16 429.98 2073.14 430.485 2077.01 432.829C2084.53 437.297 2087.6 443.792 2086.24 452.315C2084.65 462.377 2076.9 474.751 2063 489.438C2049.4 503.776 2030.66 516.192 2006.79 526.687C1980.24 538.387 1958.46 542.076 1941.42 537.754C1928.77 534.496 1920.27 528.29 1915.94 519.137C1914.04 514.989 1913.29 510.696 1913.68 506.259C1914.11 501.757 1915.65 497.531 1918.31 493.582C1921.76 488.444 1926.54 484.768 1932.64 482.552C1936.96 480.938 1942.62 479.957 1949.61 479.609L1953.78 479.489L1955.82 479.399L1957.7 479.348C1960.75 479.257 1963.15 479.078 1964.9 478.813C1969.66 478.081 1972.68 476.429 1973.97 473.859C1975.18 471.418 1975.36 467.911 1974.51 463.34C1973.94 460.348 1972.6 455.568 1970.5 448.999L1969.19 445.034L1967.95 440.972C1967.02 437.85 1966.25 435.045 1965.63 432.558C1964.1 426.069 1963.35 420.372 1963.41 415.467C1963.59 408.609 1965.64 402.884 1969.57 398.292C1973.23 393.984 1977.79 391.323 1983.25 390.308C1988.71 389.294 1993.82 390.232 1998.59 393.123C2003.85 396.224 2007.71 401.208 2010.17 408.076C2011.72 412.365 2013.11 417.049 2014.36 422.126C2014.78 424.056 2015.22 426.174 2015.67 428.479C2015.88 429.308 2016.09 430.273 2016.3 431.374L2016.59 432.87L2016.84 434.21C2018.46 442.162 2020.01 446.587 2021.5 447.486C2022.95 448.281 2026.02 447.581 2030.7 445.386C2032.17 444.693 2034.46 443.524 2037.57 441.879L2039.38 440.857L2041.34 439.797L2045.36 437.735C2052.02 434.448 2057.59 432.308 2062.06 431.316Z" fill="#28BF0F" calss="letter" />
<defs>
<filter id="filter0_dd_536_1041" x="0" y="0" width="2195" height="637.867" filterUnits="userSpaceOnUse" color-interpolation-filters="sRGB">
<feFlood flood-opacity="0" result="BackgroundImageFix"/>
<feColorMatrix in="SourceAlpha" type="matrix" values="0 0 0 0 0 0 0 0 0 0 0 0 0 0 0 0 0 0 127 0" result="hardAlpha"/>
<feOffset dy="4"/>
<feGaussianBlur stdDeviation="2"/>
<feComposite in2="hardAlpha" operator="out"/>
<feColorMatrix type="matrix" values="0 0 0 0 0 0 0 0 0 0 0 0 0 0 0 0 0 0 0.25 0"/>
<feBlend mode="normal" in2="BackgroundImageFix" result="effect1_dropShadow_536_1041"/>
<feColorMatrix in="SourceAlpha" type="matrix" values="0 0 0 0 0 0 0 0 0 0 0 0 0 0 0 0 0 0 127 0" result="hardAlpha"/>
<feOffset/>
<feGaussianBlur stdDeviation="4"/>
<feComposite in2="hardAlpha" operator="out"/>
<feColorMatrix type="matrix" values="0 0 0 0 0 0 0 0 0 0 0 0 0 0 0 0 0 0 0.3 0"/>
<feBlend mode="normal" in2="effect1_dropShadow_536_1041" result="effect2_dropShadow_536_1041"/>
<feBlend mode="normal" in="SourceGraphic" in2="effect2_dropShadow_536_1041" result="shape"/>
</filter>
</defs>
</svg>
