<svg width="550" height="182" viewBox="0 0 550 182" fill="none" xmlns="http://www.w3.org/2000/svg">
<g clip-path="url(#clip0_795_2077)" filter="url(#customfilters)">
<path fill-rule="evenodd" clip-rule="evenodd" d="M275.728 174.493L108.373 7.61719V174.493H275.728ZM161.937 158.854L148 158.452H148.019C148.613 153.972 150.298 140.993 150.757 135.154C151.063 131.478 151.121 129.602 150.451 128.186C149.685 126.578 148.23 126.042 146.048 125.238C145.895 125.18 145.741 125.123 145.569 125.065C144.73 124.748 143.744 124.449 142.703 124.133L142.621 124.108C138.601 122.883 133.106 121.198 128.301 116.642C126.196 114.651 126.425 112.526 127 111.11C127.727 109.272 129.775 107.223 131.537 107.223C131.671 107.223 131.786 107.242 131.9 107.262C133.643 107.683 134.581 108.315 135.978 109.291C137.414 110.286 139.213 111.531 142.564 113.062C146.048 114.651 148.287 115.627 149.915 115.627C151.37 115.627 152.116 114.881 152.499 114.249C152.901 113.56 153.093 112.66 153.131 111.339C153.169 110.267 153.112 108.87 153.035 107.262L153.026 107.034C152.932 104.776 152.828 102.268 152.939 100.083C153.093 97.0006 153.629 95.9477 153.935 95.6031C154.758 94.6268 156.998 93.9184 159.238 93.9184C161.324 93.9184 163.028 94.5119 163.622 95.4308C165.536 98.4555 165.881 103.663 165.957 108.851C165.995 111.397 166.129 112.832 166.436 113.828C167.01 115.704 168.254 116.106 169.212 116.106C169.977 116.106 170.781 115.857 171.528 115.589C172.978 115.074 174.239 113.874 175.441 112.728L175.452 112.718C175.499 112.675 175.545 112.632 175.59 112.589C177.127 111.163 178.565 109.827 180.238 109.827H180.392C182.153 109.923 184.105 111.148 185.101 112.832C185.656 113.771 185.79 114.689 185.484 115.34C184.507 117.35 183.301 119.035 181.77 120.509C179.454 122.73 176.448 124.434 172.849 125.525C169.058 126.673 166.761 127.554 165.421 128.951C164.058 130.391 163.893 132.092 163.667 134.427L163.66 134.503C163.638 134.701 163.619 134.899 163.599 135.101C163.568 135.427 163.535 135.764 163.488 136.13C162.932 141.184 162.167 154.489 161.937 158.854ZM163.277 161.726H163.315L163.334 161.687C164.081 161.687 164.713 161.113 164.751 160.347C164.754 160.322 164.776 159.916 164.815 159.222C165.039 155.186 165.804 141.414 166.359 136.398C166.436 135.786 166.493 135.212 166.531 134.714C166.742 132.512 166.857 131.574 167.527 130.885C168.293 130.081 170.035 129.334 173.73 128.205C180.506 126.157 185.331 122.232 188.087 116.546C188.834 115.015 188.643 113.12 187.59 111.339C186.096 108.851 183.282 107.089 180.564 106.955H180.277C177.438 106.955 175.377 108.908 173.564 110.625L173.538 110.65C172.504 111.646 171.509 112.564 170.628 112.89C170.584 112.904 170.526 112.923 170.458 112.945C170.144 113.048 169.622 113.219 169.307 113.234C169.25 113.12 169.154 112.813 169.058 112.201C168.963 111.435 168.886 110.344 168.867 108.774C168.771 103.184 168.369 97.4983 166.072 93.8801C164.923 92.0806 162.454 91.0469 159.295 91.0469C156.902 91.0469 153.514 91.7552 151.81 93.727C149.876 95.9668 149.953 101.002 150.221 107.357C150.227 107.518 150.233 107.676 150.239 107.832C150.29 109.185 150.334 110.368 150.317 111.244C150.298 112.296 150.144 112.66 150.087 112.756H149.953C148.919 112.756 146.545 111.722 143.789 110.459C140.69 109.052 139.007 107.89 137.652 106.955L137.624 106.936C136.093 105.883 134.868 105.041 132.609 104.486C132.264 104.409 131.92 104.371 131.556 104.371C128.78 104.371 125.621 106.879 124.358 110.057C123.113 113.177 123.841 116.336 126.349 118.71C131.587 123.682 137.408 125.474 141.686 126.792L141.798 126.827C141.998 126.891 142.192 126.953 142.382 127.014C143.209 127.278 143.939 127.512 144.593 127.745C144.669 127.774 144.751 127.803 144.832 127.832C144.913 127.86 144.995 127.889 145.071 127.918C146.833 128.569 147.637 128.875 147.885 129.411C148.268 130.215 148.134 132.302 147.924 134.924C147.419 141.3 145.423 156.394 145.054 159.191C145.017 159.467 144.996 159.623 144.995 159.639C144.937 160.041 145.052 160.443 145.32 160.749C145.588 161.056 145.971 161.247 146.373 161.247L163.277 161.726Z" fill="white"/>
<path d="M238.933 93.2114L235.774 91.967C235.468 91.8522 235.161 91.7182 234.855 91.5842L233.764 91.1439C233.419 91.029 233.19 90.9333 232.96 90.8184C232.558 90.6461 232.156 90.4547 231.754 90.2632L230.165 89.5549C229.878 89.4401 229.61 89.3061 229.323 89.1912C229.208 89.1338 229.055 89.0572 228.901 88.9806L225.551 87.2768C225.149 87.0662 224.747 86.8556 224.326 86.6259C224.039 86.4728 223.79 86.3196 223.541 86.1665L221.837 85.2093C221.129 84.8073 220.555 84.4627 219.98 84.099C219.157 83.5821 218.2 82.9695 217.262 82.3186C216.305 81.6677 215.386 81.0168 214.524 80.3659C213.969 79.9448 213.433 79.5045 212.897 79.0833L211.978 78.3367C211.442 77.8964 210.868 77.4369 210.313 76.9392C209.375 76.0777 208.418 75.1397 207.403 74.1251C206.676 73.3785 206.044 72.6127 205.546 72.0384C204.991 71.3684 204.455 70.66 203.9 69.8943C203.364 69.1477 202.923 68.4776 202.521 67.8268C202.062 67.0419 201.622 66.2378 201.239 65.4721C200.856 64.7255 200.569 64.1129 200.339 63.5194C200.148 63.06 200.014 62.6005 199.88 62.1602L199.631 61.4136C199.477 60.935 199.343 60.5521 199.248 60.131C199.133 59.6907 199.056 59.2504 198.999 58.8292L198.922 58.3315C198.865 57.9677 198.788 57.5657 198.731 57.1637C198.693 56.8765 198.693 56.6085 198.673 56.3597L198.559 55.7279L198.654 52.7606C198.654 52.4352 198.673 52.2055 198.712 51.9566C198.827 51.1717 198.961 50.54 199.075 49.9656C199.229 49.3339 199.401 48.5873 199.65 47.8407C199.86 47.1898 200.128 46.5581 200.454 45.9455C200.818 45.2371 201.239 44.4905 201.756 43.7631C202.311 42.9973 202.923 42.2507 203.593 41.5615C204.244 40.8915 204.972 40.298 205.527 39.8769C206.082 39.4557 206.656 39.092 207.212 38.7665C207.767 38.4411 208.284 38.1348 208.896 37.8285C209.241 37.6562 209.566 37.5222 209.873 37.4073L210.083 37.3308C210.504 37.1585 210.925 36.9862 211.366 36.833C211.595 36.7565 211.787 36.699 211.94 36.6607L212.457 37.5031L212.17 36.5842L213.893 36.1247C214.161 36.0481 214.429 36.0098 214.697 35.9716C215.041 35.9141 215.405 35.8567 215.788 35.7993C216.305 35.7227 216.822 35.6653 217.358 35.6078C217.645 35.5695 217.875 35.5312 218.124 35.5312H220.804C221.55 35.5312 222.316 35.5312 223.063 35.5312C223.618 35.5312 224.135 35.6078 224.632 35.6844C224.805 35.7035 224.977 35.7418 225.168 35.761L226.796 35.9716C227.351 36.0481 227.829 36.1056 228.308 36.1821C228.691 36.2587 229.035 36.3544 229.38 36.431L230.069 36.5842C230.069 36.5842 230.28 36.6224 230.414 36.6416L230.758 36.699C231.141 36.7565 231.582 36.8522 232.022 37.0053C232.5 37.1776 232.979 37.369 233.419 37.5796L233.86 37.7711C234.855 38.2114 235.583 38.8431 236.099 39.3409C236.808 40.03 237.325 40.7958 237.688 41.6381C237.937 42.2316 238.205 43.0547 238.148 44.0311V44.3182C238.148 44.7968 238.129 45.4286 237.88 46.1369C237.44 47.3621 236.808 48.3001 235.927 49.0085C235.315 49.5062 234.587 49.8891 233.726 50.1571C233.036 50.3868 232.29 50.4825 231.409 50.4825C231.065 50.4825 230.739 50.4825 230.452 50.4442C229.763 50.4059 229.208 50.2719 228.691 50.1571C228.442 50.0996 228.212 50.0231 227.983 49.9656L227.791 49.9082C227.504 49.8316 227.274 49.7551 227.025 49.6976C226.834 49.6593 226.604 49.6211 226.394 49.5828C226.011 49.5253 225.724 49.4679 225.436 49.4105C224.575 49.219 223.579 49.1233 222.354 49.1233C221.971 49.1233 221.55 49.1233 221.033 49.1616C220.612 49.1616 220.134 49.2382 219.559 49.353C219.196 49.4296 218.679 49.5445 218.238 49.7168C217.453 50.0422 216.841 50.3868 216.305 50.7888C215.788 51.1908 215.348 51.7077 214.965 52.3778C214.754 52.7415 214.582 53.2009 214.41 53.871C214.18 54.7707 214.084 55.7853 214.161 57.068C214.161 57.3168 214.218 57.604 214.276 57.9103L214.39 58.6186C214.448 58.9632 214.505 59.2886 214.582 59.6141C214.62 59.7672 214.678 59.9395 214.754 60.131L214.946 60.7053C215.022 60.9542 215.061 61.0307 215.08 61.1264L215.156 61.3179C215.29 61.6625 215.424 61.9879 215.577 62.2942C215.941 63.0025 216.267 63.6534 216.63 64.2277C216.917 64.7063 217.262 65.1849 217.702 65.7592C218.104 66.2761 218.545 66.793 219.042 67.3482L219.196 67.5205C219.827 68.2096 220.382 68.8222 220.976 69.3774C221.474 69.8369 221.991 70.258 222.565 70.6983L223.005 71.0429C223.675 71.5789 224.288 72.0575 224.9 72.517C225.551 72.9956 226.26 73.455 226.93 73.9145L227.351 74.1825C227.81 74.4888 228.346 74.8525 228.901 75.178C229.303 75.4268 229.725 75.6566 230.146 75.8863L230.701 76.1926C231.371 76.5755 232.06 76.9583 232.749 77.3412C233.362 77.6858 233.841 77.9347 234.281 78.1452L235.104 78.5281C235.449 78.7004 235.812 78.8727 236.157 79.045C236.348 79.1407 236.54 79.2364 236.731 79.313C237.497 79.6767 238.263 80.0596 239.009 80.6148C240.081 81.4188 240.809 82.3952 241.173 83.5055C241.421 84.2712 241.555 85.0753 241.536 85.8602C241.517 86.6642 241.326 87.3725 241.134 88.0426C240.943 88.6935 240.713 89.3252 240.483 89.9378C240.33 90.359 240.196 90.627 240.081 90.8758L239.067 93.0582L238.933 93.2114ZM212.361 38.5751C212.227 38.6134 212.112 38.6325 211.959 38.69C211.557 38.8431 211.136 38.9963 210.734 39.1686L210.504 39.2451C210.255 39.3409 209.987 39.4366 209.719 39.5706C209.164 39.8577 208.666 40.1258 208.188 40.4129C207.652 40.7384 207.135 41.0447 206.637 41.4275C206.14 41.8104 205.489 42.3464 204.914 42.9399C204.302 43.5716 203.747 44.2225 203.249 44.9117C202.809 45.5243 202.426 46.2135 202.1 46.8644C201.832 47.3812 201.602 47.9173 201.43 48.4724C201.2 49.1425 201.047 49.8316 200.913 50.4251C200.798 50.9611 200.684 51.5546 200.569 52.282C200.53 52.4926 200.53 52.6649 200.53 52.8372L200.435 55.5939L200.55 56.2065C200.55 56.5128 200.569 56.7234 200.588 56.9531C200.626 57.3168 200.703 57.6614 200.76 58.006L200.856 58.5229C200.913 58.9058 200.971 59.2695 201.086 59.6715C201.181 60.0544 201.296 60.399 201.411 60.7436L201.641 61.471C201.813 62.0262 201.947 62.4282 202.1 62.8302C202.33 63.3663 202.598 63.9406 202.943 64.6298C203.325 65.3572 203.727 66.1421 204.168 66.8887C204.531 67.5013 204.953 68.1331 205.45 68.8222C205.986 69.5688 206.503 70.2197 207.02 70.8706C207.48 71.4258 208.092 72.1532 208.781 72.8424C209.758 73.8379 210.696 74.7377 211.615 75.5991C212.132 76.0777 212.668 76.518 213.204 76.9392L214.122 77.6858C214.62 78.0878 215.137 78.509 215.673 78.911C216.515 79.5427 217.415 80.1745 218.353 80.8254C219.272 81.4571 220.21 82.0506 221.014 82.5675C221.569 82.912 222.125 83.2375 222.68 83.5629L224.575 84.635C224.805 84.769 225.034 84.9221 225.283 85.0561C225.685 85.2667 226.068 85.4773 226.47 85.6879L229.323 87.1237C229.437 87.1811 229.552 87.2385 229.667 87.3151C229.916 87.43 230.012 87.4874 230.127 87.5448C230.414 87.6788 230.682 87.7937 230.931 87.9086L232.577 88.636C232.979 88.8275 233.362 88.9998 233.764 89.172C233.955 89.2486 234.147 89.3252 234.338 89.4018L235.621 89.9187C235.927 90.0527 236.214 90.1675 236.521 90.3015L237.976 90.8758L238.263 90.2632C238.358 90.0718 238.454 89.8804 238.55 89.6315C238.818 88.9423 239.028 88.368 239.201 87.7745C239.354 87.2002 239.507 86.6451 239.526 86.0516C239.526 85.4964 239.45 84.9221 239.277 84.367C239.028 83.6204 238.531 82.9695 237.784 82.3952C237.191 81.9549 236.578 81.6485 235.908 81.3231C235.659 81.2082 235.449 81.1125 235.238 80.9977C234.913 80.8254 234.568 80.6722 234.243 80.5191L233.362 80.117C232.883 79.8873 232.386 79.6193 231.754 79.2747C231.065 78.8918 230.376 78.509 229.686 78.1261L229.15 77.8198C228.691 77.5709 228.27 77.3221 227.829 77.0732C227.255 76.7286 226.7 76.3457 226.221 76.0394L225.877 75.8097C225.111 75.2928 224.403 74.8142 223.713 74.3356C223.063 73.8762 222.431 73.3784 221.742 72.8041L221.321 72.4595C220.708 71.981 220.153 71.5215 219.617 71.0238C218.985 70.4303 218.411 69.7986 217.798 69.1285L217.607 68.8988C217.071 68.3054 216.592 67.7502 216.171 67.2142C215.673 66.5633 215.29 66.0273 214.965 65.5104C214.582 64.8786 214.218 64.2086 213.835 63.4428C213.663 63.0983 213.51 62.7154 213.338 62.3325C213.223 62.0262 213.165 61.8922 213.108 61.7199L212.897 61.0499C212.802 60.7819 212.725 60.533 212.668 60.3224C212.591 59.9587 212.514 59.5949 212.457 59.2121L212.361 58.6378C212.266 58.14 212.208 57.7571 212.189 57.4317C212.112 55.9576 212.227 54.7516 212.514 53.6604C212.744 52.8181 212.974 52.2055 213.261 51.6886C213.778 50.808 214.371 50.1188 215.08 49.5636C215.75 49.0467 216.496 48.6256 217.453 48.2236C218.047 47.9747 218.679 47.8407 219.119 47.745C219.789 47.611 220.382 47.5344 220.899 47.5152C221.435 47.4961 221.895 47.477 222.297 47.477C223.675 47.477 224.805 47.5918 225.819 47.8215C226.068 47.879 226.317 47.9173 226.547 47.9555C226.93 48.013 227.179 48.0513 227.427 48.1087C227.695 48.1661 227.963 48.2427 228.251 48.3193L228.48 48.3767C228.691 48.4341 228.901 48.4916 229.112 48.549C229.533 48.6447 229.993 48.7404 230.49 48.7787C231.524 48.8362 232.424 48.817 233.132 48.5681C233.764 48.3576 234.281 48.0896 234.702 47.745C235.295 47.2472 235.755 46.5963 236.061 45.6966C236.214 45.2946 236.214 44.9117 236.214 44.5288C236.214 44.3948 236.214 44.2417 236.214 44.1077C236.253 43.5333 236.08 42.9973 235.889 42.557C235.64 41.9636 235.257 41.3892 234.74 40.8915C234.338 40.4895 233.783 40.0109 233.075 39.7046L232.711 39.5514C232.194 39.3217 231.792 39.1494 231.352 38.9963C231.007 38.8814 230.682 38.824 230.395 38.7665L229.725 38.6517C229.533 38.6134 229.437 38.6134 229.361 38.5751C229.189 38.5368 229.016 38.4794 228.825 38.4411C228.538 38.3645 228.231 38.2879 227.906 38.2305C227.466 38.1539 227.045 38.0965 226.604 38.0391L224.881 37.8285C224.69 37.8094 224.498 37.7711 224.288 37.7519C223.867 37.6945 223.445 37.6179 222.967 37.6179C222.22 37.6179 221.493 37.6179 220.746 37.6179H218.066C217.913 37.6179 217.779 37.6371 217.683 37.6562C217.013 37.7328 216.496 37.8094 215.979 37.8668C215.635 37.9051 215.29 37.9625 214.946 38.0199C214.716 38.0582 214.505 38.0965 214.295 38.1348L212.534 38.6134L212.342 38.6517L212.361 38.5751Z" fill="white"/>
<path fill-rule="evenodd" clip-rule="evenodd" d="M112.201 0H279.077V166.225L112.201 0ZM238.301 81.5369C237.631 81.0201 236.904 80.6755 236.215 80.35C236.109 80.3022 236.009 80.2543 235.908 80.2065C235.808 80.1586 235.707 80.1107 235.602 80.0629C235.408 79.9601 235.207 79.8642 235.003 79.7669C234.866 79.7011 234.726 79.6347 234.587 79.5651L233.726 79.1631C233.266 78.9334 232.788 78.6845 232.156 78.3399L230.089 77.1913L229.553 76.885C229.418 76.8091 229.286 76.7349 229.154 76.6614L229.154 76.6611L229.153 76.6605C228.854 76.4936 228.562 76.3302 228.27 76.1575C227.879 75.915 227.488 75.6629 227.124 75.4281L227.124 75.4277L227.121 75.4258C226.969 75.3279 226.822 75.2329 226.681 75.1429L226.336 74.9132C226.179 74.8066 226.02 74.7 225.861 74.5932L225.861 74.5931C225.306 74.2204 224.747 73.8451 224.211 73.4583C223.58 72.9988 222.948 72.5202 222.278 71.9651L221.838 71.6205C221.244 71.161 220.708 70.7207 220.191 70.2421C219.591 69.678 219.042 69.0792 218.447 68.4294L218.353 68.3278L218.219 68.1746C217.703 67.6003 217.243 67.0643 216.841 66.5282C216.363 65.9156 215.999 65.3988 215.692 64.901C215.347 64.349 215.049 63.7659 214.713 63.1096L214.601 62.8909C214.41 62.5272 214.257 62.1443 214.104 61.7423L214.065 61.6657C214.008 61.5127 213.951 61.3406 213.893 61.1685L213.893 61.168L213.816 60.9383C213.797 60.8811 213.778 60.8286 213.759 60.7762L213.759 60.7755L213.759 60.7749C213.74 60.7224 213.721 60.67 213.702 60.6128C213.686 60.5659 213.67 60.5198 213.655 60.4747C213.595 60.2987 213.541 60.1373 213.51 60.0002C213.441 59.7231 213.392 59.4359 213.341 59.1387C213.321 59.0253 213.302 58.9105 213.28 58.7942V58.641C213.261 58.574 213.247 58.5118 213.233 58.4495C213.218 58.3873 213.204 58.3251 213.185 58.2581L213.17 58.1722C213.118 57.8593 213.068 57.5625 213.051 57.2818C212.993 55.9035 213.07 54.7931 213.338 53.7976C213.529 53.0319 213.74 52.4959 213.989 52.0556C214.448 51.2898 214.965 50.6772 215.578 50.1986C216.171 49.7392 216.841 49.3563 217.722 48.9926C218.163 48.7983 218.686 48.6855 219.11 48.594L219.215 48.5714C219.828 48.4565 220.364 48.38 220.842 48.3608L221.101 48.3514C221.523 48.3359 221.885 48.3225 222.221 48.3225C223.541 48.3225 224.594 48.4183 225.532 48.648C225.726 48.6963 225.919 48.7293 226.107 48.7616L226.107 48.7616L226.108 48.7617C226.218 48.7805 226.326 48.7991 226.432 48.8203C226.681 48.8586 226.911 48.8968 227.121 48.9543C227.389 49.0117 227.657 49.0883 227.925 49.1648L227.925 49.1649C228.021 49.1904 228.117 49.218 228.212 49.2457L228.213 49.2457C228.404 49.301 228.595 49.3563 228.787 49.3946C229.265 49.5094 229.782 49.6243 230.318 49.6435C230.453 49.6435 230.601 49.6519 230.758 49.6609C230.934 49.671 231.121 49.6817 231.314 49.6817C232.08 49.6817 232.73 49.586 233.343 49.3946C234.09 49.1649 234.702 48.8394 235.219 48.3991C235.966 47.8057 236.502 47.0016 236.885 45.9296C237.095 45.3744 237.095 44.8575 237.095 44.4364V44.0918C237.133 43.326 236.923 42.6751 236.712 42.12C236.406 41.3925 235.947 40.7225 235.353 40.129C234.894 39.6696 234.243 39.1144 233.4 38.7507C233.247 38.6932 233.094 38.6167 232.941 38.5401L232.941 38.5401C232.52 38.3486 232.08 38.1572 231.62 37.9849C231.218 37.8509 230.835 37.7743 230.491 37.7169L230.146 37.6595C230.098 37.6499 230.045 37.6403 229.993 37.6307C229.94 37.6212 229.888 37.6116 229.84 37.602C229.744 37.602 229.648 37.5829 229.572 37.5446C229.399 37.5063 229.246 37.468 229.074 37.4106C228.974 37.3871 228.874 37.3618 228.774 37.3364L228.773 37.3362C228.547 37.2788 228.317 37.2206 228.079 37.1809C227.581 37.0852 227.102 37.0277 226.624 36.9703L226.624 36.9703L226.624 36.9703L226.872 37.7169C226.742 37.6983 226.463 37.4898 226.179 37.2781C225.879 37.0543 225.574 36.827 225.437 36.8171L225.016 36.7597C224.92 36.7501 224.829 36.7358 224.738 36.7214C224.647 36.7071 224.556 36.6927 224.46 36.6831C224.001 36.6066 223.522 36.5491 223.025 36.53C221.78 36.5108 220.555 36.5108 219.311 36.53H218.085C217.934 36.53 217.782 36.554 217.659 36.5735C217.627 36.5786 217.596 36.5834 217.569 36.5874H217.435C216.918 36.664 216.401 36.7406 215.884 36.798C215.52 36.8363 215.176 36.8937 214.812 36.9703C214.563 37.0086 214.333 37.0469 214.084 37.1043C213.865 37.1616 213.64 37.219 213.415 37.2763L213.414 37.2766L213.413 37.2769C213.189 37.3342 212.964 37.3915 212.744 37.4489C212.696 37.468 212.644 37.4824 212.591 37.4967L212.591 37.4968C212.538 37.5111 212.486 37.5255 212.438 37.5446C212.409 37.5446 212.385 37.5542 212.361 37.5637C212.338 37.5733 212.314 37.5829 212.285 37.5829C212.239 37.5829 212.206 37.5949 212.166 37.6094L212.165 37.6094C212.155 37.6132 212.144 37.6172 212.132 37.6212C212.077 37.6368 212.016 37.6524 211.95 37.6693C211.854 37.6938 211.747 37.7211 211.634 37.7552C211.423 37.8318 211.213 37.9131 211.002 37.9945L211.002 37.9947C210.791 38.076 210.581 38.1573 210.371 38.2338L210.16 38.3104C209.892 38.4061 209.586 38.5401 209.279 38.6741C208.705 38.9804 208.188 39.2675 207.69 39.5547H207.652C207.602 39.5868 207.552 39.6187 207.502 39.6506C207.445 39.6871 207.388 39.7235 207.33 39.7599C206.902 40.0325 206.473 40.3051 206.044 40.6267C205.508 41.0288 204.838 41.5839 204.206 42.2157C203.555 42.8857 202.981 43.5749 202.464 44.3023C201.986 44.9724 201.584 45.6998 201.239 46.3699C200.952 46.925 200.703 47.5185 200.492 48.112C200.263 48.8203 200.09 49.5286 199.956 50.1412C199.822 50.6964 199.707 51.309 199.593 52.0556C199.568 52.2274 199.559 52.3835 199.551 52.5289C199.546 52.6103 199.542 52.6883 199.535 52.7639V52.8979C199.535 52.8979 199.535 52.9362 199.516 52.9362L199.439 53.1468V55.6546L199.516 55.8652L199.554 55.98V56.2672C199.554 56.4969 199.554 56.7266 199.593 56.9755C199.619 57.2378 199.663 57.4911 199.707 57.7415L199.707 57.7416C199.727 57.8568 199.747 57.9713 199.765 58.0858L199.861 58.5836C199.918 58.9856 199.995 59.3876 200.09 59.8088C200.155 60.0473 200.227 60.2797 200.297 60.5095C200.351 60.6853 200.404 60.8597 200.454 61.034L200.569 61.3977C200.585 61.4548 200.605 61.5119 200.625 61.5705L200.625 61.5707C200.653 61.6496 200.681 61.7311 200.703 61.8189C200.837 62.24 200.971 62.6612 201.143 63.0824C201.373 63.6567 201.66 64.231 202.024 64.9393C202.407 65.6859 202.828 66.49 203.287 67.2557C203.67 67.8875 204.091 68.5383 204.608 69.2658C205.144 70.0315 205.68 70.7016 206.216 71.3525C206.695 71.9268 207.327 72.6734 208.016 73.3817C209.011 74.3963 209.949 75.3152 210.887 76.1767C211.329 76.5867 211.784 76.9578 212.23 77.322L212.23 77.3221C212.325 77.3999 212.42 77.4775 212.515 77.555C212.601 77.6316 212.692 77.7034 212.783 77.7752L212.783 77.7754C212.874 77.8471 212.965 77.9188 213.051 77.9954L213.434 78.3017C213.931 78.7228 214.467 79.144 215.022 79.546C215.865 80.1777 216.784 80.8286 217.741 81.4795C218.679 82.1113 219.617 82.7239 220.44 83.2407C220.893 83.5375 221.359 83.8088 221.817 84.0754C221.891 84.119 221.966 84.1625 222.04 84.2059C222.069 84.2224 222.097 84.2389 222.125 84.2554L222.259 84.3319C222.373 84.3988 222.488 84.4609 222.603 84.5231L222.603 84.5234C222.718 84.5856 222.833 84.6478 222.948 84.7148C223.044 84.7627 223.139 84.8153 223.235 84.868C223.331 84.9206 223.427 84.9732 223.522 85.0211C223.675 85.1168 223.829 85.2125 224.001 85.3083C224.18 85.428 224.372 85.5359 224.575 85.6505L224.575 85.6509C224.632 85.6828 224.689 85.7152 224.747 85.7486C224.881 85.8188 225.015 85.8911 225.149 85.9634C225.418 86.108 225.686 86.2527 225.954 86.3803C226.164 86.4952 226.375 86.61 226.585 86.7058C226.681 86.7632 226.777 86.8206 226.872 86.8589C227.045 86.9546 227.217 87.0503 227.37 87.1269C227.504 87.1939 227.638 87.2561 227.772 87.3184C227.906 87.3806 228.04 87.4428 228.174 87.5098C228.385 87.6055 228.595 87.7012 228.806 87.8161C228.921 87.8735 229.017 87.931 229.112 87.9884C229.161 88.0126 229.208 88.0369 229.255 88.0608C229.392 88.1314 229.524 88.1992 229.667 88.2564C229.935 88.3904 230.203 88.5053 230.471 88.6201L230.473 88.6206L230.473 88.6207C230.702 88.7162 230.931 88.8117 231.142 88.9073C231.295 88.9743 231.453 89.0461 231.611 89.1179C231.769 89.1897 231.926 89.2615 232.08 89.3285C232.462 89.5199 232.864 89.6922 233.266 89.8645C233.477 89.9602 233.688 90.0368 233.898 90.1133C233.956 90.1325 234.018 90.1564 234.08 90.1803C234.142 90.2043 234.204 90.2282 234.262 90.2474C234.406 90.3048 234.549 90.367 234.693 90.4292C234.836 90.4914 234.98 90.5536 235.123 90.6111C235.277 90.6781 235.43 90.7403 235.583 90.8026C235.736 90.8648 235.889 90.927 236.042 90.994C236.31 91.1088 236.597 91.2237 236.865 91.3194L238.359 91.8937L238.876 90.7834C238.876 90.7834 238.952 90.6111 239.01 90.5154C239.124 90.2856 239.239 90.0368 239.335 89.7688L239.373 89.6539L239.42 89.5273L239.42 89.5271C239.617 88.9897 239.826 88.4207 239.986 87.8352C240.158 87.2226 240.331 86.5718 240.35 85.8826C240.369 85.2317 240.273 84.5234 240.043 83.8725C239.737 82.9536 239.124 82.1304 238.206 81.4412L238.301 81.5369ZM255.091 44.8715V45.2352L255.148 45.2543C255.187 45.9818 255.206 46.7475 255.206 47.5324C255.187 48.0302 255.129 48.5088 255.053 48.9682C255.033 49.0544 255.019 49.1357 255.005 49.2171C254.99 49.2984 254.976 49.3798 254.957 49.466V49.6383C254.953 49.6724 254.948 49.7069 254.944 49.7415C254.91 50.0172 254.874 50.3063 254.823 50.5954C254.765 50.8252 254.708 51.0549 254.651 51.2463L254.593 51.4761L254.536 51.6866C254.519 51.7374 254.506 51.7883 254.493 51.8374C254.477 51.8994 254.461 51.9587 254.44 52.0121C254.268 52.6821 254.019 53.4479 253.617 54.2136C253.521 54.3859 253.425 54.5582 253.349 54.7305L253.291 55.1708L252.966 55.4388L252.966 55.4393C252.87 55.6306 252.774 55.8218 252.66 56.0131C252.277 56.6257 251.856 57.1809 251.434 57.6978C250.803 58.5018 250.094 59.2101 249.309 59.8227C249.195 59.8993 249.099 59.9759 249.003 60.0716L248.974 60.0975C248.789 60.2647 248.569 60.463 248.314 60.6268C247.72 61.0288 247.146 61.4117 246.514 61.7371C245.806 62.12 245.002 62.4837 244.083 62.8857C243.778 63.0142 243.473 63.1022 243.191 63.1837C243.136 63.1994 243.083 63.2149 243.03 63.2303C242.896 63.2686 242.762 63.3069 242.647 63.3452L242.207 63.4792C242.068 63.5209 241.932 63.5651 241.796 63.6091C241.558 63.6863 241.322 63.7628 241.078 63.8238C240.918 63.877 240.758 63.9024 240.612 63.9259C240.547 63.9362 240.485 63.9461 240.427 63.9578C240.331 63.9769 240.254 63.9961 240.178 63.9961C240.063 64.0152 239.948 64.0391 239.833 64.0631C239.718 64.087 239.604 64.1109 239.489 64.1301L239.297 64.1684C239.29 64.1709 239.281 64.1738 239.272 64.1769C239.214 64.197 239.131 64.2258 239.048 64.2258L238.493 64.2832C238.359 64.3024 238.225 64.3167 238.091 64.3311C237.957 64.3454 237.823 64.3598 237.689 64.3789C236.847 64.4938 235.947 64.5321 234.779 64.5321H233.267H232.023C231.467 64.5321 230.931 64.4747 230.415 64.3981H230.166L230.166 64.3981C229.534 64.3215 228.902 64.2449 228.366 64.1684C228.3 64.1589 228.233 64.1494 228.165 64.1398C227.688 64.0722 227.185 64.001 226.682 63.9003C226.069 63.7855 225.475 63.6706 224.92 63.5366L224.116 63.3069C224.04 63.2878 223.958 63.2638 223.877 63.2399C223.796 63.216 223.714 63.192 223.638 63.1729C223.523 63.1346 223.427 63.1155 223.312 63.0963C223.28 63.0888 223.246 63.0813 223.212 63.0736C222.988 63.0228 222.739 62.9664 222.489 62.8666C221.991 62.6751 221.417 62.4454 220.862 62.1391C220.134 61.7371 219.483 61.1819 218.89 60.4736C218.469 59.9759 218.124 59.3824 217.875 58.7124C217.607 57.9849 217.493 57.2192 217.569 56.3386C217.607 55.6877 217.799 55.0559 218.143 54.3476C218.507 53.601 219.043 52.9693 219.713 52.4907C220.192 52.1461 220.709 51.9355 221.187 51.7632C221.953 51.4952 222.68 51.4569 223.216 51.4569H223.887H224.231C224.633 51.476 224.997 51.5526 225.303 51.6292C225.418 51.6675 225.514 51.6866 225.609 51.7058C225.696 51.7249 225.787 51.7441 225.877 51.7632C225.968 51.7824 226.059 51.8015 226.145 51.8206L227.409 52.1078L227.926 52.2227C228.042 52.2475 228.161 52.2759 228.283 52.3048C228.442 52.3427 228.605 52.3815 228.768 52.4141C228.979 52.4524 229.228 52.4907 229.496 52.529L229.764 52.5672C230.022 52.6055 230.285 52.6438 230.549 52.6821C230.812 52.7204 231.075 52.7587 231.333 52.797H231.391H232.061C232.234 52.797 232.405 52.7991 232.575 52.8012C232.913 52.8055 233.249 52.8097 233.592 52.797C233.836 52.7807 234.079 52.737 234.346 52.6891C234.394 52.6805 234.443 52.6717 234.492 52.663C234.569 52.6534 234.645 52.639 234.722 52.6247C234.798 52.6103 234.875 52.596 234.952 52.5864L235.143 52.5481C235.354 52.529 235.564 52.4907 235.736 52.4524C236.043 52.3758 236.387 52.2801 236.77 52.1461C237.115 52.0312 237.421 51.9164 237.689 51.8015C237.881 51.7058 238.034 51.6292 238.187 51.5335L238.359 51.4186C238.761 51.1506 239.125 50.8826 239.45 50.6146C239.757 50.3657 240.063 50.0211 240.427 49.466C240.656 49.1597 240.848 48.7768 241.058 48.2599C241.154 48.0302 241.25 47.7622 241.326 47.4176C241.46 46.8624 241.575 46.3072 241.652 45.8861V45.5798V45.5415V45.0246C241.652 44.8558 241.654 44.6913 241.656 44.5298C241.661 44.2151 241.665 43.9116 241.652 43.608C241.633 43.34 241.594 43.0528 241.537 42.7465C241.527 42.6699 241.513 42.5981 241.499 42.5263C241.484 42.4546 241.47 42.3828 241.46 42.3062L241.422 42.0765C241.403 41.8659 241.365 41.6744 241.326 41.483C241.25 41.1384 241.173 40.8321 241.078 40.545C241.039 40.4364 241.001 40.3328 240.966 40.2334C240.845 39.8946 240.741 39.6053 240.637 39.3389C240.526 39.0472 240.395 38.7655 240.258 38.472C240.206 38.3611 240.154 38.2484 240.101 38.1329L240.006 37.9223L239.988 37.8853C239.823 37.5364 239.674 37.2227 239.508 36.9268C239.259 36.4865 238.972 36.0462 238.665 35.6059C238.225 34.9741 237.842 34.4764 237.498 34.0361C237 33.4426 236.579 32.964 236.196 32.562L236.1 32.4663C235.373 31.7006 234.684 30.9922 233.937 30.3413C233.374 29.8613 232.797 29.4098 232.193 28.9375C232.099 28.8636 232.004 28.7892 231.908 28.7141C231.621 28.5036 231.353 28.293 231.085 28.0825L231.085 28.0824C230.74 27.8144 230.434 27.5846 230.127 27.3549C229.884 27.1832 229.641 27.0222 229.39 26.8559C229.305 26.7997 229.219 26.7429 229.132 26.6849L228.73 26.4169C228.596 26.3212 228.462 26.2254 228.309 26.1297C228.222 26.0717 228.136 26.0136 228.051 25.9562C227.8 25.7864 227.556 25.6219 227.313 25.4788C226.986 25.2744 226.659 25.0796 226.325 24.8808C226.19 24.8003 226.054 24.7192 225.916 24.6365C225.801 24.5695 225.681 24.5025 225.562 24.4355C225.442 24.3685 225.322 24.3015 225.207 24.2345C225.125 24.1759 225.036 24.1245 224.944 24.0715C224.886 24.0379 224.827 24.0036 224.767 23.9665C224.643 23.8995 224.523 23.8277 224.403 23.7559C224.284 23.6841 224.164 23.6123 224.04 23.5453C223.906 23.4687 223.767 23.3969 223.628 23.3251C223.489 23.2534 223.35 23.1816 223.216 23.105L222.47 22.703C222.164 22.5307 221.838 22.3584 221.532 22.2053C221.283 22.0808 221.039 21.9611 220.795 21.8415C220.551 21.7218 220.307 21.6022 220.058 21.4778C219.847 21.3629 219.637 21.2672 219.426 21.1715C219.292 21.1045 219.158 21.0423 219.024 20.9801C218.89 20.9178 218.756 20.8556 218.622 20.7886C218.505 20.7303 218.383 20.6706 218.257 20.609C217.927 20.448 217.571 20.2741 217.224 20.0803C216.535 19.6974 215.942 19.1997 215.463 18.6254C215.004 18.0702 214.698 17.4576 214.506 16.7684C214.276 15.8687 214.334 15.0263 214.391 14.3946C214.427 13.9462 214.547 13.5482 214.656 13.1849C214.664 13.1605 214.671 13.1361 214.678 13.112C214.698 13.0162 214.717 12.9397 214.755 12.844C214.87 12.4802 215.004 12.0974 215.157 11.6762C215.193 11.5898 215.226 11.5062 215.259 11.4243C215.313 11.2882 215.365 11.1567 215.425 11.0253C215.461 10.9537 215.489 10.8821 215.519 10.8058C215.538 10.7598 215.556 10.712 215.578 10.6616C215.616 10.5659 215.712 10.3936 215.712 10.3936L216.306 9.1875C216.306 9.1875 216.688 9.32151 217.263 9.51294C217.273 9.51294 217.668 9.66066 218.063 9.80838C218.379 9.92655 218.694 10.0447 218.813 10.0873L220.019 10.5467C220.278 10.642 220.527 10.7566 220.773 10.87C220.873 10.916 220.973 10.9619 221.072 11.0062C221.168 11.0444 221.264 11.0875 221.36 11.1306C221.455 11.1737 221.551 11.2167 221.647 11.255C221.752 11.3029 221.852 11.346 221.953 11.389C222.054 11.4321 222.154 11.4752 222.259 11.523C222.546 11.6379 222.834 11.7719 223.121 11.9251H223.178C223.982 12.2888 224.825 12.6717 225.629 13.0545C225.82 13.1503 226.011 13.2508 226.203 13.3513C226.394 13.4518 226.586 13.5523 226.777 13.648C227.007 13.782 227.237 13.8968 227.466 14.0116L227.466 14.0117C227.581 14.0692 227.701 14.1266 227.821 14.184C227.94 14.2415 228.06 14.2989 228.175 14.3563C228.366 14.452 228.553 14.5478 228.739 14.6435C228.926 14.7392 229.113 14.8349 229.304 14.9306C229.572 15.0646 229.821 15.2178 230.07 15.3709L230.07 15.3711C230.223 15.4668 230.376 15.5624 230.549 15.6581L230.549 15.6581C230.74 15.7538 230.931 15.8495 231.123 15.9644C231.257 16.041 231.391 16.1128 231.525 16.1846C231.659 16.2563 231.793 16.3281 231.927 16.4047C232.131 16.5252 232.34 16.6471 232.551 16.7708C233.114 17.0993 233.698 17.4406 234.282 17.8022C234.853 18.1613 235.416 18.5296 235.944 18.8751C236.176 19.0269 236.401 19.1743 236.617 19.3145L236.617 19.3146C237.211 19.7166 237.804 20.1186 238.417 20.5589C238.592 20.6756 238.76 20.8065 238.929 20.9387C239.038 21.0233 239.147 21.1084 239.259 21.1906L239.565 21.4395C239.68 21.5352 239.814 21.6309 239.948 21.7267C240.274 21.9564 240.599 22.2053 240.924 22.4733C241.997 23.3539 243.03 24.2345 244.045 25.1342C244.792 25.8043 245.481 26.4743 246.112 27.1252C246.782 27.8144 247.414 28.5418 248.027 29.2502L248.218 29.4799C248.582 29.901 249.061 30.4562 249.52 31.0688C249.867 31.5213 250.178 31.9857 250.51 32.4807C250.599 32.6139 250.69 32.7494 250.783 32.8875C251.147 33.4426 251.454 33.9404 251.722 34.3998C252.009 34.9167 252.277 35.4144 252.564 35.9888C252.63 36.1275 252.7 36.2694 252.771 36.4141C252.946 36.7686 253.128 37.1396 253.291 37.5203C253.405 37.7641 253.491 38.008 253.573 38.2402C253.588 38.2813 253.602 38.3222 253.617 38.3626C253.636 38.4104 253.655 38.4631 253.674 38.5157C253.693 38.5684 253.712 38.621 253.732 38.6689L253.827 38.8986C253.923 39.1283 254.019 39.3772 254.095 39.6261C254.172 39.8175 254.229 40.0281 254.268 40.2195C254.287 40.2961 254.301 40.3727 254.316 40.4492C254.33 40.5258 254.344 40.6024 254.363 40.679C254.385 40.7655 254.404 40.852 254.422 40.9354C254.452 41.0736 254.481 41.2033 254.517 41.3107C254.765 42.0765 254.861 42.8422 254.938 43.5697L254.938 43.57C254.957 43.6847 254.976 43.7995 254.976 43.9143C255.014 44.2206 255.053 44.546 255.091 44.8715Z" fill="white"/>
<path d="M234.721 65.4922C234.3 65.4922 233.879 65.4922 233.458 65.4922H233.19C232.692 65.4922 232.328 65.4731 231.964 65.4731C231.371 65.4731 230.797 65.4156 230.241 65.3582H230.012C229.361 65.2625 228.71 65.1859 228.174 65.1093C227.638 65.0328 227.044 64.937 226.451 64.8413C225.819 64.7265 225.207 64.5924 224.632 64.4584C224.326 64.3819 224.058 64.3053 223.79 64.2287L223.063 64.0373C222.756 63.9799 222.431 63.9033 222.105 63.7693C221.569 63.5778 220.957 63.329 220.344 62.9844C219.521 62.5249 218.755 61.8932 218.104 61.1083C217.607 60.5148 217.205 59.8257 216.917 59.0599C216.592 58.1984 216.458 57.2795 216.554 56.2649C216.611 55.4992 216.822 54.7526 217.224 53.9294C217.664 53.0488 218.296 52.3022 219.1 51.7087C219.693 51.2875 220.287 51.0578 220.804 50.8472C222.029 50.3878 223.005 50.4452 223.867 50.4835H224.211C224.728 50.5026 225.168 50.6175 225.475 50.6941L225.743 50.7515C225.838 50.7515 225.992 50.8089 226.145 50.8281L228.059 51.2684C228.385 51.345 228.633 51.4024 228.882 51.4598C229.074 51.4981 229.265 51.5173 229.457 51.5556L231.409 51.8236H231.562H232.788C233.017 51.8236 233.247 51.8236 233.496 51.8236C233.687 51.8236 233.898 51.7661 234.147 51.7278L234.932 51.5938C235.123 51.5556 235.315 51.5364 235.468 51.4981C235.736 51.4407 236.042 51.345 236.406 51.2301C236.712 51.1344 236.999 51.0195 237.248 50.9047C237.382 50.8472 237.497 50.7898 237.593 50.7324L237.746 50.6367C238.129 50.3878 238.473 50.1581 238.76 49.89C239.009 49.6795 239.239 49.3923 239.564 48.9329C239.737 48.6648 239.909 48.3585 240.1 47.8991C240.196 47.6885 240.254 47.4779 240.33 47.1908C240.464 46.6739 240.56 46.1379 240.637 45.7167V45.5636V44.7404C240.637 44.3575 240.637 43.9938 240.637 43.63C240.637 43.4195 240.579 43.1514 240.522 42.8834L240.407 42.1751C240.388 41.9837 240.349 41.7922 240.311 41.6391C240.234 41.3328 240.177 41.0648 240.081 40.7968C239.947 40.3565 239.813 39.9927 239.679 39.6673C239.526 39.2844 239.354 38.9207 239.162 38.5378L239.048 38.2889C238.894 37.9635 238.741 37.638 238.569 37.3509C238.339 36.9489 238.071 36.5277 237.784 36.1065C237.363 35.4939 236.999 35.0154 236.655 34.5942C236.195 34.0199 235.793 33.5604 235.41 33.1776L235.927 32.3352L235.238 33.0053C234.549 32.2969 233.898 31.6269 233.19 31.0143C232.558 30.4783 231.907 29.9614 231.218 29.4254L230.395 28.7936C230.069 28.5256 229.763 28.2959 229.476 28.0853C229.208 27.8939 228.94 27.7216 228.653 27.5493L227.389 26.707C227.159 26.5538 226.93 26.4007 226.7 26.2667C226.317 26.0178 225.934 25.8072 225.551 25.5775L224.154 24.7543C223.924 24.6203 223.694 24.4863 223.445 24.3523C223.216 24.2183 222.986 24.1034 222.775 23.9886L220.976 23.0314C220.516 22.8016 220.057 22.5719 219.578 22.3422L217.836 21.4999C217.473 21.3084 217.071 21.117 216.669 20.8873C215.864 20.447 215.175 19.8726 214.62 19.2026C214.103 18.5517 213.72 17.8051 213.491 17.0011C213.204 15.9673 213.28 14.991 213.338 14.3401C213.395 13.7275 213.548 13.2298 213.663 12.8277H214.658L213.74 12.5597C213.854 12.1577 213.988 11.7557 214.161 11.3154C214.237 11.0857 214.333 10.8559 214.429 10.6262L215.711 7.98438L216.515 8.27153C216.515 8.27153 216.898 8.40554 217.434 8.59697C217.434 8.59697 218.468 8.97985 218.889 9.133L219.349 9.30529C219.655 9.42016 219.942 9.51588 220.248 9.63074C220.631 9.78389 220.995 9.93704 221.34 10.1093C221.55 10.2051 221.722 10.2816 221.895 10.3582L222.527 10.6262C222.814 10.7411 223.101 10.8751 223.407 11.0091L223.675 11.124C224.422 11.4685 225.187 11.8131 225.934 12.1769C226.355 12.3683 226.738 12.5789 227.121 12.7895L228.48 13.4786C228.863 13.6701 229.246 13.8615 229.648 14.0721C229.935 14.2252 230.203 14.3784 230.471 14.5315L231.505 15.1059C231.869 15.2973 232.098 15.4313 232.328 15.5653C233.075 16.0056 233.879 16.4651 234.702 16.9819C235.544 17.4988 236.367 18.0348 237.076 18.5134C237.669 18.9155 238.282 19.3366 238.914 19.7769C239.143 19.9301 239.392 20.1215 239.622 20.313L240.464 20.9447C240.809 21.2127 241.153 21.4616 241.498 21.7487C242.57 22.6485 243.604 23.5291 244.638 24.4289C245.422 25.118 246.112 25.7881 246.762 26.4772C247.413 27.1664 248.045 27.8747 248.639 28.5831L248.887 28.8702C249.27 29.3105 249.768 29.8848 250.228 30.5166C250.668 31.11 251.089 31.7226 251.529 32.3927C251.912 32.967 252.238 33.4647 252.506 33.9624C252.812 34.4985 253.08 35.0154 253.386 35.6088C253.693 36.2214 253.922 36.7 254.133 37.1786C254.267 37.4658 254.363 37.7338 254.458 38.0018L254.956 39.361C255.033 39.5907 255.109 39.8204 255.167 40.0502L255.262 40.5288C255.301 40.7202 255.339 40.9116 255.377 41.0648C255.645 41.9262 255.76 42.7494 255.856 43.5152L254.937 43.9555L255.894 43.8406C255.932 44.1661 255.971 44.5107 255.99 44.8552V45.2381C256.047 46.0039 256.086 46.7888 256.066 47.5928C256.066 48.148 255.99 48.6648 255.913 49.1626C255.894 49.3157 255.875 49.4689 255.856 49.622C255.798 50.1198 255.76 50.4644 255.683 50.8089C255.626 51.0961 255.55 51.345 255.492 51.5556L254.497 51.5173L255.415 51.747L255.262 52.3213C255.052 53.0296 254.803 53.8719 254.363 54.7143C254.305 54.8291 254.248 54.944 254.19 55.0397L254.114 55.6906L253.654 56.0926C253.559 56.3032 253.482 56.4372 253.405 56.5712C252.984 57.2604 252.506 57.8538 252.104 58.3707C251.414 59.2322 250.649 59.9979 249.826 60.6488L249.577 60.8594C249.309 61.0891 249.06 61.2997 248.792 61.4912C248.179 61.9123 247.586 62.2952 246.916 62.6589C246.169 63.0418 245.365 63.4247 244.408 63.8267C244.025 63.999 243.642 64.1139 243.297 64.2096L242.072 64.5733C241.804 64.6499 241.555 64.7265 241.287 64.803C241.019 64.8796 240.751 64.9179 240.522 64.9562L240.139 64.0564L240.311 64.9945L239.45 65.1668C239.45 65.1668 239.277 65.2242 239.124 65.2433L238.55 65.3008C238.282 65.3199 238.014 65.3582 237.765 65.3965C236.846 65.5113 235.927 65.5496 234.721 65.5496V65.4922ZM223.158 52.3596C222.661 52.3596 222.067 52.3979 221.474 52.6085C221.052 52.7616 220.612 52.953 220.21 53.2211C219.674 53.6039 219.234 54.1208 218.947 54.7143C218.659 55.3077 218.506 55.8246 218.468 56.3606C218.411 57.0881 218.487 57.739 218.717 58.3324C218.927 58.8876 219.215 59.4045 219.578 59.8257C220.095 60.4383 220.67 60.9168 221.282 61.2614C221.799 61.5486 222.335 61.7592 222.775 61.9315C223.024 62.0272 223.254 62.0655 223.465 62.1229C223.579 62.1421 223.713 62.1803 223.828 62.2186L224.249 62.3335C224.594 62.4484 224.843 62.5058 225.092 62.5824C225.628 62.7164 226.221 62.8312 226.815 62.9461C227.37 63.0418 227.944 63.1375 228.442 63.2141C228.959 63.2907 229.591 63.3672 230.203 63.4438H230.433C230.931 63.5204 231.428 63.5778 231.964 63.5778C232.347 63.5778 232.711 63.5778 233.094 63.5778H234.702C235.812 63.5778 236.693 63.5587 237.516 63.463C237.784 63.4247 238.052 63.4055 238.339 63.3672L240.177 63.0418C240.407 63.0035 240.579 62.9844 240.79 62.9269C241.039 62.8504 241.268 62.7929 241.517 62.7164L242.723 62.3526C243.068 62.2569 243.374 62.1803 243.661 62.0463C244.58 61.6635 245.346 61.2806 246.054 60.936C246.648 60.6297 247.203 60.266 247.758 59.8831C247.969 59.7299 248.16 59.5768 248.313 59.4428C248.466 59.3088 248.562 59.2131 248.677 59.1365C249.385 58.5813 250.036 57.9304 250.649 57.1647C251.012 56.7052 251.434 56.1692 251.816 55.5757C251.893 55.4609 251.95 55.3269 252.008 55.212L252.448 54.3697C252.544 54.1782 252.621 53.9868 252.735 53.8145C253.099 53.1445 253.31 52.4553 253.482 51.8044L253.673 51.0961C253.75 50.8664 253.788 50.6749 253.846 50.4835C253.903 50.1772 253.941 49.89 253.98 49.6029C254.018 49.2583 254.037 49.0669 254.075 48.8946C254.133 48.4926 254.209 48.0522 254.209 47.5928C254.209 46.8462 254.19 46.0996 254.152 45.3913V44.9892C254.114 44.6829 254.075 44.3958 254.037 44.1086V43.9172C253.922 43.0557 253.827 42.3666 253.616 41.6965C253.539 41.4859 253.501 41.2371 253.444 40.9499L253.348 40.5096C253.31 40.3565 253.271 40.1842 253.195 40.0119L252.735 38.7292C252.64 38.4421 252.544 38.2124 252.448 37.9635C252.238 37.504 252.027 37.0446 251.816 36.6234C251.472 35.9343 251.204 35.4365 250.917 34.9196C250.668 34.4793 250.362 34.0007 249.998 33.4647C249.577 32.8138 249.194 32.2395 248.753 31.6843C248.313 31.0909 247.854 30.5549 247.49 30.1337L247.299 29.904C246.648 29.1574 246.054 28.4682 245.422 27.7982C244.81 27.1664 244.14 26.5155 243.412 25.8646C242.398 24.9649 241.364 24.1034 240.33 23.2228C240.024 22.9739 239.698 22.7251 239.392 22.5145L238.512 21.8445C238.301 21.6913 238.09 21.519 237.861 21.3659C237.248 20.9256 236.655 20.5235 236.061 20.1407C235.372 19.6812 234.549 19.1452 233.745 18.6283C232.941 18.1306 232.156 17.6711 231.428 17.25C231.218 17.1351 231.007 17.0202 230.797 16.9054L229.61 16.2545C229.323 16.0822 229.074 15.929 228.825 15.795C228.461 15.6036 228.078 15.4122 227.714 15.2399L226.298 14.5124C225.934 14.321 225.57 14.1295 225.187 13.9381C224.46 13.5935 223.694 13.2489 222.967 12.9043L222.756 12.8086C222.412 12.6555 222.144 12.5406 221.856 12.4257L221.225 12.1386C221.052 12.062 220.842 11.9663 220.65 11.8706C220.306 11.7174 219.98 11.5643 219.655 11.4302C219.368 11.3154 219.081 11.2197 218.793 11.1048L218.449 10.9899C217.932 10.7985 217.013 10.4539 216.917 10.4156C216.86 10.4156 216.803 10.3773 216.764 10.3582L216.286 11.3728C216.19 11.5834 216.113 11.794 216.037 11.9854C215.884 12.3874 215.769 12.7512 215.654 13.0958L215.558 13.3829C215.443 13.7466 215.328 14.0912 215.309 14.455C215.252 15.0676 215.194 15.795 215.405 16.5033C215.558 17.0585 215.807 17.5754 216.171 18.0157C216.573 18.4943 217.071 18.9155 217.645 19.2409C218.028 19.4515 218.391 19.6429 218.755 19.8152L220.421 20.6384C220.957 20.9064 221.435 21.1361 221.895 21.385L223.579 22.2848C223.943 22.4762 224.192 22.6102 224.422 22.7442C224.671 22.8782 224.919 23.0314 225.168 23.1845L226.547 24.0077C226.949 24.2374 227.332 24.4671 227.714 24.716C227.963 24.8692 228.212 25.0223 228.461 25.1946L229.552 25.9221C229.993 26.2092 230.299 26.4007 230.586 26.6112C230.911 26.841 231.237 27.0898 231.582 27.377L232.386 28.0087C233.113 28.5639 233.802 29.0999 234.453 29.6742C235.2 30.3251 235.889 31.0335 236.616 31.7801L236.789 31.9524C237.191 32.3735 237.631 32.8713 238.129 33.4839C238.492 33.9433 238.875 34.4602 239.335 35.1111C239.66 35.5705 239.966 36.0491 240.215 36.4894C240.407 36.8149 240.579 37.1786 240.751 37.5615L240.847 37.7721C241.058 38.2315 241.249 38.6335 241.421 39.0355C241.555 39.3801 241.709 39.7821 241.881 40.299C241.977 40.6245 242.072 40.9499 242.149 41.3136C242.187 41.5242 242.225 41.754 242.264 41.9837L242.379 42.6346C242.436 42.96 242.493 43.2855 242.513 43.5918C242.532 43.9938 242.532 44.3958 242.532 44.817V45.5827C242.532 45.8124 242.532 46.023 242.493 46.1187C242.417 46.559 242.302 47.1333 242.168 47.6885C242.072 48.1097 241.957 48.4351 241.843 48.7031C241.613 49.2583 241.383 49.6986 241.134 50.0623C240.713 50.6941 240.349 51.0961 239.966 51.4215C239.622 51.7087 239.22 51.9767 238.799 52.2639L238.646 52.3787C238.435 52.5127 238.224 52.6276 237.995 52.7233C237.708 52.8573 237.382 52.9722 236.999 53.1062C236.578 53.2402 236.233 53.3551 235.908 53.4316C235.678 53.4891 235.449 53.5274 235.219 53.5465L234.587 53.6422C234.166 53.7188 233.86 53.7571 233.592 53.7762C233.324 53.7762 233.056 53.7762 232.788 53.7762L230.892 53.7188L229.303 53.4891C228.959 53.4316 228.71 53.4125 228.499 53.3551C228.231 53.2976 227.963 53.2402 227.676 53.1636L225.015 52.5702C224.747 52.5127 224.46 52.4362 224.154 52.4362H223.809C223.579 52.4362 223.369 52.417 223.158 52.417V52.3596Z" fill="white"/>
<path d="M300.424 117.273H303.774V133.852L313.346 117.273H317.634V137.585H314.303V121.006L304.712 137.585H300.424V117.273Z" fill="white"/>
<path d="M330.135 138.008C327.435 138.008 325.33 137.415 323.817 136.209C322.305 135.003 321.482 133.28 321.348 131.059H324.717C324.832 132.552 325.368 133.624 326.363 134.275C327.359 134.926 328.603 135.251 330.096 135.251C331.685 135.251 332.93 134.907 333.791 134.237C334.653 133.548 335.093 132.686 335.093 131.633C335.093 130.58 334.767 129.815 334.117 129.24C333.466 128.666 332.355 128.379 330.786 128.379H328.067V125.66H330.23C331.417 125.66 332.413 125.412 333.255 124.933C334.097 124.454 334.519 123.612 334.519 122.406C334.519 121.64 334.155 120.97 333.446 120.396C332.719 119.822 331.666 119.534 330.249 119.534C329.656 119.534 329.043 119.592 328.469 119.726C327.876 119.86 327.359 120.07 326.88 120.358C326.402 120.645 326.019 121.028 325.693 121.506C325.387 121.985 325.176 122.559 325.1 123.229H321.711C321.788 121.966 322.094 120.932 322.611 120.109C323.128 119.286 323.798 118.635 324.583 118.137C325.368 117.658 326.268 117.314 327.263 117.103C328.259 116.893 329.273 116.797 330.288 116.797C331.302 116.797 332.317 116.893 333.236 117.103C334.155 117.314 334.959 117.639 335.648 118.099C336.337 118.558 336.892 119.132 337.294 119.802C337.696 120.492 337.907 121.296 337.907 122.234C337.907 123.421 337.582 124.378 336.912 125.105C336.242 125.833 335.495 126.292 334.653 126.484V126.56C335.131 126.637 335.591 126.79 336.069 127.039C336.548 127.269 336.969 127.594 337.333 127.996C337.696 128.398 338.003 128.896 338.232 129.489C338.462 130.083 338.596 130.772 338.596 131.557C338.596 132.667 338.366 133.605 337.888 134.428C337.409 135.232 336.797 135.902 335.993 136.438C335.208 136.955 334.308 137.357 333.293 137.625C332.279 137.893 331.245 138.027 330.173 138.027" fill="white"/>
<path d="M340.146 134.637H342.539C342.827 134.082 343.114 133.335 343.42 132.378C343.726 131.421 343.994 130.368 344.243 129.2C344.492 128.032 344.703 126.788 344.856 125.486C345.009 124.184 345.086 122.883 345.086 121.638V117.273H359.788V134.637H362.545V143.749H359.367V137.585H343.344V143.749H340.166V134.637H340.146ZM356.457 134.637V120.222H348.359V121.945C348.359 123.227 348.283 124.51 348.149 125.773C347.995 127.037 347.823 128.243 347.574 129.372C347.345 130.502 347.077 131.516 346.809 132.435C346.541 133.354 346.273 134.082 346.004 134.637H356.457Z" fill="white"/>
<path d="M371.313 138.009C370.394 138.009 369.533 137.913 368.729 137.722C367.925 137.53 367.197 137.205 366.585 136.745C365.972 136.286 365.474 135.693 365.13 134.984C364.785 134.257 364.594 133.395 364.594 132.381C364.594 131.232 364.785 130.294 365.187 129.547C365.589 128.82 366.087 128.226 366.738 127.767C367.37 127.308 368.116 126.963 368.939 126.733C369.763 126.504 370.605 126.293 371.466 126.14C372.385 125.948 373.247 125.814 374.089 125.719C374.912 125.623 375.64 125.489 376.271 125.336C376.903 125.163 377.401 124.915 377.765 124.589C378.128 124.264 378.32 123.785 378.32 123.153C378.32 122.426 378.186 121.832 377.899 121.392C377.631 120.952 377.267 120.607 376.846 120.378C376.425 120.148 375.927 119.976 375.391 119.899C374.855 119.822 374.319 119.784 373.802 119.784C372.385 119.784 371.218 120.052 370.26 120.588C369.322 121.124 368.805 122.139 368.729 123.632H365.398C365.455 122.368 365.704 121.316 366.183 120.454C366.661 119.593 367.293 118.884 368.078 118.348C368.863 117.812 369.763 117.429 370.777 117.181C371.792 116.951 372.864 116.836 374.012 116.836C374.931 116.836 375.831 116.893 376.75 117.027C377.65 117.161 378.473 117.429 379.2 117.831C379.928 118.233 380.521 118.808 380.962 119.535C381.402 120.263 381.632 121.22 381.632 122.407V132.859C381.632 133.644 381.67 134.218 381.766 134.582C381.861 134.946 382.168 135.137 382.685 135.137C382.914 135.137 383.259 135.08 383.699 134.946V137.53C383.125 137.875 382.321 138.047 381.306 138.047C380.445 138.047 379.756 137.798 379.239 137.32C378.722 136.841 378.473 136.037 378.473 134.946C377.554 136.037 376.482 136.841 375.276 137.32C374.051 137.798 372.749 138.047 371.332 138.047M372.079 135.137C373.17 135.137 374.127 134.984 374.912 134.678C375.697 134.372 376.348 133.989 376.827 133.548C377.324 133.089 377.688 132.591 377.937 132.055C378.167 131.519 378.282 131.021 378.282 130.543V127.116C377.86 127.461 377.305 127.69 376.635 127.824C375.946 127.958 375.238 128.073 374.491 128.169C373.744 128.265 372.998 128.38 372.232 128.475C371.466 128.571 370.796 128.763 370.184 129.031C369.571 129.299 369.093 129.662 368.71 130.16C368.327 130.639 368.135 131.309 368.135 132.151C368.135 132.706 368.25 133.166 368.461 133.548C368.691 133.931 368.978 134.238 369.322 134.467C369.667 134.697 370.088 134.869 370.567 134.984C371.045 135.08 371.543 135.137 372.06 135.137" fill="white"/>
<path d="M391.7 120.222H384.426V117.273H402.306V120.222H395.051V137.585H391.7V120.222Z" fill="white"/>
<path d="M413.619 138.004C411.992 138.004 410.575 137.736 409.35 137.219C408.125 136.702 407.11 135.955 406.306 135.017C405.502 134.079 404.89 132.95 404.488 131.629C404.086 130.327 403.875 128.891 403.875 127.341C403.875 125.79 404.105 124.412 404.583 123.11C405.062 121.808 405.713 120.698 406.574 119.76C407.436 118.822 408.431 118.075 409.599 117.558C410.767 117.041 412.049 116.773 413.428 116.773C415.227 116.773 416.74 117.137 417.927 117.903C419.113 118.65 420.071 119.607 420.798 120.755C421.526 121.904 422.004 123.167 422.291 124.527C422.559 125.886 422.674 127.188 422.617 128.413H407.417C407.397 129.293 407.493 130.155 407.742 130.94C407.972 131.744 408.355 132.452 408.872 133.065C409.388 133.677 410.058 134.175 410.882 134.539C411.686 134.903 412.643 135.094 413.753 135.094C415.17 135.094 416.338 134.769 417.237 134.118C418.137 133.467 418.731 132.471 419.018 131.131H422.31C421.87 133.429 420.875 135.151 419.362 136.3C417.85 137.43 415.936 138.004 413.619 138.004ZM419.075 125.465C419.018 124.68 418.845 123.933 418.539 123.225C418.233 122.517 417.831 121.904 417.314 121.387C416.797 120.87 416.204 120.468 415.514 120.162C414.825 119.856 414.059 119.702 413.217 119.702C412.375 119.702 411.571 119.856 410.882 120.162C410.192 120.468 409.58 120.87 409.082 121.406C408.584 121.923 408.201 122.536 407.895 123.225C407.608 123.914 407.436 124.661 407.378 125.446H419.056L419.075 125.465Z" fill="white"/>
<path d="M425.929 137.815C425.585 137.815 425.24 137.776 424.876 137.719C424.513 137.642 424.206 137.585 423.977 137.547V134.599C424.245 134.675 424.474 134.733 424.704 134.752C424.934 134.771 425.144 134.79 425.355 134.79C426.216 134.79 426.886 134.445 427.346 133.775C427.805 133.086 428.15 132.052 428.36 130.636C428.59 129.219 428.724 127.4 428.782 125.199C428.839 122.978 428.877 120.336 428.935 117.273H443.197V137.585H439.847V120.222H432.151C432.074 122.615 431.979 124.874 431.902 126.998C431.806 129.143 431.577 131 431.213 132.608C430.849 134.197 430.256 135.479 429.452 136.417C428.648 137.355 427.48 137.834 425.948 137.834" fill="white"/>
<path d="M448.404 117.277H451.735V125.049H458.972C460.963 125.049 462.552 125.585 463.758 126.677C464.964 127.768 465.557 129.28 465.557 131.252C465.557 133.224 464.983 134.698 463.834 135.846C462.686 136.995 461.116 137.569 459.125 137.569H448.404V117.258V117.277ZM457.919 134.64C460.714 134.64 462.13 133.511 462.13 131.252C462.13 128.993 460.733 127.921 457.919 127.921H451.754V134.64H457.919Z" fill="white"/>
<path d="M477.599 138.004C476.048 138.004 474.689 137.755 473.502 137.257C472.315 136.76 471.32 136.051 470.516 135.132C469.712 134.213 469.118 133.122 468.716 131.878C468.314 130.614 468.104 129.217 468.104 127.666C468.104 126.116 468.295 124.718 468.697 123.397C469.08 122.076 469.692 120.928 470.477 119.932C471.281 118.956 472.277 118.171 473.464 117.616C474.651 117.061 476.067 116.773 477.695 116.773C478.843 116.773 479.934 116.907 480.93 117.175C481.944 117.443 482.825 117.884 483.61 118.458C484.376 119.032 485.027 119.76 485.524 120.64C486.022 121.521 486.328 122.555 486.462 123.761H483.016C482.748 122.478 482.212 121.483 481.37 120.774C480.528 120.066 479.398 119.722 478.001 119.722C476.795 119.722 475.78 119.951 474.976 120.392C474.172 120.832 473.521 121.425 473.023 122.153C472.545 122.88 472.2 123.723 471.99 124.68C471.779 125.637 471.664 126.632 471.664 127.647C471.664 128.585 471.779 129.504 472.009 130.404C472.239 131.284 472.583 132.088 473.043 132.778C473.521 133.467 474.115 134.022 474.861 134.443C475.608 134.864 476.527 135.075 477.599 135.075C479.245 135.075 480.547 134.635 481.466 133.773C482.404 132.912 482.959 131.686 483.17 130.117H486.596C486.233 132.663 485.295 134.596 483.801 135.955C482.308 137.296 480.241 137.985 477.637 137.985" fill="white"/>
<path d="M490.291 117.273H493.622V126.979L502.945 117.273H507.386L498.389 126.06L508.439 137.585H504.151L495.67 127.917L493.622 129.927V137.585H490.291V117.273Z" fill="white"/>
<path d="M516.575 138.009C515.656 138.009 514.795 137.913 513.991 137.722C513.186 137.53 512.459 137.205 511.846 136.745C511.234 136.286 510.736 135.693 510.391 134.984C510.028 134.257 509.855 133.395 509.855 132.381C509.855 131.232 510.047 130.294 510.449 129.547C510.832 128.82 511.368 128.226 512 127.767C512.651 127.308 513.378 126.963 514.201 126.733C515.024 126.504 515.867 126.293 516.728 126.14C517.647 125.948 518.508 125.814 519.351 125.719C520.174 125.623 520.901 125.489 521.533 125.336C522.165 125.163 522.663 124.915 523.026 124.589C523.39 124.264 523.582 123.785 523.582 123.153C523.582 122.426 523.448 121.832 523.16 121.392C522.892 120.952 522.529 120.607 522.108 120.378C521.686 120.148 521.189 119.976 520.653 119.899C520.117 119.822 519.581 119.784 519.064 119.784C517.647 119.784 516.479 120.052 515.522 120.588C514.584 121.124 514.067 122.139 513.991 123.632H510.66C510.717 122.368 510.966 121.316 511.444 120.454C511.923 119.593 512.536 118.884 513.321 118.348C514.105 117.812 515.005 117.429 516.02 117.181C517.034 116.951 518.106 116.836 519.255 116.836C520.174 116.836 521.074 116.893 521.993 117.027C522.892 117.161 523.716 117.429 524.443 117.831C525.171 118.233 525.764 118.808 526.204 119.535C526.645 120.263 526.874 121.22 526.874 122.407V132.859C526.874 133.644 526.932 134.218 527.008 134.582C527.104 134.946 527.41 135.137 527.927 135.137C528.157 135.137 528.501 135.08 528.942 134.946V137.53C528.367 137.875 527.563 138.047 526.549 138.047C525.687 138.047 524.998 137.798 524.481 137.32C523.964 136.841 523.716 136.037 523.716 134.946C522.797 136.037 521.725 136.841 520.519 137.32C519.293 137.798 517.992 138.047 516.575 138.047M517.322 135.137C518.432 135.137 519.37 134.984 520.155 134.678C520.94 134.372 521.591 133.989 522.069 133.548C522.567 133.089 522.931 132.591 523.18 132.055C523.409 131.519 523.524 131.021 523.524 130.543V127.116C523.103 127.461 522.548 127.69 521.878 127.824C521.189 127.958 520.48 128.073 519.734 128.169C518.987 128.265 518.24 128.38 517.475 128.475C516.709 128.571 516.039 128.763 515.426 129.031C514.814 129.299 514.335 129.662 513.952 130.16C513.569 130.639 513.378 131.309 513.378 132.151C513.378 132.706 513.493 133.166 513.703 133.548C513.933 133.931 514.22 134.238 514.565 134.467C514.929 134.697 515.331 134.869 515.809 134.984C516.288 135.08 516.786 135.137 517.302 135.137" fill="white"/>
<path d="M536.331 129.644C534.895 129.433 533.708 128.782 532.79 127.672C531.871 126.562 531.411 125.183 531.411 123.499C531.411 121.584 531.986 120.072 533.115 118.942C534.245 117.813 535.814 117.258 537.767 117.258H548.066V137.569H544.716V129.759H540.275L534.072 137.569H529.631L536.312 129.625L536.331 129.644ZM544.735 126.887V120.206H538.839C537.422 120.206 536.408 120.512 535.776 121.106C535.144 121.699 534.838 122.522 534.838 123.537C534.838 124.552 535.144 125.394 535.776 125.987C536.408 126.581 537.422 126.868 538.839 126.868H544.735V126.887Z" fill="white"/>
<path d="M429.26 153.453H443.177V156.401H432.61V173.784H429.26V153.453Z" fill="white"/>
<path d="M445.972 153.459H449.303V156.216H449.38C449.935 155.087 450.796 154.283 451.964 153.766C453.151 153.249 454.434 153 455.85 153C457.42 153 458.799 153.287 459.947 153.861C461.115 154.436 462.091 155.221 462.857 156.197C463.623 157.173 464.216 158.303 464.599 159.605C464.982 160.887 465.193 162.246 465.193 163.701C465.193 165.156 465.001 166.535 464.618 167.798C464.235 169.062 463.661 170.191 462.895 171.129C462.13 172.086 461.153 172.833 459.985 173.388C458.818 173.943 457.459 174.211 455.927 174.211C455.391 174.211 454.836 174.154 454.242 174.058C453.63 173.943 453.036 173.79 452.424 173.541C451.83 173.312 451.256 172.986 450.72 172.584C450.184 172.182 449.724 171.665 449.361 171.072H449.284V181.524H445.953V153.479L445.972 153.459ZM455.602 171.301C456.731 171.301 457.688 171.072 458.473 170.631C459.258 170.191 459.89 169.598 460.368 168.87C460.847 168.143 461.172 167.3 461.383 166.362C461.594 165.424 461.689 164.448 461.689 163.452C461.689 162.457 461.555 161.576 461.306 160.677C461.058 159.777 460.675 158.973 460.177 158.265C459.66 157.556 459.009 157.001 458.205 156.58C457.401 156.159 456.463 155.948 455.391 155.948C454.319 155.948 453.304 156.178 452.519 156.618C451.735 157.058 451.084 157.652 450.605 158.36C450.107 159.088 449.744 159.892 449.533 160.811C449.303 161.73 449.208 162.648 449.208 163.606C449.208 164.601 449.322 165.558 449.552 166.496C449.782 167.434 450.165 168.238 450.663 168.947C451.179 169.655 451.83 170.229 452.653 170.651C453.477 171.091 454.453 171.301 455.602 171.301Z" fill="white"/>
<path d="M471.223 181.869C470.821 181.869 470.438 181.85 470.036 181.793C469.653 181.735 469.27 181.64 468.887 181.506V178.443C469.194 178.538 469.519 178.653 469.845 178.749C470.17 178.845 470.515 178.902 470.84 178.902C471.529 178.902 472.065 178.749 472.486 178.424C472.908 178.117 473.271 177.658 473.578 177.045L474.956 173.619L466.896 153.422H470.668L476.602 170.039H476.679L482.384 153.422H485.925L477.081 176.414C476.679 177.409 476.296 178.251 475.932 178.921C475.549 179.611 475.128 180.166 474.669 180.587C474.209 181.027 473.712 181.333 473.137 181.525C472.582 181.716 471.931 181.812 471.185 181.812" fill="white"/>
<path d="M488.797 153.453H505.375V173.784H502.025V156.401H492.128V173.784H488.797V153.453Z" fill="white"/>
<path d="M510.41 153.453H526.989V173.784H523.638V156.401H513.741V173.784H510.41V153.453Z" fill="white"/>
<path d="M537.634 174.204C536.715 174.204 535.853 174.109 535.049 173.917C534.245 173.726 533.518 173.4 532.905 172.941C532.292 172.481 531.795 171.888 531.45 171.18C531.105 170.452 530.914 169.591 530.914 168.576C530.914 167.427 531.106 166.489 531.508 165.743C531.91 165.015 532.407 164.422 533.058 163.962C533.69 163.503 534.437 163.158 535.26 162.929C536.083 162.699 536.925 162.488 537.787 162.335C538.706 162.144 539.567 162.01 540.409 161.914C541.233 161.818 541.96 161.684 542.592 161.531C543.224 161.359 543.721 161.11 544.085 160.784C544.449 160.459 544.64 159.98 544.64 159.349C544.64 158.621 544.506 158.028 544.219 157.587C543.951 157.147 543.587 156.803 543.166 156.573C542.745 156.343 542.247 156.171 541.711 156.094C541.175 156.018 540.639 155.979 540.122 155.979C538.706 155.979 537.538 156.247 536.581 156.783C535.643 157.319 535.126 158.334 535.049 159.827H531.718C531.776 158.564 532.024 157.511 532.503 156.649C532.982 155.788 533.613 155.08 534.398 154.544C535.183 154.008 536.083 153.625 537.098 153.376C538.112 153.146 539.184 153.031 540.333 153.031C541.252 153.031 542.151 153.089 543.07 153.223C543.97 153.357 544.793 153.625 545.521 154.027C546.248 154.429 546.842 155.003 547.282 155.731C547.722 156.458 547.952 157.415 547.952 158.602V169.055C547.952 169.839 547.99 170.414 548.086 170.778C548.182 171.141 548.488 171.333 549.005 171.333C549.235 171.333 549.579 171.275 550.02 171.141V173.726C549.445 174.07 548.641 174.243 547.627 174.243C546.765 174.243 546.076 173.994 545.559 173.515C545.042 173.036 544.793 172.232 544.793 171.141C543.874 172.232 542.802 173.036 541.596 173.515C540.371 173.994 539.069 174.243 537.653 174.243M538.399 171.333C539.49 171.333 540.448 171.18 541.233 170.873C542.017 170.567 542.668 170.184 543.147 169.744C543.626 169.303 544.008 168.787 544.257 168.251C544.487 167.715 544.602 167.217 544.602 166.738V163.311C544.181 163.656 543.626 163.886 542.955 164.02C542.266 164.154 541.558 164.269 540.811 164.364C540.065 164.46 539.318 164.575 538.552 164.671C537.787 164.766 537.117 164.958 536.504 165.226C535.891 165.494 535.413 165.858 535.03 166.355C534.647 166.834 534.456 167.504 534.456 168.346C534.456 168.901 534.571 169.361 534.781 169.744C535.011 170.127 535.298 170.433 535.643 170.663C535.987 170.892 536.408 171.065 536.887 171.18C537.366 171.275 537.863 171.333 538.38 171.333" fill="white"/>
<path d="M14.3007 144.36C19.2589 145.432 21.135 137.641 21.9199 133.793C22.4367 131.304 21.8816 128.49 20.2352 127.82C19.7183 127.418 18.3974 127.514 17.7274 128.605C14.9898 132.95 10.3953 143.594 14.3007 144.379M48.836 157.206C49.7357 160.039 48.7977 161.36 45.4284 163.083C40.8339 165.744 37.8092 165.15 35.0908 161.513C32.3724 157.876 31.6257 154.181 30.4388 150.735C29.9985 149.471 29.5008 147.691 29.0796 147.768C28.6776 147.825 28.467 148.342 28.065 149.127C24.4277 156.076 14.7792 162.796 8.27037 161.513C2.68039 160.422 -0.306032 154.009 0.0385555 148.227C0.612868 138.177 2.41238 129.428 8.11722 120.947C15.3344 110.265 25.4806 109.882 33.1381 120.392C33.2913 120.603 33.5784 120.909 33.7698 120.871C42.3463 118.841 42.3463 126.384 42.2314 131.783C42.1165 137.449 43.0163 142.159 44.8732 147.213C46.8067 152.496 47.9362 154.353 48.836 157.186" fill="white"/>
<path d="M52.9137 138.273C52.7988 125.523 62.3133 112.027 73.2252 109.423C78.5854 108.14 84.8263 112.735 86.1089 121.618C87.0278 127.992 84.6349 131.63 78.3749 130.787C75.0247 130.328 74.7376 127.59 74.2973 124.681C74.2207 124.145 73.7612 123.436 72.5743 124.03C67.4055 126.672 64.0362 136.913 66.6589 142.197C69.5113 147.959 75.3884 149.146 78.7577 143.575C81.4953 138.79 82.8162 137.239 86.4918 138.732C91.6606 140.838 91.6798 143.001 90.3397 146.543C88.4062 151.616 81.055 159.56 71.7894 160.556C61.9495 160.805 52.9903 150.218 52.8945 138.253" fill="white"/>
<path d="M299.428 49.4705L304.616 44.1486C308.617 47.8242 312.292 50.1214 318.093 50.1214C325.904 50.1214 331.819 44.474 333.063 36.8548H312.445V29.9631H333.006C331.628 22.5353 325.712 17.0793 318.093 17.0793C312.771 17.0793 308.693 19.2426 305.018 22.5353L300.423 17.0219C304.75 12.9443 309.746 9.80469 318.035 9.80469C331.896 9.80469 341.678 20.5826 341.678 33.5812C341.678 46.5798 331.762 57.3578 318.361 57.3578C309.689 57.3578 304.175 54.4671 299.447 49.4705" fill="white"/>
<path d="M500.092 33.5812C500.092 20.6401 510.085 9.80469 524.194 9.80469C538.303 9.80469 548.181 20.506 548.181 33.5812C548.181 46.6564 538.188 57.3578 524.079 57.3578C509.97 57.3578 500.092 46.6564 500.092 33.5812ZM539.7 33.5812C539.7 24.6411 533.191 17.2325 524.06 17.2325C514.928 17.2325 508.553 24.5262 508.553 33.5812C508.553 42.6362 515.062 49.93 524.194 49.93C533.325 49.93 539.7 42.6362 539.7 33.5812Z" fill="white"/>
<path d="M446.336 10.5312H455.161L468.007 27.1863L481.158 10.5312H489.831V57.3569H480.163V28.0478L469.557 40.7018H466.494L456.157 28.0478V57.3569H446.336V10.5312Z" fill="white"/>
<path d="M351.729 10.3594H362.296V27.9908H364.67C364.67 27.9908 368.671 26.2487 369.858 22.6114C371.045 18.9932 376.041 10.7423 379.602 10.7423H386.915V20.3141H383.105C383.105 20.3141 380.023 20.6204 378.606 26.2487C377.419 30.9963 374.414 31.9918 374.414 31.9918C374.414 31.9918 378.855 35.9354 386.36 49.8147C388.772 54.2943 390.227 57.3764 390.227 57.3764H379.41C379.41 57.3764 369.915 39.9365 365.531 38.1944C363.157 36.95 361.97 37.3712 361.97 37.3712V57.3764H351.729V10.3594Z" fill="white"/>
<path d="M435.731 13.7259V24.5995C435.731 24.5995 424.857 16.4826 415.362 19.1627C405.867 21.8428 404.737 27.9688 404.737 27.9688C404.737 27.9688 400.736 38.4787 409.37 44.4707C418.004 50.4627 425.987 46.5957 425.987 46.5957C425.987 46.5957 434.123 43.4752 435.731 41.714V52.7217C435.731 52.7217 419.976 62.7147 404.106 53.3534C400.277 50.9796 397.099 47.2274 395.472 43.3604C392.275 35.6646 393.155 26.4756 397.673 19.469C400.392 15.2382 404.106 11.8689 412.223 9.68652C425.106 7.37013 435.731 13.745 435.731 13.745" fill="white"/>
</g>
<defs>
<clipPath id="clip0_795_2077">
<rect width="550" height="181.866" fill="white"/>
</clipPath>
<filter xmlns="http://www.w3.org/2000/svg" id="customfilters">
    <!-- Shadow offset -->
    <feOffset dx="0" dy="0"/>
    <!-- Shadow blur -->
  <feGaussianBlur stdDeviation="1" result="offset-blur"/>
    <!-- Invert drop shadow to make an inset shadow-->
    <feComposite operator="out" in="SourceGraphic" in2="offset-blur" result="inverse"/>
    <!-- Cut colour inside shadow -->
    <feFlood flood-color="black" flood-opacity=".95" result="color"/>
    <feComposite operator="in" in="color" in2="inverse" result="shadow"/>
    <!-- Placing shadow over element -->
    <feComposite operator="over" in="shadow" in2="SourceGraphic"/> 
  </filter>
</defs>
</svg>
