<?xml version="1.0" encoding="UTF-8"?>
<svg version="1.1" xmlns="http://www.w3.org/2000/svg" width="2945" height="946">
<path d="M0 0 C1.23600952 0.00182281 2.47201904 0.00364563 3.7454834 0.00552368 C21.85361359 0.0504879 39.58657732 0.4675576 57.5 3.3125 C58.6353418 3.48410645 59.77068359 3.65571289 60.94042969 3.83251953 C119.4873673 12.83912156 175.99145409 34.65337263 223.5 70.3125 C224.07556641 70.74385254 224.65113281 71.17520508 225.24414062 71.61962891 C233.63069111 77.95115089 241.41563255 84.75962397 249.05419922 91.96826172 C251.11606408 93.88528771 253.2454992 95.7212565 255.375 97.5625 C258.75897809 100.55342074 261.74080466 103.70426581 264.6484375 107.15625 C265.94805576 108.6697295 267.29111834 110.14645868 268.6640625 111.59375 C281.62166233 125.26887165 292.18991802 140.98279973 301.5 157.3125 C301.92764648 158.05935059 302.35529297 158.80620117 302.79589844 159.57568359 C318.36280424 187.08585891 327.10524155 216.73349288 331.13037109 247.98193359 C331.458191 250.45993938 331.458191 250.45993938 332.5 253.3125 C333.48226562 252.02279297 333.48226562 252.02279297 334.484375 250.70703125 C353.33296949 226.19441839 375.59674126 206.62436961 402.5 191.3125 C403.24975098 190.88340332 403.99950195 190.45430664 404.77197266 190.01220703 C436.38669401 172.12181082 472.41389583 161.76840753 508.5 158.3125 C509.53382813 158.20164063 510.56765625 158.09078125 511.6328125 157.9765625 C577.24791998 152.01155273 648.84674103 169.37075956 700.3046875 211.60546875 C705.53817635 215.99938583 710.5676628 220.58462023 715.5 225.3125 C716.29470703 226.06635986 716.29470703 226.06635986 717.10546875 226.83544922 C747.0056263 255.32404945 770.06932944 296.19174179 771.64526367 338.18310547 C771.66554547 341.75313755 771.68568505 345.32297678 771.68530273 348.89306641 C771.68748802 351.17499489 771.70568821 353.45643799 771.72460938 355.73828125 C771.75328451 363.44653621 771.53666038 370.81897452 769.5 378.3125 C770.06283691 378.17150879 770.62567383 378.03051758 771.20556641 377.88525391 C773.84364824 377.22882474 776.48426606 376.58317396 779.125 375.9375 C780.00929688 375.71578125 780.89359375 375.4940625 781.8046875 375.265625 C794.37677832 372.21240294 806.75776876 370.89734194 819.6875 370.9375 C820.74287964 370.93881424 820.74287964 370.93881424 821.81958008 370.94015503 C838.88310623 371.00886753 855.63376799 372.83646321 872.5 375.3125 C873.66795105 375.48362305 873.66795105 375.48362305 874.85949707 375.65820312 C955.82954756 387.64701985 1036.39271576 410.08246488 1109.5 447.3125 C1110.88614502 448.01705322 1110.88614502 448.01705322 1112.30029297 448.73583984 C1136.32764569 461.09443879 1158.9758081 476.61938105 1178.5 495.3125 C1179.06364258 495.84359375 1179.62728516 496.3746875 1180.20800781 496.921875 C1202.76787671 518.24848767 1220.73515404 546.46809516 1221.93359375 578.35546875 C1221.95712141 580.7368633 1221.957949 583.11857702 1221.9375 585.5 C1221.92505249 587.39564697 1221.92505249 587.39564697 1221.91235352 589.32958984 C1221.72582498 599.74465265 1220.55392627 609.35783304 1217.5 619.3125 C1217.25862305 620.10301758 1217.01724609 620.89353516 1216.76855469 621.70800781 C1208.84465635 646.77543462 1194.04230016 664.32645658 1173.25 680.125 C1154.54338081 694.34325342 1138.04302687 709.25255007 1133.94140625 733.6328125 C1131.25597314 756.01934336 1138.38810846 775.05416768 1148.0625 794.8125 C1162.36969092 824.26369949 1167.08995984 860.07191307 1156.55053711 891.64208984 C1149.17534242 912.08184542 1134.48748647 925.65382964 1115.1875 935 C1096.38224141 943.0827233 1076.30509519 946.38290122 1055.921875 946.55078125 C1054.93007736 946.56066574 1053.93827972 946.57055023 1052.91642761 946.58073425 C1027.82073487 946.77846107 1003.3395545 945.91278793 978.5 942.3125 C977.6037793 942.18381531 976.70755859 942.05513062 975.78417969 941.92254639 C934.26306281 935.92251489 893.34708725 927.22506773 852.48828125 917.80859375 C851.41251013 917.56074316 850.33673901 917.31289257 849.22836876 917.05753136 C838.30025676 914.53863519 827.37419882 912.011318 816.45440292 909.45659256 C794.96159962 904.43085539 773.45720293 899.56691692 751.80859375 895.25390625 C750.41133057 894.97528559 750.41133057 894.97528559 748.98583984 894.69103622 C721.06562413 889.14583777 693.55443544 885.50166336 665.07861328 884.70849609 C656.39270433 884.44521644 647.84369054 883.7807391 639.22265625 882.71484375 C637.99417969 882.58207031 636.76570313 882.44929687 635.5 882.3125 C634.45457031 882.19390625 633.40914062 882.0753125 632.33203125 881.953125 C628.32636308 882.46143048 626.92057386 884.26133909 624.125 887.125 C589.03547467 921.42593383 538.65584189 931.97796409 491.3125 931.5234375 C452.8575614 930.969908 411.08388085 917.62211986 381.8359375 891.9765625 C381.06507813 891.42742188 380.29421875 890.87828125 379.5 890.3125 C376.21472608 890.96082226 376.21472608 890.96082226 373.921875 891.7109375 C361.64738788 894.75976172 350.43759856 890.8358021 339.9375 884.625 C330.55337636 878.55422807 322.413091 871.33142034 314.25 863.75 C313.58830811 863.13697021 312.92661621 862.52394043 312.24487305 861.89233398 C308.28447551 858.16422947 304.62190716 854.28874126 301.10058594 850.14282227 C299.47255507 848.28111583 297.76646914 846.54256318 296 844.8125 C293.02373613 841.88222696 290.28372229 838.81195959 287.5546875 835.65234375 C283.51645107 831.05366766 279.32838767 826.59075639 275.16210938 822.10839844 C273.47986676 820.29074616 271.80947598 818.46276065 270.140625 816.6328125 C247.39260577 791.79529278 222.49139943 768.83723038 187.35534668 766.94030762 C172.0526775 766.08730785 157.35942386 764.18434006 142.5 760.3125 C141.55398926 760.07047852 140.60797852 759.82845703 139.63330078 759.57910156 C114.98599388 753.15368386 91.34068276 743.63060419 68.38085938 732.68310547 C65.48505732 731.30539083 62.57969246 729.94980111 59.671875 728.59765625 C46.31801052 722.35125844 33.33616283 715.5599386 20.5 708.3125 C19.48566895 707.74015625 18.47133789 707.1678125 17.42626953 706.578125 C-17.23840231 686.94352559 -50.39910597 665.12035459 -83.484375 642.9765625 C-84.18973389 642.50500732 -84.89509277 642.03345215 -85.62182617 641.54760742 C-86.87012927 640.71294508 -88.11774527 639.87725372 -89.36450195 639.0402832 C-91.37506245 637.69573804 -93.33415943 636.39542029 -95.5 635.3125 C-95.87898438 636.57513672 -95.87898438 636.57513672 -96.265625 637.86328125 C-103.54593393 658.20667615 -119.39132503 676.31270853 -134.5 691.3125 C-135.03447754 691.84423828 -135.56895508 692.37597656 -136.11962891 692.92382812 C-149.67234887 706.24726491 -165.0522548 716.87928585 -181.5 726.3125 C-182.23524902 726.73772949 -182.97049805 727.16295898 -183.72802734 727.60107422 C-211.81882052 743.66265985 -242.72647324 752.30379129 -274.5 757.3125 C-275.34788086 757.44672363 -276.19576172 757.58094727 -277.06933594 757.71923828 C-330.15437367 765.63191372 -389.21613842 755.69308189 -436.49462891 730.38525391 C-437.87295562 729.64793134 -439.25572608 728.91887472 -440.64208984 728.19677734 C-455.63917791 720.37897035 -469.94237293 711.18699505 -482.1640625 699.41015625 C-482.93492188 698.71792969 -483.70578125 698.02570312 -484.5 697.3125 C-485.03286621 696.75344971 -485.56573242 696.19439941 -486.11474609 695.6184082 C-489.02601685 692.91411591 -491.06963603 691.2636088 -495.14990234 691.40307617 C-498.48534439 692.19214424 -501.64311829 693.23225608 -504.875 694.375 C-506.15699986 694.79703783 -507.44008902 695.21577789 -508.72412109 695.6315918 C-512.46789768 696.85730542 -516.19170282 698.13661218 -519.91479492 699.42358398 C-523.68139478 700.71871951 -527.45720299 701.98610838 -531.23248291 703.25567627 C-540.8943426 706.50537884 -550.54461353 709.78820436 -560.1875 713.09375 C-618.71230627 733.15403122 -677.29254988 751.64135049 -738.8125 759.8125 C-769.4502522 763.88219666 -798.67212885 772.25998135 -828.08911133 781.51635742 C-846.77511842 787.3941954 -865.35910777 793.08178777 -884.5 797.3125 C-885.66982422 797.5919043 -885.66982422 797.5919043 -886.86328125 797.87695312 C-897.52957899 800.40419304 -908.21161092 800.61211341 -919.125 800.6875 C-919.81661224 800.69562714 -920.50822449 800.70375427 -921.22079468 800.71212769 C-934.99402759 800.83339938 -948.27499385 799.10782206 -961.1875 794.0625 C-961.98438232 793.75803955 -962.78126465 793.4535791 -963.60229492 793.13989258 C-988.56976689 783.35884704 -1011.93864803 764.34989304 -1028.5 743.3125 C-1028.5 742.6525 -1028.5 741.9925 -1028.5 741.3125 C-1029.37398437 741.61430176 -1030.24796875 741.91610352 -1031.1484375 742.22705078 C-1070.41040403 755.72077958 -1109.91906339 765.09161987 -1151.59375 766.76171875 C-1152.47270935 766.79853256 -1153.3516687 766.83534637 -1154.25726318 766.87327576 C-1158.60263335 767.05253603 -1162.9462236 767.20683824 -1167.29394531 767.31518555 C-1181.03712801 767.7555967 -1193.41076453 770.560212 -1205.625 777.125 C-1206.28201904 777.46700439 -1206.93903809 777.80900879 -1207.6159668 778.16137695 C-1209.58624297 779.19595572 -1211.54390113 780.25141101 -1213.5 781.3125 C-1214.63824219 781.91835938 -1215.77648438 782.52421875 -1216.94921875 783.1484375 C-1227.27232423 788.83154087 -1236.8611437 795.55495334 -1246.5 802.3125 C-1247.23154297 802.82361328 -1247.96308594 803.33472656 -1248.71679688 803.86132812 C-1255.08976303 808.31717593 -1261.44250788 812.79924124 -1267.71875 817.390625 C-1280.06220394 826.41450153 -1292.6864166 834.97005742 -1305.5 843.3125 C-1306.38558594 843.89032227 -1307.27117187 844.46814453 -1308.18359375 845.06347656 C-1318.53646214 851.77235589 -1329.14104261 857.88709065 -1340.0625 863.625 C-1341.10124268 864.17559082 -1342.13998535 864.72618164 -1343.21020508 865.29345703 C-1360.65270941 874.27878594 -1379.14285423 880.3721934 -1397.82373047 886.22192383 C-1401.47099465 887.36590236 -1405.11255108 888.52682219 -1408.75390625 889.68945312 C-1420.94148576 893.54875071 -1433.16267164 897.12911132 -1445.5625 900.24609375 C-1446.68527344 900.5288063 -1447.80804687 900.81151886 -1448.96484375 901.10279846 C-1509.00263267 915.79701806 -1579.81395711 898.31618837 -1631.9375 866.875 C-1644.59661415 859.02114837 -1655.73116448 849.55677906 -1666.5 839.3125 C-1667.25539063 838.6215625 -1668.01078125 837.930625 -1668.7890625 837.21875 C-1694.76164459 812.66285421 -1710.74901063 776.388721 -1719.5 742.3125 C-1719.71172852 741.50248535 -1719.92345703 740.6924707 -1720.14160156 739.85791016 C-1731.38300039 694.91903767 -1719.82459826 647.4903696 -1696.77368164 608.28271484 C-1688.86120513 595.11828294 -1679.94557927 582.9615982 -1670.07910156 571.20019531 C-1668.60958145 569.44349625 -1667.15862885 567.67312704 -1665.7109375 565.8984375 C-1654.50998215 552.33228484 -1641.87956792 539.72512305 -1628.5 528.3125 C-1627.49068378 527.43512774 -1626.48155453 526.55754032 -1625.47265625 525.6796875 C-1538.63322884 451.3125 -1538.63322884 451.3125 -1502.5 451.3125 C-1502.31566406 450.18199219 -1502.13132812 449.05148437 -1501.94140625 447.88671875 C-1491.96017792 390.78129934 -1457.72358488 337.34181748 -1413.5 300.3125 C-1412.97615723 299.8695459 -1412.45231445 299.4265918 -1411.91259766 298.97021484 C-1334.76593636 233.96760131 -1232.73136993 208.61159142 -1133.43847656 216.953125 C-1098.14166924 220.17386021 -1062.05878404 227.534079 -1029.3359375 241.51171875 C-1026.63691571 242.52432964 -1026.63691571 242.52432964 -1024.4375 241.8125 C-1021.69253867 239.68736865 -1019.42270695 237.20934704 -1017.125 234.625 C-1016.06031154 233.45144564 -1014.99518916 232.27828483 -1013.9296875 231.10546875 C-1013.37249023 230.48849121 -1012.81529297 229.87151367 -1012.24121094 229.23583984 C-997.09440399 212.50469218 -997.09440399 212.50469218 -990.67578125 207.171875 C-988.21911811 205.07246449 -985.87396279 202.87462752 -983.52050781 200.66088867 C-977.05994776 194.58668869 -970.46956246 188.8031337 -963.5 183.3125 C-962.87174316 182.81169922 -962.24348633 182.31089844 -961.59619141 181.79492188 C-897.73684655 130.92366385 -823.13904492 95.85855695 -518.13134766 62.31539917 C-439.83300135 71.41913885 -360.30252777 94.47340694 -292.1328125 134.80859375 C-289.52176593 136.41411104 -289.52176593 136.41411104 -286.5 137.3125 C-286.24863281 136.76207031 -285.99726562 136.21164063 -285.73828125 135.64453125 C-274.14169735 113.80490794 -251.90305939 93.01098198 -232.5 78.3125 C-231.19429248 77.29166791 -229.88969757 76.26941186 -228.5859375 75.24609375 C-214.30778247 64.10169017 -199.49699534 54.43037943 -183.71044922 45.55712891 C-181.78036185 44.47036224 -179.86043543 43.36781439 -177.94140625 42.26171875 C-138.54807568 20.26521162 -93.11859023 7.83036263 -48.5 2.3125 C-47.38706573 2.17426315 -47.38706573 2.17426315 -46.25164795 2.03323364 C-30.84146801 0.18907622 -15.50641754 -0.04746438 0 0 Z " fill="#FDFDF1" transform="translate(1723.5,-0.3125)"/>
</svg>
