<svg width="2024" height="530" viewBox="0 0 2024 530" fill="none" xmlns="http://www.w3.org/2000/svg">
<g filter="url(#filter0_dd_548_1268)">
<path d="M1844.86 151.559C1817.61 110.776 1792.23 95.198 1738.24 78.1229C1680.19 59.764 1568.12 70.8211 1528.15 110.776C1483.82 54.1477 1415.81 33.9978 1366.02 30.3738C1289.7 24.8185 1230.24 52.8394 1191.35 81.3797C1093.64 -24.9546 944.486 21.7322 886.119 94.3507C854.671 26.0539 746.94 4.99896 686.378 8.33529C625.815 11.6716 547.914 18.8766 467.066 98.8435C435.073 60.3748 362.814 58.5851 318.981 63.9095C275.147 69.234 220.652 92.3363 192.811 151.559C87.3741 145.044 8.00025 225.579 8 303.753C7.99975 381.926 50.1189 432.024 123.507 454.769C173.264 470.191 291.112 476.087 385.347 432.011C436.795 505.936 560.877 529.7 647.778 517.164C719.724 506.786 812.5 471.778 831.956 440.646C863.552 471.7 901.618 505.725 958.087 517.164C1034.09 532.563 1118.17 510.249 1149.3 463.565C1197.94 496.959 1243.31 515.438 1307.53 510.248C1391.84 503.436 1429.45 477.829 1454.43 440.646C1477.07 460.001 1528.05 491.348 1611.04 495.12C1696.64 499.01 1770.22 422.797 1770.22 422.797C1902.32 450.542 2004.28 407.991 2015.45 295.469C2022.63 223.218 1958.59 143.267 1844.86 151.559Z" fill="#FEFEF2"/>
</g>
<path d="M292.938 271.438C294.688 270.688 296.219 269.531 297.531 267.969C300.281 264.656 301.188 261.062 300.25 257.188C299.562 261.062 298.188 264.25 296.125 266.75C293.875 269.5 290.938 271.312 287.312 272.188C289.188 272.5 291.062 272.25 292.938 271.438ZM282.344 252.594C281.219 254.094 280.688 255.844 280.75 257.844C280.812 259.844 281.469 261.531 282.719 262.906C283.969 264.281 285.438 264.938 287.125 264.875C288.75 264.812 290.156 264.031 291.344 262.531C292.469 261.094 293 259.375 292.938 257.375C292.875 255.375 292.219 253.688 290.969 252.312C289.719 250.938 288.25 250.281 286.562 250.344C284.938 250.406 283.531 251.156 282.344 252.594ZM263.594 224.469C266.094 221.906 269.312 219.688 273.25 217.812C275.312 216.875 277.156 216.188 278.781 215.75C279.594 215.438 280.562 215.156 281.688 214.906L284.688 214.25C280.5 214.312 276.5 215.062 272.688 216.5C268.688 218.062 265.219 220.312 262.281 223.25C259.281 226.312 257.156 229.812 255.906 233.75C254.531 237.75 254.031 241.781 254.406 245.844C254.656 243.406 254.969 241.438 255.344 239.938C255.844 237.875 256.469 235.969 257.219 234.219C258.844 230.406 260.969 227.156 263.594 224.469ZM242.312 316.25C243.312 311.812 245.531 307.094 248.969 302.094C250.219 300.156 251.781 298.031 253.656 295.719L256.188 292.719L258.812 289.625C256.312 291.375 254.25 293.094 252.625 294.781C250.75 296.594 249 298.688 247.375 301.062C245.625 303.688 244.375 306.094 243.625 308.281C242.625 310.969 242.188 313.625 242.312 316.25ZM260.688 215.938C266.875 210.938 274.594 207.938 283.844 206.938C295.906 205.625 306.25 208.719 314.875 216.219C322.562 222.844 328.438 232.5 332.5 245.188C336.188 256.75 337.969 269.438 337.844 283.25C337.781 296.625 335.969 308.781 332.406 319.719C330.219 326.344 326.969 331.531 322.656 335.281C318.844 338.594 314.719 340.312 310.281 340.438C305.969 340.562 302.344 339.219 299.406 336.406C296.281 333.344 294.625 329.219 294.438 324.031C294.125 314.406 293.188 308.562 291.625 306.5C290.5 305 288.844 305.5 286.656 308C285.344 309.5 283.938 312.156 282.438 315.969L281.5 318.312L280.562 320.844C279.75 322.781 279 324.469 278.312 325.906C274.125 334.156 267.75 339.094 259.188 340.719C255.562 341.406 251.875 340.844 248.125 339.031C244.312 337.219 241.219 334.531 238.844 330.969C236.219 327.031 234.906 322.594 234.906 317.656C234.906 312.156 236.625 306.469 240.062 300.594C242.312 296.844 244.906 293.344 247.844 290.094C248.969 288.906 250.188 287.688 251.5 286.438C251.938 286 252.469 285.5 253.094 284.938L253.844 284.281L254.594 283.625C256.719 281.625 258 280.156 258.438 279.219C259.062 277.906 258.844 276.594 257.781 275.281C252.844 269.219 249.594 262.438 248.031 254.938C246.531 247.5 246.844 240.375 248.969 233.562C251.156 226.438 255.062 220.562 260.688 215.938ZM461.594 289.625C462.344 289 463 288.531 463.562 288.219C465.125 287.281 466.688 286.656 468.25 286.344C466.625 285.969 464.875 286.188 463 287C462.312 287.25 461.5 287.656 460.562 288.219L459.531 288.969L458.5 289.719C455.625 291.656 452.594 292.938 449.406 293.562C451.031 293.938 452.781 293.875 454.656 293.375C456.219 293 457.844 292.25 459.531 291.125L460.562 290.375L461.594 289.625ZM400.75 237.875C403.312 233.312 406.219 229.375 409.469 226.062C412.844 222.5 416.781 219.625 421.281 217.438C425.406 215.625 430.188 214.5 435.625 214.062C433.375 213.875 430.875 213.969 428.125 214.344C425.75 214.656 423.281 215.281 420.719 216.219C416.094 218.094 411.906 220.969 408.156 224.844C404.594 228.531 401.719 232.656 399.531 237.219C397.281 241.844 395.688 246.625 394.75 251.562C396.562 246.25 398.562 241.688 400.75 237.875ZM473.406 279.969C479.531 282.406 483.031 288.469 483.906 298.156C484.906 308.781 481.531 318.156 473.781 326.281C465.656 334.844 454.812 339.688 441.25 340.812C433.25 341.5 425.781 340.531 418.844 337.906C411.906 335.281 405.906 331.156 400.844 325.531C389.969 313.656 384.531 297.188 384.531 276.125C384.531 257.562 388.5 242 396.438 229.438C403.75 217.938 412.969 210.844 424.094 208.156C432.781 206.031 441.344 206.281 449.781 208.906C458.969 211.719 466.406 216.938 472.094 224.562C474.719 228.125 476.312 231.844 476.875 235.719C477.438 239.281 477.062 242.531 475.75 245.469C474.438 248.281 472.5 250.281 469.938 251.469C467.25 252.719 464.312 252.781 461.125 251.656C453.875 249.031 448.219 248.031 444.156 248.656C438.594 249.531 435.312 253.375 434.312 260.188C433.625 264.875 433.844 269.25 434.969 273.312C436.031 277 437.719 280.031 440.031 282.406C442.344 284.719 444.875 286 447.625 286.25C450.562 286.562 453.375 285.688 456.062 283.625C458.812 281.5 461.719 280.094 464.781 279.406C467.844 278.719 470.719 278.906 473.406 279.969ZM548.594 243.969C551.031 241.844 553.5 239.188 556 236C557.312 234.312 558.406 232.844 559.281 231.594L560.031 230.469L560.781 229.344C561.344 228.406 561.844 227.688 562.281 227.188C564.781 223.875 567.656 222.094 570.906 221.844C569.219 221.656 567.438 222 565.562 222.875C563.938 223.688 562.469 224.812 561.156 226.25C560.656 226.812 560.094 227.562 559.469 228.5L558.719 229.531L557.875 230.656C556.875 232.031 555.812 233.438 554.688 234.875C552.375 237.812 550.031 240.5 547.656 242.938C544.594 246 541.875 248.281 539.5 249.781C542.438 248.656 545.469 246.719 548.594 243.969ZM515.5 218.75C516.625 217.375 517.812 216.281 519.062 215.469C520.375 214.594 521.875 214.031 523.562 213.781C522 213.656 520.344 213.969 518.594 214.719C517.094 215.469 515.719 216.5 514.469 217.812C512.531 219.812 510.75 222.688 509.125 226.438C507.875 229.312 506.844 232.5 506.031 236C505.344 238.75 504.844 242.062 504.531 245.938L505.938 241.156L507.344 236.375C508.656 232.375 509.781 229.281 510.719 227.094C512.281 223.531 513.875 220.75 515.5 218.75ZM559.375 266.094C558.062 267.219 558.656 268.469 561.156 269.844C574.969 277.469 584.656 287.344 590.219 299.469C592.781 305.219 594 310.812 593.875 316.25C593.75 321.938 592.156 327.031 589.094 331.531C586.344 335.531 582.969 338.312 578.969 339.875C574.969 341.312 570.906 341.375 566.781 340.062C562.469 338.625 558.594 335.781 555.156 331.531C551.469 326.844 548.656 320.844 546.719 313.531C543.719 302.156 540.5 295 537.062 292.062C535.75 290.938 534.719 290.688 533.969 291.312C533.281 291.938 533.062 293.094 533.312 294.781V295.062L533.406 295.438L533.5 296.281C533.625 297.031 533.719 297.781 533.781 298.531C534.031 300.469 534.25 302.406 534.438 304.344C534.875 309.906 534.844 314.906 534.344 319.344C532.844 332.531 527.5 339.281 518.312 339.594C508.312 339.969 501.375 332.688 497.5 317.75C494.25 305.438 493.312 289.188 494.688 269C496.062 248.875 499.094 233.594 503.781 223.156C509.594 210.094 517.844 204.812 528.531 207.312C533.719 208.562 537.031 211.625 538.469 216.5C540.156 222.375 538.75 230 534.25 239.375C533.125 241.688 532.938 243.156 533.688 243.781C534.438 244.344 535.844 243.969 537.906 242.656C543.094 239.469 548.531 233.562 554.219 224.938C557.594 219.875 561.656 216.688 566.406 215.375C570.656 214.188 574.781 214.625 578.781 216.688C582.719 218.75 585.531 221.875 587.219 226.062C589.031 230.625 589.125 235.438 587.5 240.5C585.75 245.938 582.719 250.625 578.406 254.562C575.531 257.25 571.75 259.75 567.062 262.062C566.438 262.375 565.594 262.75 564.531 263.188L563.406 263.75L562.375 264.312C560.875 265 559.875 265.594 559.375 266.094ZM662.969 302.656C664.656 301.844 666.125 300.594 667.375 298.906C669.812 295.594 670.594 292 669.719 288.125C669.031 292.062 667.75 295.312 665.875 297.875C663.812 300.625 661.031 302.656 657.531 303.969C659.406 304.094 661.219 303.656 662.969 302.656ZM648.906 282.875C647.781 284.812 647.406 286.969 647.781 289.344C648.156 291.719 649.188 293.625 650.875 295.062C652.562 296.5 654.406 297.062 656.406 296.75C658.406 296.438 659.969 295.312 661.094 293.375C662.281 291.5 662.656 289.375 662.219 287C661.844 284.625 660.812 282.719 659.125 281.281C657.438 279.781 655.594 279.188 653.594 279.5C651.594 279.875 650.031 281 648.906 282.875ZM630.062 225.594C633.812 222.094 638.094 219.375 642.906 217.438C647.281 215.625 652.312 214.5 658 214.062L654.062 213.969L652.094 214.062L650.125 214.25C647.375 214.625 644.812 215.219 642.438 216.031C637.5 217.719 632.969 220.469 628.844 224.281C624.969 227.844 621.781 232.062 619.281 236.938C616.844 241.625 615.094 246.562 614.031 251.75L615.438 248.094L616.938 244.438L618.625 240.969L619.562 239.281L620.5 237.594C623.438 232.781 626.625 228.781 630.062 225.594ZM625.938 218.281C638.875 207.219 655 204.062 674.312 208.812C691.562 213.062 703.156 223.156 709.094 239.094C714.344 253.219 714.469 269.188 709.469 287C704.594 304.375 696.406 318.188 684.906 328.438C672.281 339.688 658.844 343.375 644.594 339.5C629.406 335.438 618.156 325.281 610.844 309.031C604.031 294.031 601.969 277.719 604.656 260.094C607.469 241.969 614.562 228.031 625.938 218.281ZM782.125 267.406C783.562 265.969 784.625 264.344 785.312 262.531C786.062 260.656 786.344 258.812 786.156 257C784.969 260.688 783.188 263.75 780.812 266.188C779.688 267.438 778.344 268.5 776.781 269.375C775.281 270.25 773.594 270.875 771.719 271.25C773.531 271.625 775.406 271.438 777.344 270.688C779.094 270 780.688 268.906 782.125 267.406ZM772.188 250.531C770.562 251.344 769.281 252.688 768.344 254.562C767.469 256.375 767.156 258.188 767.406 260C767.719 261.75 768.531 262.969 769.844 263.656C771.156 264.344 772.625 264.281 774.25 263.469C775.812 262.656 777.062 261.312 778 259.438C778.938 257.625 779.281 255.812 779.031 254C778.719 252.25 777.906 251.031 776.594 250.344C775.281 249.656 773.812 249.719 772.188 250.531ZM743.031 225.5C746.094 222.188 749.75 219.531 754 217.531C757.688 215.781 762.125 214.531 767.312 213.781C765.188 213.781 762.844 213.969 760.281 214.344C757.906 214.781 755.625 215.438 753.438 216.312C749 218 745.094 220.656 741.719 224.281C738.531 227.781 736.031 231.781 734.219 236.281C733.344 238.406 732.594 240.656 731.969 243.031C731.344 245.656 730.938 247.938 730.75 249.875C732.188 244.75 733.75 240.406 735.438 236.844C737.625 232.344 740.156 228.562 743.031 225.5ZM740.406 216.875C748.594 209.812 758.969 206.344 771.531 206.469C783.531 206.656 793.219 210 800.594 216.5C807.406 222.5 811.375 230.156 812.5 239.469C813.625 248.656 811.781 257.5 806.969 266C801.844 275.125 794.219 282.062 784.094 286.812C781.031 288.25 779.094 290.25 778.281 292.812C777.594 294.875 777.531 297.719 778.094 301.344C778.219 302.031 778.375 302.844 778.562 303.781L779.031 306.406C779.469 308.781 779.812 310.625 780.062 311.938C780.75 316.562 780.844 320.688 780.344 324.312C779.719 329.562 777.75 333.75 774.438 336.875C771.125 340 767.188 341.344 762.625 340.906C757.562 340.469 752.531 337.906 747.531 333.219C741.844 327.906 736.688 320.312 732.062 310.438C727.25 300.188 724.188 289.094 722.875 277.156C721.5 264.844 722.188 253.531 724.938 243.219C727.938 231.906 733.094 223.125 740.406 216.875ZM881.594 302.656C883.281 301.844 884.75 300.594 886 298.906C888.438 295.594 889.219 292 888.344 288.125C887.656 292.062 886.375 295.312 884.5 297.875C882.438 300.625 879.656 302.656 876.156 303.969C878.031 304.094 879.844 303.656 881.594 302.656ZM867.531 282.875C866.406 284.812 866.031 286.969 866.406 289.344C866.781 291.719 867.812 293.625 869.5 295.062C871.188 296.5 873.031 297.062 875.031 296.75C877.031 296.438 878.594 295.312 879.719 293.375C880.906 291.5 881.281 289.375 880.844 287C880.469 284.625 879.438 282.719 877.75 281.281C876.062 279.781 874.219 279.188 872.219 279.5C870.219 279.875 868.656 281 867.531 282.875ZM848.688 225.594C852.438 222.094 856.719 219.375 861.531 217.438C865.906 215.625 870.938 214.5 876.625 214.062L872.688 213.969L870.719 214.062L868.75 214.25C866 214.625 863.438 215.219 861.062 216.031C856.125 217.719 851.594 220.469 847.469 224.281C843.594 227.844 840.406 232.062 837.906 236.938C835.469 241.625 833.719 246.562 832.656 251.75L834.062 248.094L835.562 244.438L837.25 240.969L838.188 239.281L839.125 237.594C842.062 232.781 845.25 228.781 848.688 225.594ZM844.562 218.281C857.5 207.219 873.625 204.062 892.938 208.812C910.188 213.062 921.781 223.156 927.719 239.094C932.969 253.219 933.094 269.188 928.094 287C923.219 304.375 915.031 318.188 903.531 328.438C890.906 339.688 877.469 343.375 863.219 339.5C848.031 335.438 836.781 325.281 829.469 309.031C822.656 294.031 820.594 277.719 823.281 260.094C826.094 241.969 833.188 228.031 844.562 218.281ZM1041.06 302.75C1043.06 301.75 1044.59 300.188 1045.66 298.062C1046.66 296 1047.06 293.844 1046.88 291.594C1046.75 289.344 1046.12 287.312 1045 285.5C1046 290.062 1045.69 293.969 1044.06 297.219C1043.19 298.969 1041.94 300.438 1040.31 301.625C1038.75 302.75 1036.91 303.5 1034.78 303.875C1036.97 304.25 1039.06 303.875 1041.06 302.75ZM1027.09 287C1026.91 288.812 1027.31 290.625 1028.31 292.438C1029.38 294.25 1030.75 295.531 1032.44 296.281C1034.06 297.031 1035.53 297.031 1036.84 296.281C1038.16 295.531 1038.91 294.25 1039.09 292.438C1039.28 290.625 1038.88 288.812 1037.88 287C1036.81 285.188 1035.44 283.906 1033.75 283.156C1032.12 282.406 1030.66 282.406 1029.34 283.156C1028.03 283.906 1027.28 285.188 1027.09 287ZM1024.19 251.844C1022.94 252.531 1021.56 253.062 1020.06 253.438C1021.56 253.812 1023.12 253.688 1024.75 253.062C1026.25 252.5 1027.62 251.625 1028.88 250.438C1031.44 247.812 1032.53 244.906 1032.16 241.719C1031.59 243.219 1030.97 244.562 1030.28 245.75C1029.41 247.125 1028.5 248.281 1027.56 249.219C1026.62 250.156 1025.5 251.031 1024.19 251.844ZM1020.81 237.312C1019.69 237.812 1018.78 238.688 1018.09 239.938C1017.41 241.125 1017.12 242.312 1017.25 243.5C1017.38 244.688 1017.84 245.531 1018.66 246.031C1019.53 246.531 1020.5 246.531 1021.56 246.031C1022.69 245.531 1023.59 244.656 1024.28 243.406C1024.97 242.219 1025.25 241.031 1025.12 239.844C1025 238.656 1024.53 237.812 1023.72 237.312C1022.84 236.812 1021.88 236.812 1020.81 237.312ZM997.562 228.969C999.125 226.656 1000.66 224.75 1002.16 223.25C1003.78 221.5 1005.62 219.938 1007.69 218.562C1011.69 215.812 1016.25 214.219 1021.38 213.781C1019.06 213.656 1016.59 213.875 1013.97 214.438C1011.78 215 1009.44 216 1006.94 217.438C1002.94 219.75 999.344 223.25 996.156 227.938C993.406 232.062 991.25 236.594 989.688 241.531C988.125 246.469 987.094 251.344 986.594 256.156C987.969 250.781 989.438 246.062 991 242C993 236.875 995.188 232.531 997.562 228.969ZM1041.81 255.875C1041.19 257.5 1041.41 258.531 1042.47 258.969C1053.03 263.156 1061.16 269.719 1066.84 278.656C1072.09 286.969 1074.41 295.812 1073.78 305.188C1073.16 314.75 1069.56 322.719 1063 329.094C1055.88 336.156 1046.25 340.094 1034.12 340.906C1021.44 341.719 1010.59 338.688 1001.59 331.812C993.531 325.625 987.438 316.75 983.312 305.188C979.5 294.562 977.781 282.906 978.156 270.219C978.531 257.781 980.844 246.281 985.094 235.719C989.219 225.531 994.844 217.938 1001.97 212.938C1008.22 208.625 1015 206.562 1022.31 206.75C1029 206.938 1034.91 208.906 1040.03 212.656C1045.16 216.344 1048.16 220.812 1049.03 226.062C1049.84 230.812 1049.75 235.406 1048.75 239.844C1048.06 242.969 1046.88 246.219 1045.19 249.594C1044.88 250.219 1044.53 250.875 1044.16 251.562L1043.69 252.406L1043.22 253.156C1042.53 254.406 1042.06 255.312 1041.81 255.875ZM1147.09 302.188L1148.5 301.719C1152.69 300.406 1156.41 299.406 1159.66 298.719C1157.97 298.406 1156 298.406 1153.75 298.719C1152 298.906 1150.06 299.344 1147.94 300.031C1147.19 300.219 1146.25 300.562 1145.12 301.062L1143.81 301.531L1142.5 302.094C1140.69 302.719 1138.81 303.219 1136.88 303.594C1138.69 303.969 1140.69 303.906 1142.88 303.406C1143.62 303.281 1144.56 303.031 1145.69 302.656L1147.09 302.188ZM1112.22 218.188C1114.53 216.875 1117.12 215.844 1120 215.094C1122.38 214.406 1125.19 213.938 1128.44 213.688C1125.69 213.5 1122.81 213.688 1119.81 214.25C1116.81 214.812 1114.06 215.719 1111.56 216.969C1109 218.219 1106.56 219.875 1104.25 221.938C1102.38 223.75 1100.59 226.125 1098.91 229.062C1096.41 233.688 1094.5 239.156 1093.19 245.469C1092.06 250.906 1091.44 256.625 1091.31 262.625L1091.97 258.312C1092.22 256.688 1092.47 255.281 1092.72 254.094C1093.22 251.156 1093.81 248.375 1094.5 245.75C1096.25 239.25 1098.25 233.969 1100.5 229.906C1102 227.219 1103.66 225 1105.47 223.25C1107.28 221.438 1109.53 219.75 1112.22 218.188ZM1138 264.875L1137.25 265.156L1135.84 265.625L1134.34 266.094C1135.28 266.406 1136.34 266.531 1137.53 266.469C1137.97 266.469 1138.5 266.406 1139.12 266.281L1139.78 266.188L1140.53 266.094C1141.41 265.969 1142.34 265.875 1143.34 265.812C1144.53 265.812 1145.5 265.906 1146.25 266.094C1145.69 265.281 1144.78 264.719 1143.53 264.406C1142.59 264.156 1141.5 264.125 1140.25 264.312C1139.81 264.375 1139.28 264.5 1138.66 264.688L1138 264.875ZM1133.97 295.812C1136.22 296.688 1138.97 296.5 1142.22 295.25C1152.84 291.25 1161.16 290.406 1167.16 292.719C1172.84 294.906 1175.66 299.594 1175.59 306.781C1175.53 312.156 1172.91 317.531 1167.72 322.906C1162.84 327.969 1156.56 332.156 1148.88 335.469C1141 338.906 1133.22 340.75 1125.53 341C1117.09 341.25 1109.97 339.5 1104.16 335.75C1098.28 331.938 1093.5 324.594 1089.81 313.719C1086.38 303.594 1084.38 292.031 1083.81 279.031C1083.31 265.969 1084.38 254 1087 243.125C1089.81 231.312 1094.12 222.688 1099.94 217.25C1106.12 211.375 1113.69 207.875 1122.62 206.75C1130.5 205.812 1138.34 206.75 1146.16 209.562C1153.59 212.312 1159.19 216.094 1162.94 220.906C1167 225.969 1167.94 230.969 1165.75 235.906C1164.44 238.781 1162.22 240.875 1159.09 242.188C1156.78 243.125 1153.56 243.75 1149.44 244.062L1146.81 244.25L1144.28 244.344C1142.22 244.469 1140.56 244.625 1139.31 244.812C1135.69 245.25 1133 246.125 1131.25 247.438C1130.06 248.312 1129.25 249.5 1128.81 251C1128.44 252.438 1128.47 253.844 1128.91 255.219C1130.09 258.469 1132.75 259.562 1136.88 258.5C1141.75 257.25 1145.94 257.594 1149.44 259.531C1152.88 261.406 1154.72 264.281 1154.97 268.156C1155.22 272.344 1153.84 275.781 1150.84 278.469C1147.66 281.406 1142.72 283.188 1136.03 283.812C1133.72 284.062 1132.03 285.031 1130.97 286.719C1129.91 288.344 1129.66 290.062 1130.22 291.875C1130.78 293.812 1132.03 295.125 1133.97 295.812ZM1244.69 267.406C1246.12 265.969 1247.19 264.344 1247.88 262.531C1248.62 260.656 1248.91 258.812 1248.72 257C1247.53 260.688 1245.75 263.75 1243.38 266.188C1242.25 267.438 1240.91 268.5 1239.34 269.375C1237.84 270.25 1236.16 270.875 1234.28 271.25C1236.09 271.625 1237.97 271.438 1239.91 270.688C1241.66 270 1243.25 268.906 1244.69 267.406ZM1234.75 250.531C1233.12 251.344 1231.84 252.688 1230.91 254.562C1230.03 256.375 1229.72 258.188 1229.97 260C1230.28 261.75 1231.09 262.969 1232.41 263.656C1233.72 264.344 1235.19 264.281 1236.81 263.469C1238.38 262.656 1239.62 261.312 1240.56 259.438C1241.5 257.625 1241.84 255.812 1241.59 254C1241.28 252.25 1240.47 251.031 1239.16 250.344C1237.84 249.656 1236.38 249.719 1234.75 250.531ZM1205.59 225.5C1208.66 222.188 1212.31 219.531 1216.56 217.531C1220.25 215.781 1224.69 214.531 1229.88 213.781C1227.75 213.781 1225.41 213.969 1222.84 214.344C1220.47 214.781 1218.19 215.438 1216 216.312C1211.56 218 1207.66 220.656 1204.28 224.281C1201.09 227.781 1198.59 231.781 1196.78 236.281C1195.91 238.406 1195.16 240.656 1194.53 243.031C1193.91 245.656 1193.5 247.938 1193.31 249.875C1194.75 244.75 1196.31 240.406 1198 236.844C1200.19 232.344 1202.72 228.562 1205.59 225.5ZM1202.97 216.875C1211.16 209.812 1221.53 206.344 1234.09 206.469C1246.09 206.656 1255.78 210 1263.16 216.5C1269.97 222.5 1273.94 230.156 1275.06 239.469C1276.19 248.656 1274.34 257.5 1269.53 266C1264.41 275.125 1256.78 282.062 1246.66 286.812C1243.59 288.25 1241.66 290.25 1240.84 292.812C1240.16 294.875 1240.09 297.719 1240.66 301.344C1240.78 302.031 1240.94 302.844 1241.12 303.781L1241.59 306.406C1242.03 308.781 1242.38 310.625 1242.62 311.938C1243.31 316.562 1243.41 320.688 1242.91 324.312C1242.28 329.562 1240.31 333.75 1237 336.875C1233.69 340 1229.75 341.344 1225.19 340.906C1220.12 340.469 1215.09 337.906 1210.09 333.219C1204.41 327.906 1199.25 320.312 1194.62 310.438C1189.81 300.188 1186.75 289.094 1185.44 277.156C1184.06 264.844 1184.75 253.531 1187.5 243.219C1190.5 231.906 1195.66 223.125 1202.97 216.875ZM1364.5 218.281C1365.25 217.281 1366.06 216.594 1366.94 216.219C1367.75 215.844 1368.84 215.562 1370.22 215.375C1368.84 215.312 1367.72 215.438 1366.84 215.75C1365.78 216.062 1364.78 216.688 1363.84 217.625C1362.53 219.062 1361.47 221.188 1360.66 224C1359.78 227.5 1359.38 232.062 1359.44 237.688V239.469L1359.53 241.156C1359.53 242.469 1359.5 243.562 1359.44 244.438C1359.31 246.625 1358.88 248.781 1358.12 250.906C1356.5 255.344 1353.56 258.562 1349.31 260.562C1351.5 259.938 1353.5 258.812 1355.31 257.188C1357 255.625 1358.34 253.719 1359.34 251.469C1360.28 249.469 1360.88 247.188 1361.12 244.625C1361.25 243.625 1361.28 242.438 1361.22 241.062V239.375V237.688C1361.09 232.312 1361.38 227.844 1362.06 224.281C1362.62 221.656 1363.44 219.656 1364.5 218.281ZM1298.69 227.094C1299.88 223.719 1301.56 220.875 1303.75 218.562C1306.25 215.812 1309.16 214.281 1312.47 213.969C1310.84 213.781 1309.12 214 1307.31 214.625C1305.62 215.25 1304.09 216.219 1302.72 217.531C1300.22 219.781 1298.31 222.781 1297 226.531C1294.75 233.156 1293.53 240 1293.34 247.062L1294.56 242L1295.78 237.031C1296.78 233.219 1297.75 229.906 1298.69 227.094ZM1356.34 216.781C1358.97 211.406 1363.47 208.531 1369.84 208.156C1378.78 207.719 1385.88 213.688 1391.12 226.062C1396.19 237.938 1398.44 252.781 1397.88 270.594C1397.19 293.719 1395.22 310.281 1391.97 320.281C1387.53 334.094 1379.78 341 1368.72 341C1362.16 341 1357.12 338.469 1353.62 333.406C1349.75 327.969 1348.09 320.094 1348.66 309.781C1348.91 303.656 1348.03 299.188 1346.03 296.375C1344.47 294.25 1342.28 293.188 1339.47 293.188C1333.72 293.188 1331.28 298.969 1332.16 310.531C1333.34 326.344 1327.94 335.125 1315.94 336.875C1310.56 337.625 1305.66 336.156 1301.22 332.469C1295.78 327.969 1291.84 320.562 1289.41 310.25C1286.09 296.375 1284.53 281.75 1284.72 266.375C1284.91 250.438 1286.97 236.625 1290.91 224.938C1292.91 218.875 1296.09 214.188 1300.47 210.875C1304.97 207.438 1310.03 206.156 1315.66 207.031C1322.66 208.094 1327.66 211.094 1330.66 216.031C1334.03 221.594 1335.12 229.875 1333.94 240.875C1333.56 244.75 1334.16 247.906 1335.72 250.344C1337.28 252.719 1339.59 254.031 1342.66 254.281C1345.72 254.531 1348.19 253.625 1350.06 251.562C1352.31 249.188 1353.34 245.625 1353.16 240.875C1352.66 230 1353.72 221.969 1356.34 216.781ZM1489.84 220.906C1491.09 219.156 1492.34 217.719 1493.59 216.594C1495.22 214.969 1496.84 214.031 1498.47 213.781C1496.91 213.719 1495.09 214.406 1493.03 215.844C1491.66 216.906 1490.22 218.281 1488.72 219.969C1486.78 222.219 1484.53 225.438 1481.97 229.625L1478.97 234.594C1477.72 236.781 1476.75 238.469 1476.06 239.656C1474.81 241.594 1473.69 243.125 1472.69 244.25C1471.38 245.75 1469.84 246.875 1468.09 247.625C1469.78 247.312 1471.53 246.406 1473.34 244.906C1474.41 243.844 1475.69 242.344 1477.19 240.406C1478.19 239.094 1479.28 237.469 1480.47 235.531L1481.97 233L1483.47 230.562C1485.84 226.625 1487.97 223.406 1489.84 220.906ZM1433.31 300.781L1437.06 298.156C1440.19 295.969 1442.59 293.906 1444.28 291.969C1443.22 292.719 1441.91 293.562 1440.34 294.5L1438.38 295.719L1436.31 296.938C1433.12 298.812 1430.5 300.531 1428.44 302.094C1425.38 304.469 1423.12 306.75 1421.69 308.938C1420.81 310.375 1420.12 311.844 1419.62 313.344C1419.25 315.031 1419.09 316.625 1419.16 318.125C1419.53 316.25 1419.97 314.75 1420.47 313.625C1421.09 312.375 1421.88 311.094 1422.81 309.781C1424.44 307.781 1426.69 305.719 1429.56 303.594C1430.5 302.844 1431.75 301.906 1433.31 300.781ZM1415.41 229.156C1415.84 227.406 1416.53 225.906 1417.47 224.656C1419.47 221.844 1422.31 220.062 1426 219.312C1424.12 218.938 1422.28 219.156 1420.47 219.969C1418.72 220.719 1417.25 221.906 1416.06 223.531C1414.88 225.219 1414.19 227 1414 228.875C1413.75 230.812 1414 232.625 1414.75 234.312C1414.75 232.375 1414.97 230.656 1415.41 229.156ZM1487.22 211.906C1490.97 208.344 1494.72 206.562 1498.47 206.562C1505.72 206.5 1510.69 209.781 1513.38 216.406C1516.56 224.219 1516.38 236.312 1512.81 252.688C1509.31 268.688 1501.34 285.531 1488.91 303.219C1475.09 322.906 1461.22 334.875 1447.28 339.125C1436.91 342.25 1428.22 341.5 1421.22 336.875C1418.09 334.75 1415.72 332.031 1414.09 328.719C1412.47 325.344 1411.75 321.688 1411.94 317.75C1412.19 312.625 1414 307.969 1417.38 303.781C1419.75 300.781 1423.34 297.656 1428.16 294.406L1431.06 292.531L1432.47 291.594L1433.78 290.75C1435.91 289.375 1437.53 288.219 1438.66 287.281C1441.72 284.719 1443.16 282.25 1442.97 279.875C1442.78 277.625 1441.41 275.062 1438.84 272.188C1437.16 270.312 1434.16 267.5 1429.84 263.75L1427.22 261.5L1424.59 259.156C1422.59 257.344 1420.84 255.688 1419.34 254.188C1415.47 250.25 1412.5 246.531 1410.44 243.031C1407.62 238.094 1406.62 233.156 1407.44 228.219C1408.19 223.594 1410.28 219.75 1413.72 216.688C1417.16 213.625 1421.19 212.094 1425.81 212.094C1430.88 212.031 1435.75 213.906 1440.44 217.719C1443.38 220.094 1446.38 222.812 1449.44 225.875C1450.56 227.062 1451.78 228.375 1453.09 229.812C1453.59 230.312 1454.16 230.906 1454.78 231.594L1455.62 232.531L1456.38 233.375C1460.94 238.312 1463.94 240.781 1465.38 240.781C1466.75 240.719 1468.62 238.906 1471 235.344C1471.75 234.219 1472.88 232.406 1474.38 229.906L1475.22 228.406L1476.16 226.812L1478.12 223.625C1481.44 218.438 1484.47 214.531 1487.22 211.906ZM1602.16 289.625C1602.91 289 1603.56 288.531 1604.12 288.219C1605.69 287.281 1607.25 286.656 1608.81 286.344C1607.19 285.969 1605.44 286.188 1603.56 287C1602.88 287.25 1602.06 287.656 1601.12 288.219L1600.09 288.969L1599.06 289.719C1596.19 291.656 1593.16 292.938 1589.97 293.562C1591.59 293.938 1593.34 293.875 1595.22 293.375C1596.78 293 1598.41 292.25 1600.09 291.125L1601.12 290.375L1602.16 289.625ZM1541.31 237.875C1543.88 233.312 1546.78 229.375 1550.03 226.062C1553.41 222.5 1557.34 219.625 1561.84 217.438C1565.97 215.625 1570.75 214.5 1576.19 214.062C1573.94 213.875 1571.44 213.969 1568.69 214.344C1566.31 214.656 1563.84 215.281 1561.28 216.219C1556.66 218.094 1552.47 220.969 1548.72 224.844C1545.16 228.531 1542.28 232.656 1540.09 237.219C1537.84 241.844 1536.25 246.625 1535.31 251.562C1537.12 246.25 1539.12 241.688 1541.31 237.875ZM1613.97 279.969C1620.09 282.406 1623.59 288.469 1624.47 298.156C1625.47 308.781 1622.09 318.156 1614.34 326.281C1606.22 334.844 1595.38 339.688 1581.81 340.812C1573.81 341.5 1566.34 340.531 1559.41 337.906C1552.47 335.281 1546.47 331.156 1541.41 325.531C1530.53 313.656 1525.09 297.188 1525.09 276.125C1525.09 257.562 1529.06 242 1537 229.438C1544.31 217.938 1553.53 210.844 1564.66 208.156C1573.34 206.031 1581.91 206.281 1590.34 208.906C1599.53 211.719 1606.97 216.938 1612.66 224.562C1615.28 228.125 1616.88 231.844 1617.44 235.719C1618 239.281 1617.62 242.531 1616.31 245.469C1615 248.281 1613.06 250.281 1610.5 251.469C1607.81 252.719 1604.88 252.781 1601.69 251.656C1594.44 249.031 1588.78 248.031 1584.72 248.656C1579.16 249.531 1575.88 253.375 1574.88 260.188C1574.19 264.875 1574.41 269.25 1575.53 273.312C1576.59 277 1578.28 280.031 1580.59 282.406C1582.91 284.719 1585.44 286 1588.19 286.25C1591.12 286.562 1593.94 285.688 1596.62 283.625C1599.38 281.5 1602.28 280.094 1605.34 279.406C1608.41 278.719 1611.28 278.906 1613.97 279.969ZM1692.72 304.062C1694.59 303.25 1696.09 301.969 1697.22 300.219C1698.34 298.594 1698.97 296.75 1699.09 294.688C1699.28 292.688 1699 290.781 1698.25 288.969C1698.25 291.031 1698.09 292.875 1697.78 294.5C1697.28 296.438 1696.59 298.031 1695.72 299.281C1693.78 302.281 1690.88 304.125 1687 304.812C1688.94 305.188 1690.84 304.938 1692.72 304.062ZM1679.78 287.656C1679.47 289.406 1679.78 291.188 1680.72 293C1681.66 294.875 1682.94 296.219 1684.56 297.031C1686.12 297.844 1687.56 297.906 1688.88 297.219C1690.25 296.531 1691.06 295.312 1691.31 293.562C1691.62 291.812 1691.31 290 1690.38 288.125C1689.44 286.312 1688.16 285 1686.53 284.188C1684.97 283.375 1683.5 283.281 1682.12 283.906C1680.81 284.594 1680.03 285.844 1679.78 287.656ZM1668.06 217.906C1669.56 216.719 1670.88 215.875 1672 215.375C1673.44 214.562 1674.91 214.062 1676.41 213.875C1673.53 213.625 1670.5 214.594 1667.31 216.781C1664.88 218.406 1662.5 220.625 1660.19 223.438C1658.19 225.812 1656.41 228.5 1654.84 231.5C1653.53 233.812 1652.25 236.719 1651 240.219L1653.44 236.188C1654.44 234.562 1655.31 233.219 1656.06 232.156C1658.19 228.969 1660.03 226.438 1661.59 224.562C1663.72 221.938 1665.88 219.719 1668.06 217.906ZM1690.28 255.594C1691.16 258.094 1693.19 259.812 1696.38 260.75C1707.56 264.188 1715.88 270.344 1721.31 279.219C1726.25 287.406 1728 296.344 1726.56 306.031C1725.06 315.719 1720.75 323.781 1713.62 330.219C1705.75 337.281 1695.84 340.875 1683.91 341C1671.34 341.125 1660.97 337.688 1652.78 330.688C1645.47 324.375 1640.31 315.594 1637.31 304.344C1634.56 294.031 1633.88 282.719 1635.25 270.406C1636.62 258.469 1639.69 247.406 1644.44 237.219C1649.06 227.344 1654.22 219.781 1659.91 214.531C1664.91 209.844 1669.91 207.281 1674.91 206.844C1679.53 206.406 1683.5 207.75 1686.81 210.875C1690.06 213.938 1692.03 218.094 1692.72 223.344C1693.16 227.031 1693 231.25 1692.25 236C1692 237.375 1691.62 239.281 1691.12 241.719L1690.66 244.438C1690.47 245.438 1690.31 246.312 1690.19 247.062C1689.56 250.812 1689.59 253.656 1690.28 255.594ZM1748.22 223.719C1746.84 226.406 1745.78 229.531 1745.03 233.094C1744.41 236.156 1744.09 239.438 1744.09 242.938C1744.91 239.125 1745.66 235.969 1746.34 233.469C1747.47 229.719 1748.62 226.719 1749.81 224.469C1750.56 222.969 1751.44 221.688 1752.44 220.625C1753.38 219.438 1754.5 218.344 1755.81 217.344C1758.62 215.219 1761.53 213.969 1764.53 213.594C1761.28 213.281 1758.12 214.156 1755.06 216.219C1752.06 218.156 1749.78 220.656 1748.22 223.719ZM1764.53 290C1763.16 292.438 1760.88 293.969 1757.69 294.594C1752.06 295.719 1747.34 293.156 1743.53 286.906C1740.22 281.344 1738.03 273.688 1736.97 263.938C1735.97 254.562 1736.25 245.469 1737.81 236.656C1739.5 227.219 1742.25 220.281 1746.06 215.844C1751.25 209.844 1757.28 206.75 1764.16 206.562C1767.09 206.5 1769.81 207.062 1772.31 208.25C1774.75 209.438 1776.66 211.125 1778.03 213.312C1780.91 217.75 1780.88 223.938 1777.94 231.875C1777.44 233.25 1776.75 234.906 1775.88 236.844L1774.84 239.281L1773.72 241.812C1771.97 245.812 1770.81 248.969 1770.25 251.281C1769 256.156 1768.12 261.594 1767.62 267.594C1767.56 268.719 1767.47 269.938 1767.34 271.25L1767.25 272.938L1767.16 274.625C1767.03 277.438 1766.91 279.5 1766.78 280.812C1766.41 284.938 1765.66 288 1764.53 290ZM1744.09 319.719C1745.28 316.719 1746.66 314.344 1748.22 312.594C1750.16 310.469 1752.47 309.062 1755.16 308.375C1753.78 308 1752.31 308.125 1750.75 308.75C1749.38 309.312 1748.12 310.188 1747 311.375C1744.69 313.875 1743.72 316.656 1744.09 319.719ZM1743.16 306.5C1746.66 303.062 1750.66 301.344 1755.16 301.344C1760.47 301.344 1764.84 303.5 1768.28 307.812C1771.78 312.188 1773.12 317.406 1772.31 323.469C1771.5 329.531 1768.84 334.219 1764.34 337.531C1759.91 340.844 1755.12 341.781 1750 340.344C1745.62 339.156 1742.22 336.469 1739.78 332.281C1737.34 328.156 1736.44 323.656 1737.06 318.781C1737.69 313.906 1739.72 309.812 1743.16 306.5Z" fill="#28BF0F"/>
<defs>
<filter id="filter0_dd_548_1268" x="0" y="0" width="2024" height="530" filterUnits="userSpaceOnUse" color-interpolation-filters="sRGB">
<feFlood flood-opacity="0" result="BackgroundImageFix"/>
<feColorMatrix in="SourceAlpha" type="matrix" values="0 0 0 0 0 0 0 0 0 0 0 0 0 0 0 0 0 0 127 0" result="hardAlpha"/>
<feOffset dy="4"/>
<feGaussianBlur stdDeviation="2"/>
<feComposite in2="hardAlpha" operator="out"/>
<feColorMatrix type="matrix" values="0 0 0 0 0 0 0 0 0 0 0 0 0 0 0 0 0 0 0.25 0"/>
<feBlend mode="normal" in2="BackgroundImageFix" result="effect1_dropShadow_548_1268"/>
<feColorMatrix in="SourceAlpha" type="matrix" values="0 0 0 0 0 0 0 0 0 0 0 0 0 0 0 0 0 0 127 0" result="hardAlpha"/>
<feOffset/>
<feGaussianBlur stdDeviation="4"/>
<feComposite in2="hardAlpha" operator="out"/>
<feColorMatrix type="matrix" values="0 0 0 0 0 0 0 0 0 0 0 0 0 0 0 0 0 0 0.3 0"/>
<feBlend mode="normal" in2="effect1_dropShadow_548_1268" result="effect2_dropShadow_548_1268"/>
<feBlend mode="normal" in="SourceGraphic" in2="effect2_dropShadow_548_1268" result="shape"/>
</filter>
</defs>
</svg>
