<svg width="640" height="136" viewBox="0 0 640 136" fill="none" xmlns="http://www.w3.org/2000/svg">
<g clip-path="url(#clip0_351_654)">
<path d="M32.782 115.325C33.1182 110.786 33.7907 106.751 35.808 102.548C37.8254 98.85 40.8514 95.824 42.3644 92.1255C43.7093 86.9141 38.6659 84.8968 34.295 84.3924C26.5619 83.5519 18.8288 84.7286 11.4319 87.4184C7.06098 89.0995 2.52197 92.4618 6.72475 97.0008C9.75076 100.195 13.113 99.8587 16.8114 101.54C21.8548 104.398 13.4492 110.45 11.4319 112.131C8.40587 114.652 5.04364 116.502 2.18575 119.191C0.840857 120.873 -0.167811 122.386 1.17708 124.235C4.53931 126.756 9.24642 119.528 10.7594 117.51C13.113 114.652 15.4665 111.458 18.1563 108.937C19.6693 107.928 23.0316 108.264 24.2083 109.777C26.3938 113.139 23.704 118.015 26.3938 121.209C27.2343 121.881 27.9068 122.049 29.0836 122.049C31.4371 120.873 32.4458 117.51 32.782 115.325Z" fill="white"/>
<path d="M55.4768 115.323C54.9725 110.616 54.4681 106.749 52.4508 102.546C50.6016 99.1842 47.9118 96.3263 46.2307 92.9641C44.0452 87.2483 49.0886 84.8947 53.9638 84.2223C62.2012 83.2136 71.2793 84.7266 78.8443 88.0888C82.5427 90.2743 84.8963 93.1322 81.5341 96.8306C78.8443 99.6885 75.9864 99.8566 72.456 100.865C69.5981 102.042 69.0938 103.387 70.7749 106.245C72.9604 109.271 76.3226 111.624 79.3486 113.978C82.0384 115.827 85.0644 117.676 87.0817 120.366C88.4266 122.72 87.5861 125.41 84.392 124.569C81.1978 123.224 79.5167 120.366 77.3313 117.676C74.9777 114.819 72.6242 111.624 69.9344 109.103C69.0938 108.598 67.917 108.598 67.0765 108.598C59.3434 109.271 66.0678 120.03 60.6882 122.047C60.1839 122.215 59.6796 122.215 59.1752 122.215C56.8217 120.871 55.813 117.676 55.4768 115.323Z" fill="white"/>
<path d="M87.9224 37.4882C86.9137 36.1433 84.2239 36.3114 82.879 36.3114C70.9431 37.152 59.0072 44.0445 52.2828 53.795C48.08 60.1832 46.0626 66.5715 45.3902 74.1365C45.2221 76.3219 45.054 78.3392 45.8945 80.3566C48.5843 85.3999 52.2828 83.2145 56.8218 81.3653C62.0332 79.3479 67.0766 78.003 72.6242 78.6755C76.1546 79.1798 80.3574 79.6841 83.0471 76.6581C87.5862 69.9337 84.392 61.0238 84.7283 53.6269C85.0645 50.4328 86.7456 47.5749 87.5861 44.5489C88.2586 42.5315 89.0991 39.5055 87.9224 37.4882Z" fill="white"/>
<path d="M0.504099 37.4882C1.51277 36.1433 4.20255 36.3114 5.54744 36.3114C17.4833 37.152 29.4193 44.0445 36.1437 53.795C40.6827 60.5194 42.7001 67.7482 43.0363 75.9857C43.0363 78.3393 43.0363 79.6841 41.6914 81.7015C40.1784 83.8869 38.161 84.055 35.8075 83.2145C29.2511 80.6928 22.8629 77.8349 15.6341 78.8436C11.7676 79.3479 7.22855 80.0204 4.87499 76.1538C1.17654 69.2612 4.03444 61.1919 3.69822 53.795C3.36199 51.1052 2.35332 49.0879 1.34466 46.3981C0.504099 43.8764 -0.67268 40.178 0.504099 37.4882Z" fill="white"/>
<path d="M221.403 126.251C218.209 123.393 218.377 119.022 218.377 119.022V51.2732C217.873 41.1865 221.235 37.8243 231.322 37.4881V33.1172H192.992L170.633 95.6546L148.779 33.1172H108.6V37.4881C120.872 37.32 121.713 43.8763 121.713 54.1311C121.881 73.9682 122.385 93.6373 121.713 113.306C121.713 123.729 117.678 127.428 107.76 129.109V133.312H142.727C142.727 124.738 137.515 130.958 132.136 124.402C128.942 120.703 129.446 108.935 129.446 103.724V46.9023L160.715 133.143H165.59L196.691 44.0444H196.859V117.005C197.363 125.747 191.479 128.941 183.578 128.941V133.143H231.49C231.49 124.402 227.455 131.462 221.403 126.251Z" fill="white"/>
<path d="M299.406 125.242C294.867 127.763 291.337 125.578 291.505 120.198C291.505 120.198 291.505 89.2659 291.168 83.5501C290.328 69.0925 274.694 65.3941 260.572 66.5709V71.278C261.245 71.1099 261.917 70.9418 262.926 70.9418C274.189 70.9418 272.172 84.5588 272.172 91.9557C268.642 92.46 264.607 92.9644 260.572 93.8049V101.202C263.934 99.6888 267.969 98.6801 272.172 98.1758V120.03C269.314 123.897 264.775 126.082 260.572 126.923V133.647C265.111 132.134 269.314 129.949 272.172 127.763C277.047 140.204 297.22 137.178 299.574 128.94V125.578L299.406 125.242ZM260.572 66.4028C253.511 66.9071 246.955 68.7563 242.584 71.1099C221.402 82.2052 243.425 101.37 250.485 85.5675C252.839 80.6922 255.024 72.791 260.572 71.1099V66.4028ZM260.572 93.6368V101.034C255.024 103.555 250.99 107.758 249.309 114.819C246.955 124.233 253.511 127.763 260.572 126.755V133.479C246.619 138.018 228.463 137.01 228.463 120.198C228.463 103.892 245.61 96.999 260.572 93.6368Z" fill="white"/>
<path d="M498.619 124.91C494.08 127.431 490.549 125.414 490.718 120.035C490.718 120.035 490.718 89.1021 490.381 83.2182C489.541 68.9287 473.906 65.2303 459.785 66.4071V71.1142C460.458 70.9461 461.13 70.7779 462.139 70.7779C473.402 70.7779 471.385 84.2269 471.385 91.7919C467.854 92.2962 463.82 92.8005 459.785 93.6411V100.87C463.147 99.3569 467.182 98.3482 471.385 98.012V119.866C468.527 123.565 463.988 125.918 459.785 126.759V133.315C464.324 131.802 468.359 129.617 471.385 127.263C476.26 139.872 496.433 136.678 498.787 128.608V125.246C498.787 125.078 498.619 125.078 498.619 124.91ZM459.785 66.2389C452.724 66.7433 446.168 68.5925 441.797 70.7779C420.615 82.0414 442.638 101.206 449.698 85.2355C452.052 80.3603 454.237 72.4591 459.785 70.9461V66.2389ZM459.785 93.473V100.702C454.237 103.392 450.203 107.594 448.522 114.487C446.168 124.069 452.724 127.6 459.785 126.591V133.147C445.832 137.686 427.676 136.678 427.676 119.866C427.676 103.728 444.655 96.8352 459.785 93.473Z" fill="white"/>
<path d="M355.724 113.978L359.254 117.004C341.771 146.256 293.523 140.035 295.372 102.715C296.717 75.4806 320.757 60.5187 346.142 69.2605C354.211 72.1184 360.095 78.1704 355.22 87.0803C352.698 91.6193 342.611 93.8048 339.417 86.576C336.896 80.8602 336.896 72.1184 328.322 72.1184C305.459 71.9503 313.696 141.212 343.116 125.41C346.478 123.56 352.698 119.19 355.724 113.978Z" fill="white"/>
<path d="M560.147 129.446C567.712 130.623 569.393 122.385 569.225 116.838C569.225 107.76 573.764 76.8271 559.475 76.8271V72.7924L588.894 64.2188V76.3228C595.787 70.7751 603.184 65.8999 612.43 66.4042C621.844 66.7404 631.09 73.8011 631.09 83.7197C631.09 85.5689 631.258 112.971 631.258 121.713C631.258 130.455 640 129.614 640 129.614V133.817H602.511V129.446C602.511 129.446 611.253 130.287 611.253 121.04C611.253 111.962 611.253 85.9051 611.253 85.9051C611.757 72.7924 594.946 78.172 588.726 82.3748L588.558 120.872C588.558 120.872 587.885 129.446 596.963 129.446V133.649H560.147V129.446Z" fill="white"/>
<path d="M529.383 66.0703H529.215V71.4499H529.383C550.733 71.4499 550.733 130.121 529.719 130.121C529.551 130.121 529.383 130.121 529.215 130.121V135.668H529.383C575.277 135.837 576.79 66.0703 529.383 66.0703ZM529.215 66.0703C484.833 66.4065 480.799 135.5 529.215 135.837V130.289C506.184 129.448 508.705 72.2904 529.215 71.618V66.0703Z" fill="white"/>
<path d="M350.848 129.446C350.848 129.446 355.387 130.286 357.909 126.756C360.431 123.394 359.926 116.837 359.926 116.837C359.926 116.837 359.926 34.6309 359.926 26.5616C359.926 16.4749 355.387 12.6084 350.176 12.6084V8.57368L379.427 0V76.1544C379.427 76.1544 384.302 72.2879 387.665 70.4387C391.027 68.5894 396.575 66.0678 403.131 66.2359C409.687 66.5721 413.89 69.0938 417.42 72.9603C421.119 76.8269 421.791 81.7021 421.791 83.7195C421.791 85.5687 421.959 112.803 421.959 121.545C421.959 130.286 430.701 129.446 430.701 129.446V133.817H393.212V129.446C393.212 129.446 401.954 130.286 401.954 121.208C401.954 112.13 401.954 86.073 401.954 86.073C401.954 86.073 402.29 77.8355 393.38 77.4993C387.328 77.1631 379.427 82.3746 379.427 82.3746L379.259 121.04C379.259 121.04 378.587 129.446 387.665 129.446V133.817H351.016V129.446H350.848Z" fill="white"/>
</g>
<defs>
<clipPath id="clip0_351_654">
<rect width="640" height="135.834" fill="white"/>
</clipPath>
</defs>
</svg>
