<svg width="413" height="35" viewBox="0 0 413 35" fill="none" xmlns="http://www.w3.org/2000/svg">
<g clip-path="url(#clip0_795_3606)" filter="url(#customfilters)">
<path fill-rule="evenodd" clip-rule="evenodd" d="M13.5545 13.0203L21.6579 13.9184C30.3014 14.8664 34.7705 18.3584 34.7705 24.2448C34.7705 31.0793 28.5826 34.9207 17.2869 34.9207C5.69698 34.9207 0 31.0793 0 23.2971H7.90684C7.90684 26.6895 11.3446 28.585 17.4835 28.585C23.6716 28.585 26.4217 27.4374 26.4217 24.4943C26.4217 22.2994 24.4572 21.3514 20.9213 20.9524L13.1616 20.1045C5.0585 19.2064 0.982263 15.8638 0.982263 10.127C0.982263 3.99112 7.514 0 16.7959 0C27.0602 0 33.1497 3.99112 33.1497 10.5759H25.4393C25.0957 7.68255 22.2964 6.18602 16.9431 6.18602C11.5903 6.18602 9.13475 7.48317 9.13475 9.87745C9.13475 11.9727 10.7061 12.7213 13.5545 13.0203ZM242.854 28.0362C236.223 28.0362 232.343 24.1452 232.343 17.4604C232.343 10.7756 236.223 6.8845 242.854 6.8845C248.011 6.8845 251.056 8.92957 252.136 12.9705H260.581C259.747 5.23814 252.528 5.8299e-05 242.854 5.8299e-05C231.312 5.8299e-05 223.798 6.8845 223.798 17.4604C223.798 28.0862 231.263 34.9207 242.854 34.9207C252.921 34.9207 259.944 29.4829 260.68 21.1518H252.232C251.742 25.4921 248.304 28.0362 242.854 28.0362ZM196.644 20.6032L202.681 4.53974H202.926L208.936 20.6032H196.644ZM196.394 0.847981L183.92 34.0724H191.582L194.3 26.839H211.27L213.976 34.0724H222.472L209.949 0.847981H196.394ZM73.961 0.848038H65.3175L52.5977 13.9684H48.767V0.848038H41.0075V34.0724H48.767V20.2541H52.5977L65.1698 34.0724H75.238L59.0107 16.2801L73.961 0.848038ZM95.8643 0.848038H103.624V27.6871H121.304V34.0724H95.8643V0.848038ZM134.269 0.848038H126.509V34.0724H151.949V27.6871H134.269V0.848038ZM164.914 7.23355H184.461V0.84814H157.155V34.0726H164.914V21.8504H181.121V15.465H164.914V7.23355ZM87.5157 34.0726H79.7561V0.848145H87.5157V34.0726ZM308.121 0.848126H327.92V8.48083H308.121V0.848126ZM308.121 8.48083V26.4398H299.92V8.48083H308.121ZM327.92 8.48083H336.122V26.4398H327.92V8.48083ZM361.609 16.9614H351.05V7.23345H361.609C365.245 7.23345 367.502 9.12933 367.502 12.1224C367.502 15.1157 365.245 16.9614 361.609 16.9614ZM375.558 12.1224C375.558 5.18838 370.254 0.848064 361.609 0.848064H343.242V34.0726H351.05V23.3468H358.71L367.502 34.0726H376.981L366.965 21.8544C372.391 20.529 375.558 17.0557 375.558 12.1224ZM404.679 0.848036L395.397 15.6144L386.115 0.848036H377.079L391.126 22.6985V34.0724H398.885V22.6985L412.979 0.848036H404.679ZM275.561 7.23352H263.284V0.848138H295.647V7.23352H283.32V34.0726H275.561V7.23352ZM327.92 34.0726H308.121V26.4398H327.92V34.0726Z" fill="white"/>
</g>
<defs>
<clipPath id="clip0_795_3606">
<rect width="413" height="35" fill="white"/>
</clipPath>
<filter xmlns="http://www.w3.org/2000/svg" id="customfilters">
    <!-- Shadow offset -->
    <feOffset dx="0" dy="0"/>
    <!-- Shadow blur -->
  <feGaussianBlur stdDeviation="1" result="offset-blur"/>
    <!-- Invert drop shadow to make an inset shadow-->
    <feComposite operator="out" in="SourceGraphic" in2="offset-blur" result="inverse"/>
    <!-- Cut colour inside shadow -->
    <feFlood flood-color="black" flood-opacity=".95" result="color"/>
    <feComposite operator="in" in="color" in2="inverse" result="shadow"/>
    <!-- Placing shadow over element -->
    <feComposite operator="over" in="shadow" in2="SourceGraphic"/> 
  </filter>
</defs>
</svg>
